<mxfile host="app.diagrams.net" modified="2023-11-26T15:01:17.759Z" agent="Mozilla/5.0 (Windows NT 10.0; Win64; x64) AppleWebKit/537.36 (KHTML, like Gecko) Chrome/119.0.0.0 Safari/537.36" etag="3DVlAgqy2rAO9r_LDM89" version="22.1.4" type="device">
  <diagram name="Страница — 1" id="3Qcw9OyHfB7RgX5Mrerf">
    <mxGraphModel dx="5170" dy="3369" grid="1" gridSize="10" guides="1" tooltips="1" connect="1" arrows="1" fold="1" page="1" pageScale="1" pageWidth="827" pageHeight="1169" math="0" shadow="0">
      <root>
        <mxCell id="0" />
        <mxCell id="1" parent="0" />
        <mxCell id="vTN3UZVroqYAGyat1BRj-61" value="" style="shape=image;verticalLabelPosition=bottom;labelBackgroundColor=default;verticalAlign=top;aspect=fixed;imageAspect=0;image=data:image/png,iVBORw0KGgoAAAANSUhEUgAABKwAAAMlCAYAAABev2vXAAAAAXNSR0IArs4c6QAAAARnQU1BAACxjwv8YQUAAAAJcEhZcwAADsMAAA7DAcdvqGQAAP+lSURBVHhe7N0FYBVHu8bxJwZJcHd3d9cCxalQpVS/ugulLVXqdiu0UCpQL7SF4i7F3d3dPU4898ycPcnBigVygP+vd+/uzuyxDR8hT96Z8YuIjE4RAAAAgHSTkpKi5ORkJSUlKSEhXsePxyomJlrd75mu5Used64CAABn4u/sAQAAAAAAAJ9AYAUAAAAAAACfQmAFAAAAAAAAn0JgBQAAAAAAAJ9CYAUAAAAAAACfQmAFAAAAAAAAn0JgBQAAAAAAAJ9CYAUAAAAAAACfQmAFAAAAAAAAn0JgBQAAAFwCfn5+qXu7uf4DAADnhsAKAAAAuERODq2CgvwVF5do2wAAwJkRWAEAAACXkK2tMoGVv7/Kls2uefN3Oz0AAOBMCKwAAACAS8RWWLm2gIAABQYGqmXzAur3zQKqrAAAOAsCKwAAAOASMYGVv7+/3Uxo1bxZEZUpE6y77/1H02dsJ7gCAOAM/CIio1OcYwAAAADpJCUlxW5JSUlKTEhQvGuLjY1VXFysZs7cqxmzDmrLlgglJCQ7jwAAAB4EVgAAAMAl4AmskpOTbWiVlJSo+PgExcXFKSE+XgmJCUpMNO1Jqdd6HgcAwLWOwAoAAAC4RLxDq8TERNc+SQkJia4twV155WpLcfXZ61z/AQAANwIrAAAA4BLxrpryVFolm2or17Hn3BNqea4FAAAEVgAAAMAldXJo5dmbzXWSWllFYAUAQBoCKwAAAOAS8w6tPHvP5jkHAABpCKwAAACAy+S/AipCKwAA0hBYAQAAAJcZ4RQAAP+NwAoAAAAAAAA+xd/ZAwAAAAAAAD6BwAoAAAAAAAA+hcAKAAAAAAAAPoXACgAAAAAAAD6FwAoAAAAAAAA+hcAKAAAAAAAAPoXACgAAAAAAAD6FwAoAAAAAAAA+hcAKAAAAAAAAPoXACgAAAAAAAD6FwAoAAAAAAAA+xS8iMjrFOQYA4KKMHz9OkydPUnxcnNMCAJdOQGCgGjVqrDvv7Oa0AACAqwWBFQAgXXz++WfaumWz/Pz8lC1/XleLn7sDAC6RqCNHlJyYpJy5c+u9d993WgEAwNWAwAoAcNEWLJiv3379RfnLlVHr55+0oRUAXA4LfvtTW+YuUMtWrXTrLbc5rQAA4ErHHFYAgIs2afJku2/55COEVQAuqwb33Ck/f3/NnT3baQEAAFcDAisAwEWLCA+zPzAGZs7ktADA5ROSPZvi4+OdMwAAcDUgsAIAAAAAAIBPIbACAAAAAACATyGwAgDgKjZnyGi7eRzZs8+eLx47xWkBAAAAfA+BFQAAV7ENC5dp/fwlOrxrrz3fvGSlju49YI8BAAAAX+UXERmd4hwDAHBBevbsodjYWHXr95nTAl/xY893VKR8GWXPm0t1O7bRX+99oZz586pg6RKq26mNUlJSNOuvkVo/d7HiXV/DIhXKqtU9tylH/jz28f2feEWNu3bS8ikztWvdJvvYh/u8q8yhIbY/PjZOU34crO0r17n+VeGn0jWrqNW9tylTSLCrba1WzZhnr/OW2dXX9qHu9rjP/57X3e+9rIHPv2Wfq3LT+ura8wnbZ/za6wPd++Gr9jgmIlJDP+qrqi0aqXa7lrZt6cTp2rRoueKiY+y54bl+3Dc/KykpyR57y5Yrp1refYvmDRunPRu26NZeT9v2VdPnasXUWbrphUeV1XWNMfvvUVo7Z6Hij8eqcLnSuu7uW5WrUH7bB98xoldvxYSFq2+//k4LAAC40lFhBQDAVc6ESKayau+mrVKKlJyU7PRIc/8Zqy1LV+n2157TY30/UO5CBTSqz/dOrxSUOZPrsSvU7a0een3kzyrfoLa+efxlp1ca/dUA1/Ml6cEv3tYDn7yu6LBwTRzwh9Preq3EJBWrWE4lq1WymwmL/Pz8nF4p/OBhjflqoF766zv7/Ftc73P+iAlOr7Rj9XrnSJoxaLiy5XEHScbWZas1yfVaDW9sr64vPeHantQe8xkdxSqXT33dyCPHUo/zFC3kXJHGhGUmwDq0c4/TIs0fOcFWp932ytP23uQvUVQjv0y7NwAAALh0CKwAALjKBWXOrMT4BFvxVKZOdaWY1Mqxbs4i1bq+uXIWyKvATJlUp0Mr7du8XUf27HeukG03FVNGy+5dbfjjsW72QlupZaqmQrJlVc3rW2jjgmU2ADJio6PtvmKjuipVo7I9NlVd3ro8+5BzJDW+tbOWTZrunDlc1+/bvM1WQ8XHxDqN7oor85rFq1awFVH+ASf+s6ZK84a2YssjNHtW22Y2D8+9WDBigsrXr6W4mOP23DD3pmab5spVqIC9B7XbX2cDrYM7djtXAAAA4FIhsAIA4BpQpnY1Hdi2S2XrVHda3KKOhWn+yIn6/J6n7Pb7Gx8rc5ZQRR5NC6XyFSvsHElBwZmdIzcT9+TI5x4+aGTLk8sOLfQOfs7GVHV5mOeKCY90zjz8NP2PYWp5d1clJaYN8StVs4oyud7PsE/6afKPgzVn6Binx83f3/+Eai7DtJnNw8/1X9jBw3bIY4Mb2yklOa36LOLwUS0eNzX13vz66od2KKR3YAcAAIBLg8AKAICrnZ9Urm4NG1rl9QqfDFN91eyOG/Tkd5/a7YFP3rDD3wqVKelcISUkJDhHJw4ntFJSlBDnrqYyEuLiFRAYqMCgQKfl7Lwrrsxz+QcGOGeut+7vb+eQMhVcZevUcLWkXZslR3bd9XZP7d20zfa5+8+PX4C/Zg4erhZ33ez91JapKmvcteMJ9+bRr99X0YplnSsAAABwqRBYAQBwlTM1RoXKlrLD/UzFkfnPw4QvZsJ0UzlkNlMdtWjMZIUfOuJcIW2Yt8Q5kvZv3W5DJA8zH5SdcN2xY/U6FShZzA7VO1drZs53jqTNi1eqZPVKzpkZjhikmX+OUIvut7gbvCqmkpOTNf7bX1W9VVM73LBAqWJOz7kLcj1/+MEjqnZdE/eN8ro3xSqVs5/NBFfm3phhlQtHTdLRfayyCAAAcKkRWAEAcA1rensX7Vi1XsM+/UaTBgzSn+98rtjoGDvBuEeN1k3122sf2QnOf3zxHV3/vzudHqlFt5v1729DNfGH3zW2309aPHaKmt15o9MrBWfJ4hylOXmYnqmgGtP3R/se1s1dpPaP3OP0SJmCg1WhYR3lKVLQaUljJoyPjYp2fYYbnJYzCwhIq9rydnTfQbti4MnvyWh6Wxc7Uf2wT1z3ZuAgDX77Mx2Pijqh+gwAAACXhl9EZPRJBfAAAJyfnj17KDY2Vt36fea0wFdsW7HWhjHeVUumzfBMgm4qh0xlVPzxWOUpUkj5S6ZVKg14/k1VbtZAdTu01v6tO5SveJFTqqdMNZaZqN1Mel60QlmF5shm280k755KrcpNGyguJsauSGjUaN3M7t/pfI/eHPObvc7MGVWkfGnX85w+XLoQZgXDNbMW2H3WXDlUpvaJc3idTVJCoravWqe448eVp3BBFShV3OmBLxnRq7diwsLVt19/pwUAAFzpCKwAABeNwOrqZQKrKs0aqlHXjk5L+vIEVsDFILACAODqw5BAAAAAAAAA+BQCKwAAcEYPffHOJauuMqiuAgAAwOkQWAEAAAAAAMCnEFgBAAAAAADApxBYAQAAAAAAwKewSiAA4KLZVQKPH1fLJx9xWgDg8pn70++Ki45mlUAAAK4iBFYAgItmAqvjMTHOGQBkDAIrAACuHgRWAICL5qmwqt/9DqcFAC6fZcNGKj7mOIEVAABXEQIrAMBFs4FVbKy69fvMaQGAy2dEr96KCQsnsAIA4CrCpOsAAAC4Kgz44XtFRUU5Z+fn6NEjGj16lPp8+YW+6vOlPT527KjTCwAALjcCKwAAAFwVYmJi9MrLPc8ruEpJSVH/b/rpzTde14zp01ShQnm7bdq4QW+8/pq+7f+NvQYAAFxeDAkEAFy0k4cEbl2+Wsf2H7LHddpfp+SkJC2bPNOeFyhZVEUrlrPHAJAevIcEHj1yRL///ps2btygmjVr6c5udylr1qzOlafq/dabCg7OrF69ep1ynQm9PvzwQ/v3W++333VaAQDA5UCFFQDgkti5er0pXXDOpITjsdq+cq1zBgCXRu48efTMs8/pnXfeO2vF1e+//Sp/fz+9//77pw21TJvp8/Pz0++//+q0AgCAyyGg16uv9XaOAQC4IJMnT1JiYqKqdWpnz4/tP6idqzcoT5GCKlyulB1Os2fDFkUePaaiFcooe9489rpBb32qiQP+0PIpM+UfEGCv9di7eZvmDBmjpZOma8uSVUpKTFK+4kWcXunnl97V8skz7bZ2ziLFRceocPnSTq+0bPIMjfrie03/fag2ux5fo3Uzp0eaP2K8Ni5YppBsWZU1d05bEbZs4nT7/gqUKq65w8Zpnes5y9SuZq/ftmKNFo2ZknpurJ+3RHP+GaPV0+bqqOvzFipbSgGBAU4vgMtp/dTpSoiNU8dOnZ0WKSQ0VA0aNlTDho20ZMkS/fXXYO3du1flK1RQpkyZlJCQoIEDftBbb731nxVYRtGiRfXXn3+qbbt28vfnf+cAAFwOVFgBAC6JgKAgJSclK+zAIUUcPqrk5GSnx+39mx/Q8ahovfjHN6rQoLbG9vvJ6ZES4uI15P0+yl+ymJrdcaMqN62vSQP+sCGSx861G1Wufi275S5cQOP6/6IFoyY6vdLoPgNUtm4NvTiov+KPx+q9G+93etwij4Y5R24Hd+x2jtwiDh+xezOccfofw7R29gJ7bqyaPlfjv/1FFRvVVePbOuvo3gMa1ecHpxeALzlTxdWSxYttUFWgQAHnyjOrXLmysmTJorVrqRIFAOByYQ4rAMBFO90cVssnzVCWXDntuUfUsTA1uKGtncNq8bipCgwKVM3rW9i+dzrfo+v/102NunaUXN+ZYl0/WAZlzmyrlpISEvTrqx+qequmqtOhVer1b475zR4b5rzJrZ3V+v47tHzyDBt61et8vdN74vWmwurAtl2u99JOIdmz6siefVo4apINxsxrmAqrvRu26NZeT2vpxOnau2mr1s9bbMM14/fXP1aZOtXV6OYO9twEct889pIe+fp95S509h9+AaQvzxxWefK4qzf/iwnPzfBAU2FVrlw5vf76607Pf3vvvfe0Z88ehYSEOC1XLn9/f1WsVEk33XSzMmcOdloBAPAtBFYAgIt2usBqxZRZKli6hD33MMP8PIHVvOHjNeuvkYqNinZ6pTb/66bGJrByHNy+S1N++tP+gFm8SgU1u/0G+bl+0DJMAGWGHBqmWsq81v0fp/3gOezTb7R6xjznzO3kwCo0e9owoCN79p8YWG3coi5PP6hvn3pVD3z6pvo9+pJ6/TPAXvvVg8+7XruwPfY4vHuPbnj2YZWqUcVpAXC5eAKre+87sZLyZKbqc/GSRVq/bp2Cg4NtddU777zj9P63N954Q/ny5VeVqlWdlitXUmKi5s6dq+3bt+nV195QoUKFnB4AAHwHgRUA4KKdKbAyIZOZO8oMq1s6YZr2bNqaGliZwOm6u29Rsztvso8x56cLrGKjY7R/6w7NHzFBbR64Q5WbNrB95vrOT/1PtdtfZwOoSQMG2YqqDo/dq1F9Btgqq5MrsE4OrEpUrWDPDTMnlXdgtX/zNuUsmE/BWbKo5vXN9eX9z+nVYQPttX0feVHX3XOr8hVLm1PLwwxjBHB5ea8SeDpmjr3hw//RjOnTbThz9z332fbP/u8T/fRT2nDk//LAAw/oxZ4vq3jx4k7LlW/0qJGaNXuWPvnk/5wWAAB8B3NYAQAuibiY43YfmCnIbqfjCatOZobYmeooE/6Y0Kt+l7YqUbWiti0/cf4YE1YZDW/qoHwlimrzkhX23FRHeU/Q7j0/lreCpUuqRpvmyp7v1GFEZg4uMzG7GTZo+PnZnVWwVAnt27zdvj+z5S5cUGEHD9sJ3AH4DhNUDRnyl5579mlt3LBBPV96Ra+9/qZKlChht4CAAM2aNcu5+sxmzpypwMDAqyqsMrrccKNioqN18OBBpwUAAN/hv2XLFk2cOEFmj8uLe59xuPcZg/uecTLi3mcOPfs8L/980k8Tvv/NVj+ZVQJ3rl6vmYNH2FUFp//+j6b+8rcNrhaMnKhNi5eruFdFlDHM9fiRX3yvP978RId27LbVUYYJtw7t3GMf//f7fXR4117bboYgnswsV386iQkJatG9qwKCAl1nJ15Tr8v1toJs9t+jtHLaHDvhulmt0Kw6CCDj/VdQ5e3ee+/XgAED7NxUZ2L6Bg4cqHucqixfdiF/15uhkeHhJy5CgfOTEd9j4ca9zzjc+4xzLd17/82bNyk5OUVmj8uLe59xuPcZg/uecTLi3hcofWolQqGyJZ0jqcszDyo+5ritxDJD9To9+YAyZwmVf4C/cuTLo3s/fFXZcue0q/eZ8OjO159XtZaNnUebqqr2tqIpJFsWFSpT0j5Hi243274Oj9+nprd10f4tpgqqqO776DU1v/MmHduXVkWQv0RR58jNhFwewa73YeaiqtS4ntOSonaP3OMcu681z2ne65Hd+1Subg11femJM4ZfAC6Pcw2qPGrVrq32HTrq1Vdf1ejRo+3QZg/zXKbN9LVr38Fe6+v4PpsxuO8Zh3ufcbj3Gedauvd+y5avTDEftGzZcipTpozTjMvBJKLc+4zBvc8Y3PeMc6nv/clzWAHA5eSZw8rwzFF1ppDqdDZt3KhffvlJYWFhypQpk22Lj49Xzpy5dO9996l8+ROrO33Vhfxd/2KP5/XoY4+rXLnyTgvOF/++yTjc+4zDvc8419K9Z9J1AMBFI7ACkJHONun6uYqJidHBgwfssOSCBQsqJCTU6bl6EVgBAHwVk64DAAAALqGhoSpZspRKlSp9TYRVAAD4MgIrAAAAAAAA+BQCKwAAAAAAAPgUAisAAAAAAAD4FAIrAAAAAAAA+BQCKwAAAAAAAPgUAisAAAAAAAD4FL+IyOgU5xgAgAvSs2cPHT9+XOWaN3ZaAODy2TZ/kRLj4tW3X3+nBefqxR7P69HHHle5cuWdFlyolBR+rLoYfn5+zhEAuBFYAQAumgmsYo8fV/nrmjstAHD5bJkzX4lxcQRWF4DA6uKsW7dWf/zxu8KOHXNacDEKFy2qBx94UAUKFnRaAFzLCKwAABfNBlaxserW7zOnRUqMT9CSCf9q/5Yd9remxSqXV43WTeUfEOBcAQDpY0Sv3ooJCyewugAEVhduxvTpGjLkL3ucLV9eBQQF2WNcmPiY467/HYfZ4+df6KEyZcraYwDXLgIrAMBFO11gNXngIG1bsVZ1OrRSUmKiFoycaI8b39LJuQIA0geB1YUjsLow8fHxeuH5Z+0vYW5493WF5srp9OBiHNy0RVM+76tMmTPr88+/dFoBXKuYdB0AkO4O7dqjtbMX2nDKhFT1u7RVgxvba/WMuYqJiLJB1vD/669RfX7QsE+/0cgvv7fHkwYMcp5B6vfYS4o6Fm6PY6Oi7fmMQcPsubFp0XL99NK76v/4K/r2yV6a+svfSklOdnqlIR98pXc635O6LRg10emR5o8Yr5FffG+rv4yty1drxGffauW/s+353GHjNPSjr+2xsXjcVH3/zOvOmZSclKRJP/yhPv97Xl/e/6x+f/1j7du83ekFAFztlixZbPf1ut1KWJWO8pcro1IN6io+Lk4HDhxwWgFcqwisAADp7sju/Yo7HquCpUs4LVKhMiUUduCwDu/ea8/Nb6WLV6mgyk3rq0KD2sqWJ5e851uNPJI2H8icoWPsNR4Rh4/akKvBDe30WL8Pdcfrz2v93EVaMmGa7V86cZrWuc7fHPOb3UxYNvH7323fmcRGxzhHJzoeFa3FY6coOizCaZFmDxmtAzt26eEv39FzP/dRedd7G/P1wBMCMwDA1evw4cN2n6dU2vc5pI+8pUvafZgzPBDAtYvACgCQ7uJijis4NESZgjM7LVJw1lAlJyUrzgmGTNWUUaZOdRWt6J6n4tQVllJ0eNdebVy4TPHHY502acvSlcqeJ7cNu/z8/ZSrUH51felJlaldzfbXbnedDao82j3c3Tk6kQnVdqze4JydxHkrc4aMVvXWzVzXHnc3uGxcsFRVWzRSZtdnNMMdq13XWOGHDuvgjt3OFQAAAAAuBoEVACDdBQQGKCkxScleFUfmPMX1X0BgoNNyLvzsMMAW3bvax3tEHQ1XlhzZnTO3QmVKKlfB/M6Z9NGtD9mhgB/f/og+7faY05rGP8Bfa2fNt9uGeUsU5BWuWX7SoZ17tHnJStVs0+yE6ilTbTX7r1H65rGX7DbguTeVOTQ0dQgjAAAAgItDYAUASHdmeJ+pSIo8mlbOb4bxhWbLqux5czstZ7d/y3YlxMWrcpP6ToubqWzyrngyTMWWJyAzc0oZpsrq5b+/V8/B39pzb6baq2Ljenar0KiOEmLjnB43M2TRhGUtu9/itKQx4VTzbjfpye/+z9k+tVupGlWcKwAAOLu5/4zRzMHDT9nm/jPWfv/LaOZ74+9vfGKH2a+ft0R/vPmJEuMz/n0BuDYQWAEA0l2RCmVUpHwZW7mUGJ9gh/NtXrxCRSuVU56ihZyr/ltgUJCmm8Dobndg5D2/VbHK5XRw+64ThuAN+fBrzf5rpD2OiYxUlpw57LExsEdv5+hEIVmzqFSNys7ZiYIyZXKHWo3quM68XtylZPWKtvLKDEc0lVoRh49o0oDfdXTvfucKAADOTeSRMKUkpygxIdHuzbkvqdKsgXMkVW6adgwAlxqBFQAg3ZmwqdHNHbR91Tr9+e7n+uu9L3Rkz341vLG9/JzkKThrFrv35ukzAjMFqXjl8idM3O5RqGwpuwLhX+9+oaEf99XAHm/b8MisRmjUbNNcx/Yf1Bf3PaP3brwvtfLJrDR4Jv7+J35LPLB9lx2K6OH93pp3u1lRR8P022sf2dUO/3jzU4XmyK68xQo7VwAAcG7M969y9WqqXqc2Klu3hj339td7X6aueGuGuXub8ccwDX77M7vSrr2myz3aumy17TMr8pr2021Lxv9rrxnb9ye7kEh0eIStUl40dort37Nhi+031dGm2tlUfM0dOsYOlTer/Xp81v1J+9j/u+sJ+/q/vPK+0wMAF88vIjL65BluAQA4Lz179lBsbKy69fvMaXEz/9A1k6abf3znL1ksdd4p84/o45Huf/CWq1/TTsS+c81Ge24mUr/U1s5eaPe5CxVQwTIltHX5asVGuSeDvxyvDyB9jejVWzFh4erbr7/TgnP1Yo/n9ehjj6tcufJOC87F6NGjNHHCeHV84yXlLHxulcOnY4YEHti+Ww26tFXh8qVtULRi6izlLJBP9Tpfb1epnfzj4NSFRH7p9YH2btyiXv8MtOdmFV2zMEm7h7rbx29ZusoO2zPXm++10a7/XRjm+7GpAi5ZPa2q2CweYgKrHAXyqlbbFgrJltUGWbvXbbK/ADLV0iO/+N4Ow29wQ1slJ6fYhUhCsmXR9Q/eZZ/DhFTmdR/6/G17/v0zr6lwudLq/PSD9vxCbJo5R4sGD9XTzzynChUqOK0ArkVUWAEALhkzX1XpWlVthZP3JOlmGJ4Jhsxmht5lzZUz9fxy8LyWCauM0jWrXtbXBwDgXDTq2vGEVW8rNKh1ytxWR/cesKGR4Vkt11Q1l6xW0Q7nq9iorm0z8pUoatu8h/kZYQcOa9/m7fbYe3GUfVu2q1KTenZhksyhwarQsLZ2rnX/gsmjxV1p1cgtu9+qVdPnOWcAcHEIrAAAAADAR314y4OpQwJNtdXJcuTL4xyliToWJj9/f7ud7OT2sAOHtHzyDLuZ+SH9AtL6UlJSNPWXv+0QeLPN+WesnZvSW54iBZ0jKXu+3EqIO3EREwC4UARWAAAAAOCDvn6oh7LmzmWrrMzW6t7bnZ40p1u1L1NIsHN0dmb4YfkGte1mhu+nJLlX3LVSUtT+4bt130ev2+3ON17QPe/3cjrdkhISnSP3qoIAkF4IrAAAAAAgg/h7L4N7EjOhef4SRZ0zacn4qc5RGu8Vc01FlFGgZHG7P1eFy5VSmVpV7XFiQloFlVlQZNf6TQrNntVuO9ds0IopM51etzUz5ztH0oYFS+3cVwCQHgisAAAAACCDmPmhzsRMjL5h/hIN7NFb79/8gOp1ut62m+F5HmZFXbMq7oRvf9Undzxq56zy9xrWd86c4Mys9OtRp0MrrZgyS2P7/azx/X/RjEHD7CTs3pKSkjTkw6/sqrlmNcGbXnjU6QGAi0NgBQAAAAAZwCw6UrRiWefMzZxnzZXDHnd+6n92KOCDn/XWa8N/Sp2E/Z73X7H9RlJikp77uY9qtW2pJ779RLe/9qzTkyZr7pwqXrWic5amWJXydoEUDxNGlazhtZJg84bq+tITKlWzskpUq6Sbezym2u2vc3rdardrqRueeUgNb2qv10f8rDxFLnzVRADwRmAFAAAAABmgequmdvOs8meG03nagjJnsm1n5WeKo/xUoHRxZcud02lME5gpSNWva2K3AiWLOa1unnazkq+/v3/qufewvrxFC6tyE/dKumaOq9PJnCVUhcqWkn9ggNMCABePwAoAAAAAAAA+hcAKAAAAAK5ATW7tbIcLZhQzPDFXwfzOGQCkLwIrAAAAAAAA+BQCKwAALtCySTM0qs8PdtlxAAAAAOmHwAoAcEmN+Xqgpv7yt3MGAAAAAGfnFxEZneIcAwBwQXr27KHY2Fh16/eZPU9JTtb8kRO1c80GxcUct20h2bKoVI0qqtuxtT03oo6F6fCufQoMClT+UsWVKTizbV8za77dn07O/PlSVy86tv+gwg4cUnDWLCpYuoRdJcnjTM9RpVlD5+jCJSUm6sC2Xa5tp3at22ifM3+JosqWJ5dzBYDLaUSv3ooJC1fffv2dFpyrF3s8r0cfe1zlypV3WnAuRo8epYkTxqvO7TcrSy7+7k9Pe9eu1+ZZc/X0M8+pQoUKTiuAaxGBFQDgop0cWE3/4x9tXrxSTW/ros1LVigkeza7lPb0P4apXqc2anBjOy2fMkuz/hyhElUrKu74cR3csVu3vvK0vW7+iPEKP3jEPpfpyxwSotjoGAVnCVXVFo1sYGWqtjbMX6LiVSro2L6D8g/wt4/PHBpiHzem7492ie6EuHh7nikkWHmLFlK9zte73tNKjfjsWwUEBdpluHesWqfchQro4T7v2muNdzrfY4Mw83zhBw+r1X2328+TkpJihwKunbXAhmQxkZFKiI1T1lw5Vadja/saQz78SsUqllPDmzvY639//SOFHzqip77/P/vcC0ZOsPeiWOXyCnCWAM+eN486PHavPQZwfgisLhyB1YXxBFa4dAisABBYAQAu2smB1YDn31KN1k1tOGSGBJrAqvV9t2vGoOHavWGzuvZ8Qv0ff0WdnnxAFRrWto+Z8P1vijoWrltffkr7t+ywbaaSacmEf22oZAIgj8SEBP3xxid6+Kt3bdBk/PzyeypXr6ZdMckwgVXOAvlUqkZlBQQE2jajYJkS2rpstX5/42P1+meggjJnsu0moHrq+0+Vu3BB/f1+H9c1q/TK0AG2b+jHfbVp4TJ7/Z4NW/Tvr3+rYuN6CgwKshVWNds01+who1WmdjU1uKGdDayKViyrRjd31Mp/Z2vr8jXavX5TamD1xb3PqM0Dd6jadU3s+bj+v9jqMAIr4MIQWF04AqsL4wmsat7cWaG5cjqtSA/7Xd9Xt85bSGAFgDmsAADpzwwDDMmW1TlLY4YFxrv6Du/aa8Oo4lXT/iFqKq1MGGSYUMlsRmJ8gt3nL1k0tX33+s323BNWGcUqldeeje7He8tVIH/q4zzP6eEJq4wc+fNq+6r19vj21561YZWpFJv4w+8KzZ4ttVLLDEM076lIudL23MhTtJCtrDKVXt5M5dWMwcNVu11Lp8UtNEc2RYdHKjkpWcnJyU4rAOBKU7hqZZWsV4ctHbc8JYs7dxfAtY7ACgCQ7sx8Tod27nHO0pigyoQ7CXFxdihcUKYgp8eER5mV6IRCZ2MeHxQc7Jy5mfApIfbcHm8Eer22YebRij8ea4/H9vvJVlzt3bRNKckpts8jMT7eVlZ5h11GYKZMtvLLw8/PX3OHjVON1s1sMOWt3cPdtXHhUn15/7Pq+1APbV68wukBAAAAYBBYAQDSXc22LbRq+lxNHjjIaZHGf/urrYwyw+ey5cqp+Ng4xUbFOL1SdFi4subK4Zz9NzO5ubnemznPlufch2V4Krc8jkdFK3ve3PZ4yfh/bVXUXb1fVPtH77FDFT0yh4ba+bSiIyKdFrdY1+PNHFseJpBbNX2OHRZ4MjPvVlJColrefYue+fELla1bw+kBAAAAYBBYAQDSXbm6NewE6GYico/chfLbuatMWJO3eBHlL15UK6bOsn0xEVE24KrQqI499+a98p9HmVrVFHn0mJ103TDVXGvnLFL5+rXs+bnIkiO7dq3daI9NIBUTHqmydarbcz9/f0UcPmaPzQTrpjLMo0CpYspbrLC2LFnptEibFi7X4d37VKhMSadF2rtpq1p2v8VWYp38Eab8/Jey58tzylBBAMCVa/G4qXYzi2wYGxYstedmLkMAwPkjsAIAXBKFy5VSo65p1UUNbmxvgx7DhFBdnn1IO9duVP8nXtFvr32o/CWKqdkdN9l+b2Ylv5OZCqsbnnlIc/8ZaydvH/H5t2pyW2dVbHhq4HUmpsJrheuHiHdvuE+f3/OUraQyKwka7R+5265uaIYFmjmoHvnqPdv+bpd77aTsNa9voYT4eB3Zs09KkXau2WBXLzSTvntEhUXYNg8zZNBYO3uhti1bbYcFAgCuHkf3HjhlLsO9p5lbEQBwblglEABw0U5eJdDXmVUC/3z3c7067Een5TylpCjueKwNn8wqga3uvU2h2bPLP4DfAwEZgVUCLxyrBF4YzyqBHd94STkLF7JtkwYMsr+QqX9DW+XIl8dWWC0aPVnVWzVxbU3tNWaOxPXzliglOVnlG9TWDc8+ZNsNM9x8wYgJOrB9p/nNjgqXLeV6rnbKFJzZ9g94/k27N/z9A1SoXKlTVpf99dUPtX/rDjtEveGN7e17MTa63suudZtUqGxJu8pt+MHDWjphmgICA+3wdMMM3fc8X3JSkib+8IcKlCym2u2vs22mmtkMmQ87cMgOoa/VruUJlcXpZdPMOVo0eCirBAKgwgoAcG063VDDc+Z6bObQEOfEdervT1gFAHBJsavgHt13wJ55VwmP+vIHG/i07N5V1917m5ZPnqFRfQY4vdLkAYPsfIrN7rxJze640Q41H//tL06vGWq+TWXr1lS165qoYuO6NnD65rGXnV7p/ZseUFJCgl7681vVaN1UE77/zelxO7p3v3PkZt6nt0VjJztH0pwhY1IXIjHMMPw/3vpUOQvkU6v7blfB0iU06M1PU4c/AsClwL+uAQDXpFptWzhHFydLznObKB4AkDGSk5M1Z85s9f26j95/71190+9rzZ8/TykpFzbQZMb0ac7RqZISk7Rw1CS7bVu+5oRfbhSrXF6dnnxAdTq0Up3216lM7WratmKN0yvb1/Cm9rZqyQRCeYsWUkxYhNObpsEN7dT4lk4q36CWIg6nBUYdHr8v9Xtbi7u62v2coWPs3khwVuKN+K+QyXVPIg4f1dJJ0xUXc9xplNbPXaxcBfLZ92dWAjZVV6bCa93shc4VAJD+CKwAANec0rWqqv2jJw6juBDmB4PW991uJ3AHAPieRYsW6tlnntL4cWNVsmRJtWnTWkWLFtXIEcNt+8qVK5wrz84EVc89+7TGuZ5r//59TuuJzBC7nAXypm6BXhVWprB3wciJdn5Es21ZusoGRB7+gQHKkT+vBr31qX7s8bYNjtqfNOTPLFbS53/P27kX927cqleGplVoHY+MtMP4PM9/MvMLFjMscMGoiVo4etLpAzvXm5z+xz9qeVfXEyqwzNxcppLYzDnp2Uw1l6eSDAAuBQIrAAAAAFed6dOn6Zeff9KTTz6pPn36qFu3bmrTpo26d++uvn376sEHH9T3332rhQsXOI84Pe+g6t777tfHn/yfChZ0z1t1OpWa1Fft9q2Uq1ABJSUlOa3SmK9/VGiObHpzzG92K+OsTHsyM1zQLCRybP8hzRky2ml1q9G6mZrfeaNdhTY4axZ9fPsjTo809ee/1fS2LqnPfzqmcsuznTw03s/PXztWr1fYgcOq0aaZnWfLw4RpIdmzqePj95+wmWovALhUCKwAAACAa5QJLZKS0oKJq0VYWJiGDvlbr776qurVq+e0nqhp06Z67rnn9OsvP+v48bThbx6nC6pq1z631Wg9E6VHHQu3e8MMTazSrIFzJu1Ytc45ctu8ZKWOR0bZIYEVG9VVvU6ttWnRcqc3Ta22Le2QPFPl6z1sz2hyWxfn6FSmYisocyZVa9lYxSufOpl5YFCQZgwaruucSdhNtZVHgVLFdWDrTmXPn0d5ihay27aVa51eALg0CKwAAACAa1Sp0qU1b+4c5+zq8c/QIapRo8ZZV5mrVauWypQpoxHDhzktFxdUnSxH3tzOkZQpJNgGQpN/HKwv7ntGNVo1tZOWmyF4xuoZ8zSqzw9aOnG63eaPnHBKFdbBHbs09KOv9dd7X2rCd78pb7HCTo+baTcrEb7T5V47PNHMkTXjD/dnMyv7WSaIOs26I+b95S6U3861ZXhXYFVuUs/1+Fwa3WeAVkyZpX9/+Vvzho877fMAQHoJ6PXqa72dYwAALsjkyZOUmJioap0YGgDg8ls/dboSYuPUsVNnpwXnqnTpMho06Hdlz55DxUuUcFqvfKZqygz5y5Mnj9NyZjly5NCYMWOUKVMmffnF59q2bau6332P7r33fhUqdGIg5LFx4wZt2bxZ5Vo0UXC2bLbt0I7dyhwSrHzFiyg4S6iO7NmngIAABQVnthVKTW+/QYd371VMeKRqt2+p5t1uVnRYhPwDA1W6ZhWVq1dLgZmCFHbgkBLj41W+fi017toxNTgyE6lXadZQlZs2UNXmDe15vc7X2z4je948dk4pU9318BfvKFvuXIo/flzZ8uZSaLasCggMsJPA5y1WRHHRMYo6GmZfr2jFcvbxWXJks9Vb5jMYyUlJdt4qM3zQ3/U5KjepbyeVDzt4SFlz51Sb+++0qwamt6M7dmnv6rVq0KCh8ubN67QCuBb5RURGX9jyGAAAOHr27KHY2Fh16/eZ0wIAl8+IXr0VExauvv36Oy04H+vXr9e3/fvZSbhDQkKd1itbVFSkvvnmG2XJksVpObMjR47ohRdesMFQ5syZFRgY5PScWZOmTTVxwnh1fOMl5Sx85vmscP42zZyjRYOH6ulnnjtrhRyAqxuBFQDgohFYAchIBFbpY+fOHYqIiHDOrmzf9v9GX375pXLlyuW0nNmePXv02muv2ePQ0FC1aNHyrNVm27ZtI7C6RAisAHgQWAEALhqBFYCMRGCFk73x+qvq0qWLWrdu7bSc2YgRI7RgwQL1evV1TZo4QWPHjlG2bNl0V/d7VKVKFeeqE40ePYrA6hIhsALgwaTrAIBLJvLIMW1ZukobFyzV4d37nFacC7Pyk5lQd+GoSU7L1ePo3gOaO2ys/vmknwb26G23iCNHnV4AuHjt2rXX0KFDnbMzMyv3mfmr2ndwzxXVrn0H9fmqr5o3b6Hvvv1Gr736itasWeNcDQC4nAisAACXxJYlK/X3+300958xdrWjv9//Ussnz3R6ca06tGuPJn7/m6KOhtsJhds+eJdu7vG4MoeEOFcAwMVr2qy5nY+qT58+TsvpffLJJ8qTJ+8JqwCeObha7VwBALgcWCUQAHDRTl4lMCEuThN/+EOFypXSDc8+rOqtmtqViBaMmqjSNasqJFtWe92GBUu18t/Z2rFqvZ3sN1fB/LZ98dgp2rtpqwqXL23PDbOS0sqps1LbTJXO6pnz7XWebd/mbSpczt1vniM0RzYFZ3VPuHu65xzy4ddaMn6qDu/aa9/XuZozdIx2rd2onPnz2hWXVk2bo81LVtrPnbtQAXvNvGHjNHPwcK2ePk/xsbGu91XKtp+L/Vt3aNOi5ToeEaUU13/HDhyy98ysOuWxevpcrXJtu9dvtitCmdWgDM97O91W3FmqPDY6Rssnz9Da2Qt1YPsuu+x6Zq/nNoZ+1FeLx03RwR27VaZWNafVbZFzL723Is59Pd199rZ47FTlK1FUddpfZ9+3WWnKrDIVGJQ2yfHW5attuLl95RolxicoT5GCtt0En3s2bJafv1/q5107Z6Hrz886+QcGKGuunLYN1x5WCcTpNG7cWEOHDtH06dMVHBysEl7zUpmJ5nv27Gm/d73+xpvy9z/19/gmuCpbtpytvjLXDR48SLNnz1LBggV17NixU1YJRPpglUAAHlRYAQDS3aEde7Rj9QZbQeMJIio1rqeOj9+XugT2lB8Ha/Zfo2zoY8KYYZ98YwMJI/zQEUUcPnWI2GTXYzyO7T9oQw2zPLjZTPjibcpPfzlH0q51mzTt939Utm4Ne75s8gy90/keBWUKUslqlTR/xAQNeP5N23cujkdGKTYq2jlz27dpm3Mkjfzie/teC5YpqdxFCmhsv5+0YOQEp/e/mdDNhF0Ht++y56GuH4S2r1hrhwZGHQu3baO+/EGrZsxTIdfzm8qkQb3/zw69NMwy5GY5dLMd2rkn9dhshgnPBr35qQ66+opULGs/y08vv2eHbxomyDL3xixlXrJaZS0aM1nfPvWq7fM4snufDRA9937KT386PW5r5yxyjk5lPl+mzJk1qs8AzRg03FbemdcwgaVhQk0zFDJXofzKU6SQpv78l2YPGW37jCN792vTohXOmbR58QqtOelrDwBGcHCIPvr4U1WqVFk//vij7rvvPj344IN2//HHH6tV6zZ6970PFBgY6Dzi9E6tuGKuNAC4HAisAADpLiosXMFZQ5U9T9rqTKbSqXiVCjYIMWHUkonT1enJ+1W7/XVqcGM7Nbm1s610OldH9x1Q7kL51eKum+12JkkJiZr4/e+6/sFuqWGZCVnqdWqjm3o8pubdblare2/TXq/A6XxEh7tX1EpwAiHDhHA1r2+u1vfdrvaP3KPchQtq3dzFTu9/27F6veJj41Sv8/VOi1S1RSMd2rlbezZusRVRprKs4xP3q3KzBvbemQq2pROn2WvN56p/QzuVqFZJKcnJypEvrxq4zs1mrJ210IZW7R7urkqN6+q6e25VroL5bKWbERMRZV+7a88nXPfmJrV54M7U8MzD+97X6dBKOo/lW+KOx2rf1h2ur/0DuumFR1W3YxtbseX52s8fPl4tu9+imm2a289ljk2gZeaZMRLjE7VhwRL3cUKCrTDzhHEAcDITNt12+x36uu83eu/9D/Viz5f0/gcf6auv++mmm878veN0vIMrAMClR2AFAEh3Jlzw9/OX32mGWBgm8DC/0c7tDPUyGt7cQW0fuss5czOVNabqygRMJzu6Z79yOkMIz8QMLTPVR6VrVbUBiIcJx4IyZ1bfh1/Up3c+Zit9LoSp8Foy7l8d23/I9XyZnFapRfeuio2K0Rf3Pq1P7nhUkUeOpgYuZxNx6KgNvHLky+O0yAZerh+VFHU0TEd271W2PLmUNVcOd6dL/uJFdXinO/AxwaBn6KAZomjYNmdopKm6ylusiAKcigLzA1jeooVTJ8VvfEsnZQoJVt9Hetp78+8vQ2y7t3O59+ZrZzZzj457VaPFRcfYyjDz+czrlKha0f45Obp3v+2POhamgmXShu3kL1XMVoF5KsBSUpLtez+yZ58dCmiGgCYnndu9BXBty5kzp4oWLaYcOdL+/rwQ5u9NAMClR2AFAEh3IVmzKO748VOGzZm5mUzVT0qypyTnv//Rn7twARvSDHjhLacljZlbKY+r/78cj4y2YZWpTDKv6zH0o6/tKnUmJOv557e2yuhCmMDFs3l7p8u9OrbvgJ7/9Wu99Nd3qXNznQszZ9XppP2A5Occe9071+GZHncK17VmDihv7nP340d89q3mDBltK7LMvWn9wB223cOEh5Gur0keG6Kdmfnamfm89m7epp9ffi81VDJzfnmHe4GuYxNeJiYkOi2u9+OX9s8T16c9sYLLdVy2TnU7Z5gZGljODPN0hhMCwOW2bvI0Lf1nJFs6bmF7WFUYgBuBFQAg3Zkwwwy/M8O1PMyQLzO304YFy+wQNFP9E3HoiNPrnox70oA/nDO3yk3qq9kdN9jgKzrMPX+TkRDnnp+pYOmSTsvpVWnWQI1u7qC4mONaOHqy0yo735OZX6tux9b2fO/mrXZ/vio3ra8GN7RVlhzZ7HtKlZKiR/t+4Jy4Pvvucx/qaCYTjzhyVJFH3RVFRtiBQ67/n2KrqsxQPFOFFBcT4+50ObJnv62SOhdmAnMzYb13yGPOzXxRxqbFK1S6ZhXV69zGnu/fst3uPQ7u3K1seXLaIZ//xXztzP1pemtnO+dVxGH31zp7vjz2/XuYyilTgRWa3T1psZnP7PCuPfbYMPfOTAjvGV5qwrpyrq/dtuVrtH3VOpWqUcU02j4AuNzMsPOk+AS2dNwY5g3Ag1UCAQAX7eRVAk3FkflH/Lzh45SclGiHm5kV5/IWK6z6Xa634YQZFrhh/lKFZM+qA9t2atZfI1WqRmUVrVjOhhEmmEhOTtK6OYts2GUqfsyE3IXKltKe9Zu1Z8MWO/TOs7LTiqmzlL9E0dRVAmf/PVp1O7W2AYip9DETn1dp2sB1nkWbFi6zc0WZOZrMBN/H9h20oVCLu7rax56NGWpo3l+R8mXs8Dszx5MJfcyqiOa1zBDDfZu327mnfnzxbeVytZlJ4k14di52rt2oyMNHXfcuyb5/cz+y5s6hKs0b2mDJfHazWl6WnDnsteazmvmkPKGTEX7wsPZv3Wnfj/cQuxz582rxmCl2niyzcuOaWQu0bvZCtX/0XhtCbV22SttXrVeLbjdr0g9/2DmzTLBo7o25ZyumzFLeooVUoUFt+3zmecyE8CZYNMwKgYdcXy8TrpmhgyumzVb88Vg16trJfq1MULlm5nw7l5mZXH/N7AX22rodW9mhfmZ+LfO1NKGm+TNiVlqs2ryRSlavrH1bttuwq+b1LVx/tsYrS47squN63LKJ01Te9X5YJfDaxSqBuNw2btxgVwls8tC9KtO4gYpUq6zV85bKLyREje7sas/DwiJ1YM9BlahbU5VbN7dtbGffYiMiWCUQgEVgBQC4aCcHVkbRimWVLXdOG+YcO3DQhjtm7qhMwZltv6mSiY2O0eZFK2xgZCYpr9O+le0zAY0RduCwMmcJsRN/+wcE2JXkTOXW+nmL7XN5VxWZuZ1MeOQJrExVVeFypezcTeYxZu4kE3iUrllVtdq2sOHLv7/+rRx58+j215611WCLx05x9bW0j/8v5rFm3iXz/GaIm52U3M/PhkEmIDLhjglaTMBWw/VDiplgfNX0OdqwYKmqtWzsPMvpmbmdsufOZVcENO/Z3KN8xYvYsMoztLBi47o2BNzoej5TeWbCorJ13CsgepjAyjzeDM/0DqzM3F3lG9TSznWbtHnxSjscsP2jZmJ49/DKGq2badfajZr689/K6vr6dXvzBe3ZuFULR09yvRf3EE8zhDLI+TqawMpUa5n7apjAygSW5mtn3oOZj8t8/cx9MgqUKq6AoEDX/d6kwzv32M9kqrlM+GaYOa3MvTRh5sHtu22VVv0b2tqA0Hz9EuPiVaZWNRswFixdwv45M2GgCSsJrK5dBFa43DyBVbkWTRSczV0hun7uYvt9yPw9luT6njjD9X3A/F1uFhwxfxfi3BzdsYvACoDlFxEZzcQPAICL0rNnD8XGxqpbv8+cFlwsE7hN+22oDcDqdbneBjYATm9Er96KCQtX3379nRbg0ho9epQmThivjm+8pJyF3dWtY77+Udnz5VbzO2/S5sUr7MITplK29f132BBrxdTZWjR2sh76/G17/d6NW/XPp/3U7c0etgLZLDAx8YffbVhvmCC/7YPdlK9EUXtuhtUXKlvSrqBqvicsGf+vDe/rdmpjQ/s/3/nchmNm8QzDVC6bX0Dc9XZPez7t1yGa9fcoe2yYKmCzIqyv2TRzjhYNHqqnn3lOFSpUcFoBXIuYwwoAAB9HWAUAV4gUySwysWbWfFVsWOfE+Q29mMVHTDjV6OaONqwyJv/4p/37/n//96Ye/vIdFSlfWuP6/2Kriw0Tfp3sTCvQ7t20TfOGjVP7x+51WmTDqnYPd9ebY35Tl2cf0uoZ85weAPBNBFYAAPgo95DG/57cHADgW8wcg3s3blPl5g1OGzKZAGrqL3/ZYeSexT+MjQvNsPEmCsyUyQ47r9aqiXau3WBXyzXM0HjDrLhrhkgbnnkcvZmh4uP7/6LrH7zLVul6mKCqwY3t7XGt61vY/dKJ0+0eAHwRgRUAAD7IzPlkhn2YDQBwhfCTXViiUtP6yhzinrvPW3Jikr568AUtGDlRLbufuNBHYlyCsuRyz+dnmIUlTMWWGSrocWTPPrsYidnMwhX+ge4Qy8NUTQ14obdd0MTM1+it7yM99U7ne/Rpt8f0+b1PO60A4LsIrAAAAAAgHZiKp3XzFqtKswbuhpOGdJuA6dkfv1Cjrh3tEEBvZkEKM3+hh+c4c5a0SluzGmzlJvXsZhbpMAGYNzMv1ZPffWKrrBaPm+q0SnOHjdXRvfttlVXPwd/qhV+/dnoAwHcRWAEAAABAOjArp1ZuUt+u7mrmozrTHIQt777FVkst8xqSV6xSOW1ZstI5kzYtWm5XVs2eN7c99wwvLFC6hAqWKWmPTzfkMDAoyE70/u+vQ+xqrUZcdFoQZkz8/nf3gTM/FgD4IgIrAAAAAEgHGxcuU5XmTnWVy5kCK1OJ1fq+2zXlpz8VeeSYbTMhlgmpzGp/f7/fRwtHTVLrB+5IfQ7PHFbeTtdmlK5ZVVWbN0yt4rrunlvt/sNbH7KbCcsCAgNd/YNtOwD4Ir+IyGhidQDARenZs4diY2PVrd9nTgsAXD4jevVWTFi4+vbr77QAl9bo0aM0ccJ4dXzjJeUsXMhpvbTWzV1k96VqVLEh1tblq+25GSaYv0RRe3w12DRzjhYNHqqnn3lOFSpUcFoBXIuosAIAAAAAH1epcT27BWcJtQtzeM6vprAKALwRWAEAAAAAAMCnEFgBAAAAAADApxBYAQAumU2LV2j6H8M09ee/tGraHCXGxzs9AAAAAHBmBFYAgEti0ZjJmvDtL0pKSFCmkGAtGjtVMwaPOO0S3AAAAADgLaDXq6/1do4BALggkydPUmJioqp1amfPo46GadKAQarTobWa3XmjSlStqJwF82nl1FnKW7yIcuTLo5iISE39+W9N+22olk2aofBDR1SyWkW78pGpyNq+Yq1K1axin8+IDovQPx/3VbWWje35gW07NfqrAVo9Y17qFhdzXIXLlbb9g9/+TMUqlVNw1iz2fOhHX2vf5u12qW9jTN8f9ee7X2jGoGFaPnmmgrOEqGCZkrbvbMwy5NtWrFHeooXtxLememzJ+H/lHxig3IUK2GsGPP+WfY0Zg4Zrz4YtqnZdE9t+LlJSUjT8//pr/bzFWjdnkd0nxMapQKnitv/Y/oOaPHCQrV5bNX2u4qJiVNT1WT3MZ8+aK4dyFcxvzycN+EMrps5WpSb1NOLz71z3PkqFyqZ9VvMas/8epfzFi2rkF99r7awFqtqike0z78UssW7ur+fer3B9Hc3rzxs+XjtWrVeewgXt6xlTf/lbW5euVB7XvTETA5vHLR43VX7+/jq674Dmjxhvl20/eYsOj9DxyGhN+O7X1NfxOPnzACdbP3W6/d9Ix06dnRbg0tq4cYO2bN6sci2aKDhbNqcV6eHojl3au3qtGjRoqLx58zqtAK5FVFgBANLdkb37FXbgkIpVLu+0yIZHd73zkt0bIz//zoYht7/2rG58/hHtWrfRBlj/ZfvKtc6RO7SJO35czbvdZLd41w+r3kyQ4rFs0nSFHzyslt1vseeLxk7R0gnT1OWZB/XmmN+UPW9uTfjuN9t3oSKPhjlH0sAX3rKvZ57bbJuXrLRBzLmKjYpWxOGjqtqysQ26EuMTnB63fz7up5z58+reD3qp0xP3a9nkGfYzeZgwz2PL0lVaPXO+2j7U3Z7nK15EW5etUvzxWHuelJikrSvWKFue3MpTtJCO7N6nqLBwHdt30PYf3L5LAYGBSkxwv4cN85faUKrFXV1130evqXjVCvrnk76p/adjPotHkfJl7JYtdy4bTnrO/Vz/GVHHwu3eW7Tr/QAAAODaQmAFAEh3JnAxwwBDnOomIzAoSJmCM9vjw7v3aseaDWp8SyflyJ/Xhih12rdS6VppFVVnc3TvAeUumD818DgTE7hM+ekvtX/sXgUEBdq2ep3a2CCp1vUt7HnlZg1OCbzOxfHIqNRwKCAwwO6NBz9/W63vv905kwqULKa9m7c7Z2dnqs9MyGNCqVLVKzmtbjtWr9exfQfU4IZ2CsmWVfldz139uia2SupkJuiZ+MPv6uD67J4KqLJ1a+jgjt3atW6TPT+8a4+2r1jjaq9uz43y9Wppw4Il9nj9vCUqV6+GPTbWzVloK6CKV6lgv751O7Sy1XWmIs6b+TOQem+c+166VlVVa9VEFRvXtedGkYplbJvZAAAAAA8CKwBAujPDv5SSYiuoTseEMUGZMys0e9owiirNG6p0rWrOmbRz7Ub9/PJ7+vv9Plo7e6HTmubInn3KeZYhYmZY4pCPvlbHx+87JdTq88BzeqfzPXYzoc75MmGVmafLbCZEMtVCHqZt9FcDU5/fBETnI2z/IeXIl1tZcmZ3WtJEHjmm0BzZFOSEf0a2vLld7WlVTMaScf/qt9c+sqFcpcb1nFZ3eFauXk1beZWcnKyty9fYe1PcqxquXP2a2rBgmT02wZX3UDwzdNOEU18/1MNufR/pqeDQUNvucTw6JvXemKo4z73xd/25MNvJTm43X/c/3vxEc/8ZoxTXewQAAMC1h8AKAJDuTDVP3PFYRR495rRIyUnJdhieCTYCM2Wyk68nJSY6vbJDyrzDCROg3PbqM2p4U3uN6vODUlJODC4Obt9t55D6Ly26d1Wb++/QlJ//sgGTx/fPvK6E+PjUIXttH3QPlzsfprqpbJ0adjNzdHmHc+O//VX1Ol+f+vxmqN35OLB9l/IWK2Jf42Qm6DPD+EzY5GGGDJp2b3U6ttKNzz+qab//o0M79zitbuXq1tDW5attldo2175M7WryD0irEDPzcplgLOzgYQUGBjmtbiYoq9iojh76/O3U7Z73XlHlJvWdK1z3Jkto6r0pWb3yGYPLMzFf945P3K9V083cZPOdVgAAAFxLCKwAAOnODPEzc1VtXrxCSQnuUMrMm7RwzGQbYuUtUshW3ZjJyD3mDh2r39/8xDlzy5IjuwqVLWWvNRNye5gJuo/tP6DC5Uo5LaeXOSRYFRrWUYkqFfTvr0OcVtn5tbwrrlZOm+0cnZ/C5UurQqM69jghLt7uPdo/eo9zZIbd7bUVZ+fCzC1l5vMyz+1dteVRoHRxRR0Ls3NNeexZv1lFKpw6LNJMrG4Cvyk//um0uBWrVF6FypSwE8cnur4+JWtUdnrczOuWr19LO9dsUFkzHNDrfZjX2bl2k4KzZVFI9qzKnCVEi8dPtROqeyvk+tp47s35Drc0X3dT1WUn54+MdFoBAABwLSGwAgCkO1PtU79LWzvs7J9P+9nV/MxE3TXbNLNBkRnS1uyOG2y7GbY3tt9PmjN0jBrd3NF5BnfIYSZC//Pdz1WqRuXU4YNmAvMZfwxTgVIllLNAPtt2Ntfde5vWzl5gV6MzzBxK5tisPvfZ3U+pbG33/E3/fNLP7s+HJ1QKypzJ7g0zX9cHXf+nQW99aocEVm7aQLvXb9Zf733pXHFmE3/4w67it2vNRo368geN++YXW322feU6rZu7yM5r1ahrR7van1mB0Aw93Ll2g+vedXCe4UTN77zRBnRmpT4PM6dUubo17cT0ZetUtxOgn6x8/Zo6sHWnrcbyZub/iouJsSs2mhUWzQqC+7dsP2HVQQ/PvfHMXXauzNd92Kff2In1KzZKm+8KAHyZqRqe/sc/GvhCb337ZC/9+OLbWjBqIkObAeAC+UVERp9fnT4AACfp2bOHYmNj1a3fZ06Lm1lpbveGzUqMi1feYoVVtFK5E6qGTJXQ3s3b7PxFJapVSp0Y/L+Yqh8TwJRvUFvBWUKdVvdk5IYZnnepmVUHjTK1q9sVBldNm2NDpez58qiM1zxcF+Lbp15Vy7vdqxl6M8Mpa7VNm4/K3LdDO/a47kGInfvLOzA7F6a6bcpPf9pKsAKlijut58YM79yydKViwiPtpPklvSaG99wb855MhdTqGfOUEBdnVyE04ZgRF3PcBoiGWUnybEM7gbMZ0au3YsLC1bdff6cFuLRGjx6liRPGq+MbLylnYfewb/OLgXnDx6nDo/fav1fNLyqm/T5UbR6401atGqbqePuqdfbvwTxFCp73378ZZcXUWXafs0B+1/fZCvZ7iFlAxajRupndp5dNM+do0eChevqZ51ShQgWnFcC1iMAKAHDRzhRY4fyZwKrL0w+eMMTPzAdmKpq8A6sLZeat8vP30/wRExSUKZNdzdBOkg9cwQiscLmdLrD6+/0vlatQAV3/v2723MzfN+uvkTasL1yutB0e/vcHfZS/RFGF5siurctWq3LT+mp17232+q8f7qGnfzjx++jvr3+sOh1aqVKTejbs6vtoT+UvXsTplRLiE3TvB73ssal4NSu4mhV4zWsP/ehr5SlSKPX5TdWXmdPQ/KJg3+Zt9u/+V4b8YPvOZunEadq1dpNqXt8iNbAy1WPmuUzlrWEqirPlzmkXRNm1dqNdUfbmFx+3feeDwAqAB/9CBQDAh5h5ty4lMz+WGW5n5sqq3eE6wioASCfHDhxSLq+h6qaiuPmdN9mwyjDhVemaVXXrK0/b1Wtv7vGYnUvwXJlqVVPZ2vWlJ9Wt94sqe9KQbW+m2jXyaJh9fQ/z9/0bo3/V/R+/rl7/DLTfB86H5/r42FMfN3ngIOUuXFDP//q1HvjkDbXs3lWrps91egHgwvCvVAAAfMgDn755ygTqJsS6y/XDycVWVxlm6MaDn/XWjc8/otyFCjitAICLlRSfoICgE1dW9WaGyJeoljZs3SyuYf4+9rZtxVrtXrdJsdExTkuaI3sPKNQsdhEa4rSc3rLJM2wVbacn7ldgprT38+jX72vab0PtLy2GfPi1bVs60T2M+1xkcn0vOrJ7r1ZPn6cD23Y6rW7XP3iXmtzaWeP6/2Lng9x/Uj8AXAgCKwAAAAC4SCZIOrn6yHsF1cS4BLsoh4f3nI4em5es0Iqps/Xd069pz8a0lXSNw7v22Cqm/2LmczTzGybExp2yoIYZsmdW7zW/rCh8moUyzkXYwcOpm7d/f/nbLqRyPDLKDnn0XokXAC4UgRUAAAAAXKS8xYrYsMjbsonTNfGH3+1xtjw5FX7oiD02oo6Fa+W/s50zNzP/VaenHrCLWXhWtvUwK7cWKFXMOTs9s/BI24fuUqkaVTTttyFOqzTtV/fxw33etQt7NLmtiz0/H8nJyXaxETNnVYUGtZ1WtyUTp6lUzSq65aUn1eyOGxUbFe30AMCFI7ACAAAAgItUsVFdbViwRIvGTNbejVu1ZPy/2rxkpV3V1qjcrKENsMzk62YxjeWTZ2juP2Ntn4cJsY7s3a+D23cpR768Tqt7/ihTfWVW1D0X191zq9bPW6KNC5fZ8+BsWe3eo9+jPe0+MT7e7s9FcmKS3WfLc2LllhGaLZtd+ddYNmkG81cBSBcEVgAAAABwkSo0rK22D3W3E6mP+/YXG1aZSc9LVa9s+xvd3MGuCjj8s2/1wzOva/+WHbr5xSdsn5Ejbx4N+6SfJn3/u6q1bKKa1zd3eqTvXdcXLF3ylMqmMzGhUovuXTV/+HjFxRy3r12oTEk7LPD9mx9Q/S5t7QTwE77/zXnE2WUKPXFRkKDgzM6R9OR3n9jhgOb5zeTyz/3cx8559d6N9ztXAMD584uIjE5xjgEAuCA9e/ZQbGysuvU7cTluALgcRvTqrZiwcPXt199pAS6t0aNHaeKE8er4xkvKWbiQ04r0sGnmHC0aPFRPP/OcKlSo4LQCuBZRYQUAAAAAAACfQmAFAAAAAAAAn+K/ZcsWTZw4QWaPy4t7n3G49xmD+55xuPcAcPXj73pca/gzn3G49xnnWrr3/ps3b1JycorMHpcX9z7jcO8zBvc942TUvV86cbpGfvG9a/vO7icNHOT0AADSG99nca3hz3zG4d5nnGvp3vuXLVtO/v5+MntcXtz7jMO9zxjc94yTEfc+JTlZMeERCsmWRWVqV1eugvmdnrPbsmTlGbc9Gy7+t0me5zIrNBlbl69ObQOAKxXfZ69s6+Yu0pAPvlJCXJxri9eoL3/QwtGTnF6cDn/mMw73PuNcS/eeVQIBABftdKsEJiclacpPfyk0e1Y1vf0GzRw8QrExMWr74F22f/LAQZo3fLz8/P1tuJWnSEE9+d2ntm/+iPE6uveAPU6MT1BgpiBFHQtT1lw5VaN1MxWpUEa/vfahtq1YK/+AAPtalZvU1629nraPORvz/Ae27VKDG9qpYJkSNrBaOmG6ytevqeqtmtprPrzlQfsDg0fnp/6n2u2vs8c/vfSuarreR612Le356hnzNPefsXrkq/fsuWGW9vYw7/H1kT87Z6574/q8/R9/2bYfj4y2oV5Itqy6/+PXbf+/v/yt2UNGu+6Nn+vepChngbx6ZuAXtg/AqVglEJfbpVgl8HhklKb9NlSHd+9zfX/wV9acOdTszpvs98drCasEAvBg0nUAwCVhQpmYiEiFZs/mtJzIhFWt779Db4z6RW+O+U1H9uzX4nFTbV/BMiVVuVkDu8lPyleiqOrf0M597jBhlXmcCYK6PPuQ1s5Z6PScn5QU9+9tEuPTwqnh/9dfyUnJ9vnNZirEpv78l9N7dp/d/ZSKV6mQ+vjAoED7W3OPpMRERR45pns/6KXnfv5S9bu0dXrcTFjV4q6urnvzq3182IHD/JYdAK4AsdExWjV9rhaMmqiNC5fZX6icbMJ3v2lc/7RfYnhsXrJSxSqX1y0vP6mbXnhMZepU195NW22f+cXI4rFTTrttmL/EXgMAVxsCKwDAJRETHqnosHBlyZnDaTmRCWKa3NrZhlSLXP/gNuJj4+y+ZNWKKuHagjJlUlJCom0r7vpHvGkvUr60PTePXz55hv3HeqJXJdT5CD98xP5A4V1JZdz84uN6bcRPWjphmn3+AqWK6XhUtNN7dj1+72urpZaM/9d+tlyFCijyWJjT63rdA4cVEBRk742psjqZ+Wwt7rr5hHsTGxVj9wAA33R0734N7NFb21eutd/PzC9mhn36jdMrW4lrqm/DDx1R1LFwe2zaPDYvXuH6vhmhLDmyKzk5ScsmzdDSidOcXtf3DtfjzHbswCEd23/QbuYcAK5WBFYAgEvC/EPahFbZ8+Z2Wk70+T1P2X+sL588U+vmLHJaHX5+rv/zs4eeCijLtDnt73a5V+P6/2J/k71+3mLbdj7McLsdq9albkGZMzs90qy/Rtr3NtO1XzN7gfZt2e70uOUpUkgr/p2tZZNnaP6ICdowf6nT4/bXe1/ax5uqqHVzFtohj94O79qrXIXOPKdXnwees483P6yccm8AAD5pwciJKlqhrLo885Ca3X6Dbn/1GVtRu3P1Btt/cMdulaxWSXe8/pyr71kVq1TeLk5yAud73oops1z9afPTmMqrup3aqG7HNq5rpMBMmWzlsWkzVckAcDUisAIAXBJmjqi8xQufMZgxv102lUQPffG2HRp3PkZ8/p0Nsl4d9qMe+PRN3fP++T3eMHNDVb+uid3K1q1hJ7n1MHOIVG3RSM/99KXu+/A15SqQz+lxa/dwd5WpXU1H9+xXlpzZVaFhbafHzQzP6PDYfXr8m49cn+1VxR2PdXrcDu7YpfzFizpnpzK/MTf35uEv3znvewMAyBhm+J6nCtgwcxPe8frzKl7VPQ/TTS88aoOnX3q9rwHPv6n42FglJSTYPm/meTYuWKqCpUs4LVKOfHnsZnh+kWMqdL3bAeBqQ2AFAEh3u9Zt0o7V6+xvj8P2H9R+rwol72MPM5+HkZzoHv53NidXLA3s8bZzdL78zvibaU+Fl7Fp8QrnyC1zaIia3XGjnYOrWsvGTuuJPA83wzkCzMTwzmczP2hsW7lWxaqUt+dnM/nHwXaflHRu9wYAkDFMNdXphnl7fP3wi5o3bJzK1amhh754R9ly53R60pjqX1NdZRYYOaHCGACuQQRWAIB0N2fIaMVERGn93MUa2+9nu+1cs0GHtu+2E9EaJvQxw97MZiqKzG+S//11iF1N0JtZIfBkZo4pw/P4cnWr29UG373hPtt+IYKC04YEmrm1zFBD83xm6GHLu2+x7e/f/IDdn02pGpXtcEXzWPN5KjWpp72btun7Z17Xr69+aIdKVmpcz7n6VOa38p7PdnjnHhWtWFaz/hypqb/87VwBAPA1Zr7Co/sOOmfueRln/z3KzpVoHNt3QG3+d6cau77HGId377V7bybwMotyeFasBYBrmV9EZDTRPQDgovTs2UOxsbHq1u8zez7orU9tBVJw1iz23GP3+s3auWa9bnz+Uaflv+3ZsCV1OF3JahX/8zfX52Pr8jV2H5otqwqWKZF6bpSuWcU5AnClGNGrt2LCwtW3X3+nBbi0Ro8epYkTxqvjGy8pZ+FCtm39vCUa983P6vzU/5S3WCGtmbXAVks92vcDBWXOZH8JUaFhHTuH1di+P9rvbybMemXID/bxZoVaU6VV7bomqtCgtl39dtGYyXZoukf4wSNaOHqincPKzF91uiqtK92mmXO0aPBQPf3Mc6pQwT2cEsC1iQorAEC6Ox4ZZff5ihc5YTtfRSqUsQGS2dIrrDI8z2nCKu9zswEAcCEqNqqjDo/doxVTZ2lUnwEKO3jYhlMmrDI6PfU/bVu+xlbrJqekqGvPJ+z3tq8efMH2B7quMysEmrDKSpFyFy7oPj5B2pB1ALiaUWEFALhoJ1dYTR44yPUP97p2cllvZtW7w7v26PoH73JaAODiUWGFy+10FVZIH1RYAfCgwgoAkO5MIHVyWGXUatuCsAoAAADAWRFYAQAAAAAAwKcQWAEAAADAeQgJCbH72IhIu0f6OR4WbvfBXqv3Arg2EVgBAAAAwHmoWbOW3S/+a5jdI30kJSRq3ZRp9rhYseJ2D+DaxaTrAICLdvKk6wBwOTHpOjJC/2/7a82qlQoxK/u1aqEgKoIuyvGwCK2b8q8NrTp17qIOHTo6PQCuVQRWAICLRmAFICMRWCGj/PzLT1q8cKFzhvRAWAXAg8AKAHDRCKwAZCQCK2Sk+Ph47dq1U4mJSU4LLoSZs8oMA/T3Z9YaAG4EVgCAi0ZgBSAjEVgBAHD1Ib4GAAAAAACATyGwAgBcGinSojGT9ec7n2vA82/a/aSBg5xOAAAAADgzhgQCAC7a6YYEJicna9afI5QYn6BqLRtr/bwlio2JUdsH73KukBaPm6oju/cpJFsWNe92s9MqLRn/r3N0qoKlS6hIhTL2eO4/YxVx+Khy5MujRl3Pb4LWxIQEbV68QlHHwpUjf16VqV3thHkztixdpVI1Kss/ICD13DDXGccjo7R5yUrFx8Ypf4kiKlaxnOu7qp/t87z/io3qKjRHNi2d4F6iO3/JYipWqZx9rmy5c9pz4+TnNsxzHN61V8FZs6jFXWn3ZtOi5fYzB2cJVaUm9eyx5/F1OrSye3NeumYV+Tmf5+TnN599/5Ydios5bs8N79cGrjQMCQQA4OpDhRUA4JJISU5WTESUQrNnSw1mvA14/i2N6/+LIo8e0+oZ8/RO53ucHikhLk7H9h+0296NW+3+8O69du/x3o33a97wcYoOj9C/vw7R/931hNNzdiao+bXXBzZES4iN0+KxUzTk/T5KTkqbMHdUnx+cI2nt7AWa+P1vKlK+tD3fs3GL+j/xivZt3qbYqGiN7fezpvz8l+0zDmzb6frskc6Z2+71m5wjadgn/ZwjNxNCrZ+32DmTfn7pXddz/qTII8fsa3vfG2P3+s3OkdvRvQcUfuiIcyYNeutT50haP3exloyfqqP7DtjzaNcP9d8/87oN+7atWGO3oR9+bfsAAAAAX0FgBQC4JEz4Y0IbE1idTpac2dXpift16ytP64lvP7FtC0ZNtHtTmVS3Y2tValxPKa7/TAVUgxva2TbzuGWTZqhktUrq8Xs/3fLSk3ptxE+nBET/xVR2BQQF6aYXHrWVWeY9mBBq0+IVzhVposMiNGnAYLV75B5b7WTMGzbOVo21fai7mtzaWTc+94iWuJ4z/OBh2+/NU8VkKs3OVeYsoer4+H26tdfTevybj2zbnKFj7N4wIZ9hqrvOxFM+PX3QMAVmyuScSdtXrlNc9HHd5nruNg/cqaa3dXF6AAAAAN9BYAUAuCRMdVDU0TBlzZ3DaTlRt7d62EqkX1/9UD+99K5tS3KWBM9ZIJ/dDE/Qkz1v7tT2Wm1b6O73Xtbw/+uvX3p9oJ96vmOvOVemMqpwuVLOmRSUOZOtAju4fZfT4maG/A396GvV69T6hCFz+zZvTx2WaOQrXkSBmTPryJ59TovbmpnztXLqbCUlJCowU5DT6uLn5/qsic7Jqcy9ObRzj357zeveuJ7DI1vuXDZIM8+9ccEyp/VU84aPV9na1U8Iy3Lkz2OHZu5at8l+jRLi4p0eAAAAwHcQWAEALokjew8oJSVF2fPmcVpOZIa57d+6UxUb1dEDn7zhtJ4bMyeUeXxKcoqqNm+oBz590+k5N6b6KyAw0DlzM+feQwINM/eTqcQ6ebJH+3hXu4d/gL/8/U0Ilfb4ZNexmefKs3kzc2P9/cFXNgwzgVRsdLTT42Y+256NW1WhwZnvzZme28O0m2F/Lbp3tfOJeRStWE4dHr3HVomN/PJ7u/m53j8AAADgS/gXKgAg3ZngZt+mbSpQsphyFy7otJ7qf//3pup3aeucnbstS1faiqWuLz1hJxpfPnmG03NuchbIf8rwPTMHlBl66K3dw93V5oE7NHPwCB3wqr4y14UdOOScuYcNxh+PO+Hx/oEBqtupjerf0FZZc+dUUkJamNW15xO6+cXH1fCmDur+dk8FZ3EPNfT20Bdv28eejpnjK2+xwra/RptmTmsaM1H8zEHD1bJ7V1s95p4KPk1yUrKiwsJtJdetLz+lFNc5AAAA4EsIrAAA6W71jLnauWaDCpcvbY9XTJ3l9OiEY89qemYCcyMmPMLuvZnqpZOZqi3vYW5j+v7kHJ2byk3r24nOzZxVUcfC7JxW8cdjVa5eTeeKNGZVwkY3d9DkgYNTK5WqtmikpROna//WHXZYnZn8vWilsnZo4Mk88175+afFRiZQKl65vIpWLKtMIcFO64nMezLMBOmG973xDOPLHBpi9yfLFBqs/dt2pq4a6Fm90DDB26SBg9T+0XtPqTIDAAAAfAWBFQAg3Zm5m3IUyKudazembuGHj9gJyLevXGuvqdK8oV0J74OuD9oqq3qdr7fD1Ew1k7fMoaHOUZp2j9xt56AyQ+e+fOA5vT7yZ5WoWtGuHHguTFB04/PuidL/fPcLO5/Tba8+oyw5sjtXuK/xaHr7Da73EWxXEzTqdmhlt8kDB2nIh1/ZIOvG5x+VnxMM+fmf+u3VE1ydi+rXNdG4b37W+zc/YOfrMpVYi1yvPfWXv22/Z36vMzET0pvqKg/v0G/m4OFq5vo8nhUPjdK1qzpHAAAAgG/wi4iMPnlqDgAAzkvPnj0UGxurbv0+s+cDX3jLrqBXrHJ5e+5hVvfbuWa9DXcAIL2M6NVbMWHh6tuvv9MCAACudFRYAQDS3ekqjAAAAADgXPETBQAg3dXp0No5OpGZu6lk9SrOGQAAAACcHoEVACDd1Wjd9JThgIZpNxsAAAAA/BcCKwAAAAAAAPgUAisAAAAAAAD4FAIrAAAAAAAA+BQCKwAAAAAAAPgUAisAAAAAAAD4FAIrAAAAAAAA+BQCKwAAAAAAAPgUAisAwCWzf+sOLZ0wTYvGTNa2FWuVnJzs9ABXpvjjsVo/b4kWjpqkFVNnK/JomNMjrZu7yG6eP+dx0TGpbYb3sbFtxRp7vmfDFqcFAAAAHgRWAIBLYtX0uRr+aX/tXLNBh3bu0cQfftf84eOVkpLiXAFcWY5HRWvcNz9rzpDROrJ3v9bPW6zh//eN/fNtLJs0Q4tGT9bRPfvt+dbla7R21gId2b3Pnm+Yv1Rh+w/ZY2PNzAX2MQAAADhVQK9XX+vtHAMAcEEmT56kxMREVevUzp4fj4zSpAF/qELDOrr+wbtUvkEtZc2ZQ/NHTlCxyuWVNVdOJbmuN1Uq80eM17q5ixUbFaNCZUpKftLUn//S9hVrVapmFft8RnRYhKb9OkRl61S354d27dHsv0Zpy5KVqVvYgUMqXK607Z/4/e/KW7SQgrNmST0313geP3/EBI347FvNGDxcO1atU7Xrmtj2czH1l79tdYx5/syhIVo1bY5Wz5yvlJRk5S5UwF4z8ovvNe6bn+znizxyTGVqu1/3bCYPHKyty1arVI3K8vN3/17JfPYZfwyzny86LFzLp8y0r++9bV/pul813PcrOjzCdW9GatHYydq6fLUCg4JS35fnPpR23VvP83vfG1Pxs3T8tNT7dHj3Ps36c6Sy5MimbLlzaZbreTe7rs2eN7dCs2fTxgXLtHzqLNfXL1r5ihexjzFf+9F9BmrO0DE2zKnYqI5tN8y9271uo/IULaxMIcFaOnGa1s5Z5HqPgcqRP699LzHhkSpQqnjq9ZsWLkt9P+4/NxM1b/h4bZi/RAlxccpfspj8/Fx/cM7Bjy++bUMis5mv2XHXaxWtVM7p/W+r/p2jdfMW6+Yej6lmm+YqV7eGdq7eoCN79tmvrwlpC5QqpqijYSpWsazrPY6zf9aDMmVS8SoVbGVWlhzZ7f8G9mzcqoWjJ9qvQZna1ez9xIVbP3W6EmLj1LFTZ6cFAABc6aiwAgCkOxNyHNi2y4Yi/gHubzWlXT+U3/lmj9QgYvRXA7Vr7UbV7dha1Vo21oKREzV76GjbdyYm3PA4tu+g64f+LSpSoYzd9m/b6fS4eVeumKBg06LlatG9qz03wxRNqFKrXUv1HNzfhip9HnjO9p2LFDPk66RKMRNaeAx661OtnjFXLe++RU1vv8GGY9P/+Mfp/W8la1TWlqUrdXjXXqdFNlDbuWa9Steqas9NIGICQM+WnJhk2w3zQ/vg3p9Jfn5qcVdX19egqoZ80MeGWsYB13067HqvZm/ERETa+7ht5Vp7bux0fV08Zg4adkKfYYa6edu3eZtzJE384Q/7eZvc3kXX3XurVkydpaEf9XV63UPqThZ+8LBz5B5G6mHugQnS9m7a6rRI47/91b6/xrd0Uu1219ngavG4qU7v2e1ev1mVmtS3W6EypTRp4CDNHDzC6f1v5n0UrVBW+UoUtecmrKzeqqladr/FnhvFq1TUlmWrdXT/Qdefq73uPysncP+5WTNzvio2qmuDPgAAAJyKwAoAkO5MCGJ+mA/Nmd1pkTIFZ1augvlsJcwx1w/zZjhV6wfuUMnqlVW+fi3V69RaIVlCnavP7ti+A8pVKL+qtmhktzOJOhauST/8rnaP3K1g5/n9AvzV8fH71eRWdzVGw5vaK/zQEXt8PkwY4QlbUpLTAqyKjevZyjITqNTrfL2tPNq2/MTQ50xKue5H3mJFtGXpKntuKorM0DJTwZOrYH7bFnn0mLLmyuF67jaq0LC2bfPYsmyV7W917202HKzSvKG9P6tnzHeukMrXq6kNC5baY1PNZap/kpPSQi9PqGLCotiY44pzbadzus+ev0QRdXj8PtfXs439/FWaNXB99tVOb5qkhIS0x58yTNR9PmPQcDW9rYs99lj572wbEBUpX8b1Z6eSGt3cQSumzHR6z415jNnauP78GRFHjtr92ZhKt9Ac2U6o5jLVUaZSzCPF9V9CbKytEDRVVqcbAmuCODNU0Nyb5CTmdQMAADgdAisAQPozP6O7fqY/0yAtM7QtKHMmZcud02mR6nZqozodWztnUuSxMI388ntN+XHwaSelPrJnv3IVcAc4Z7Jo7BT91PMdG0yVq1fTaZVqXd9CGxYu1Tud77GbqQo6XyZIWjBqot32bdmugMAAp8f1zdXfz7Z7nt9UcJkg41wEZgpyvdcatsrKDO07tGO3He7nGRJ3NiYM9ARbHjld5+aee5ghdGYon7F+/pIT7o2b+ys3fdAwteze1YZLJ1s64V/7GbevWmuH83nUattSyyZOT/3sa2YtOOWTx0bHpN47E974B6TdO4/NS1YoPjbWVop5M2GRqY77/Y2P7bZy2hyFHzq3wMnj64d62O2jWx9W0Yrl1Pmp/zk95+JMf6rTlK1bQ7vWb7L70zH3xASNOfLlMWmd0woAAABvBFYAgHRnqlDMsLHo8EinxW3TwuVKSkiUv7+/rTxJ9qrMOVm2XDnV8KYOKlC6hB1id7KDO3YrT9FCztnpFatYzg7JWzz+XyXGp4Uuv/b6QNtXrNGbY36zW7uH73Z6zl1AYKANfjybt1F9BqiAq83z/PmdIWTnqnStanalOTMU0FRXlahaUYWcubnOxryvk4ehmeqpk0Mhc50Jt3at2WjnWfJmAjczzK5I+dJ2TrDTVQmd6bN/eMuD9nrPZzcVXiczlW6ex+YtVthpTWPmdTJzdplKqlNe23Vqvl7e270f9HI6z02T2zrbPxet7rtNu9dv0vD/6+/0/LcsObPb6kFv+zZvT51U3TBxlgkXQ7NltXNVnczPz98GVqn35ez5FwAAwDWJwAoAkO5MCGGGo5nKIE/gYOYOmvLzn3bVwNyFC9p5lw47q6sZZi6iP9/53DlzM6GP+cHePIeZbNzDVOiYkKBQ2ZJOy+kVLFNCtdq2ULY87snCPUxFVBmviiVTzXMhzPxQNVo3U0BAgBLi4p1Wt9tfS5sTy4Rr58NUnpWrW9OGVeYemvfqXcH1X0w4ZqqWvOeKOrh9lwqWds8dZpgqpXL1a7qee52d3P1kAUFBmjdsnFqkzs10aqpiKpPMZw/Nlk2JCYlOq+x9MHOSeXiGNp7MhDrm8UZi/In3zoSd5vnN1/fkV84UGqyIw0ftMEuzmT8L5zsPlBmqaP5c1O/S1g6HPNN7PFnh8mXsfF+e+crMcL41M+dp9pBR9tzNz/W+S9khoaaK8OR7Z+59YdfnKlqxrD12/T+nBwAAAN4IrAAA6S4kaxbV6dDaTnw+8fvfbLXMlJ/+tKsGlqhW0QZIZrL1sf1+ssP25v4zVrP/HqXKTRs4z+C2cPQkjXNdk6dIIWXJmcO2mRXqFo2erOz5citP4YK27Wza3H+HXbFt94bN9txULJkhcf/+8rd+ffWD1Oc27+F8eeYzcocTab557GX7mT+58zG7mpwJjab/fm4TrxtmOFnY/oP22Nwzb6b67EzMpN8lqlXSmK8HavWMefr31yHat2WH6+vRyrnCzcxjtX/L9tMOWzNzMtW/oa39OhpnylQ8nz3Aa0igWTlw5p8j7L3t90hP1W7b0gZK3oGhm1/q4wMznXjvlkyYpmZ33Og+OenFG9zYXhO++1VLxv9rq8DMnyHP1/VcDfnwa1tV9fsbn9gA1ROcnU3lJvVtiDq+/6+aMWiYxn/7iw0VzZ/1c2WGYFZu1sBd8eb6bKbSDQAAAKcK6PXqa72dYwAALsjkyZOUmJioap3aOS2yFVaFypRUbPRxJScnqXz9mqrd/rrUH9BL1ayiHPnz6tjeA/bcBBSeuZTMBOgh2bLaa81ztL7vdjukL1fhAsocEmL7zfVm4nGPlJRkuyKhud7I4urLVSCfgrNmsYFU1tw5FRMeafvNJORmIvFDu/aqTK1quv5/3WxlkBnudep8Tqc6sH2ngoIz22omM7m8CaOCs4ba18ldqIBdnc+sZGeCGjP5uKm2ObrvgH1MqRpVnGf5byYs2rZirQ2gvB9zdO9+O2m8eV1TYWQ+R8ThIzYwK1apnPz8/VSxcV079NKsBmhWETSBnbnXRrLrPpnnNhU+UWHhKlenhr232fPmtvfGVGeZObBqt2tph+YZwdmy2HudLXcuu1JeiOvchIgmnDJziWXOEmKH+Zn3Y1bvO+r6moYfPqoabZrb4Xdm4ntTjWQmKD+8a4/9uhYoWdwGY6bazbyf7Hly2/doqunMqo/FneF0Zg4vsyqf5+tqKqLyFi1sK+wSExJUp32rEyq6zsZ8nc3rmftn5pC6/+PX7fs6F2Z+MTPRu9kfj4qxlXDm83oq/UxVW6aQzPb9eZiJ5c3XpnC5UnbSdhN4VXJ9fUxgZe676TNDMs39x4VbP3W6XSGzYyf3QgoAAODK5xcRGX3mCUQAADgHPXv2UGxsrLr1+8xpwYWKPHLMBkFmFT9TQdTpifvPOlcXcK0b0au3YsLC1bffuc1HBgAAfB9DAgEA8CGmAuiv97/UwlETVb1VE8IqAAAAXJMIrAAA8CG5CxfQXb1f1P2fvKGabZo7rQAAAMC1hcAKAAAAAAAAPoXACgAAAAAAAD6FwAoAAAAAAAA+hcAKAAAAAAAAPoXACgAAAAAAAD6FwAoAAAAAAAA+hcAKAAAAAAAAPoXACgAAAAAAAD6FwAoAcElMGjBIi8dNdc6khaMn2bYju/c5LQAAAABwegRWAIBLYt+WbdqydJU9ToiL1+bFK7Rx4TJ7DgAAAAD/xS8iMjrFOQYA4IL07NlDsbGx6tbvM6dF+vnl95SYkKB2D3VXclKy5vwzRkd279VdvXsqT9FCOrBtp6b89KcO7dwjub4TlWtQS+0e7q7AoCD7+J1rNmj6H8MUHR7h6k9R8SoV1Nb1XEGZM2nm4OEKO3jEXpeSnCQ//wAlxsUrNHtWtX/sXtu+bNJ0W+FlXtvPz0/VWzVVw5va276zmTl4hI7tP6ikxET72oGZM9vjSo3qqmLjuhr5xXfKFBysPRu3au+mrQoIDFC3t15U6VpV7eNjo2M0acAf2r9lh+vhKcqaK6euf7Cb8pcoavvf7XKvbfcIyZpFPf/81jmTvSeTBw7Sge277Hm5ujXV7hHz2TPbc/Nefn/jEwUE+LvucaICMwWp4Y3tVbZuDdu/YcFSzfpzhGIioux5zeubq9kdN9r7sGzSDHtva7ZpphLVKmmv6zMsGDVRRSqUVf0u12vd3EWaN2yc/vd/b9nHblq0XDMGDVenJ+9XobKl7Nd08sDB2rF6vb3nHk/98H/OEXD5jejVWzFh4erbr7/TAgAArnRUWAEALonE+ASVrllVW5at0ualK1WqRhWT/VjJycka/fVA2//cz330xLcfK/LIMc3+e7TtN4HM8M++VdXmDfXoV+/pnvde0eFde139o2x/gVLFVaFBLbuZ5yxRtYKqNG+gUjWr2P7d6zfb4YcdHr1Xj379vm547mHXY0dq6/LVtv9cZAoJVpVmDVzP21DlXa8TFx3j9EgBQUHasWaD7n7vZb055jfd9uqz+v2Nj51eaerPf9nP/8Anb+gR1/svWrGsxvb7SSmuz+3R5NbO9rFmy1Uov96/6QGnRxrjujfFq1bU8798pae++1THo6I088+RTq9c9ypMUUeP6foH71LHx+9TUkKi0yMb8I368ns1vf0GPTPwc9330Wta+e8crZ290LlCio+NdY5OLykxyTmSDQ3jj6ddP3foGO3duEX3u573Sdd7u/GFRxUXc9zpBQAAANIHgRUA4BJJUdk61bV95Trt27xdZWtXU3KSOwgx4ZOZy6p666Z2uKCfv7+qtmioTc6QwW3L1yg5MdFWRfkHBChr7py2+spUChnl69dWufq1bKiUEBuX2mY2Y/OSFbYiq2ilcva8YOkStppo67JzD6yMfMWLpD6nd2hjmKqm4Cyh9ri86714MxVO1Vo2VlBwZlvVVMP1OXet26SIw0edK04UnDWLsuXJ5ZxJ+7fttBVQ5t64nsB1bxql3hsj4vARZQ4NVfZ8eZTDtXkznzFb7lwqU7u6fXxo9myq1KSeHZLpYarDDFMllRCfViWVxp0smnnHirnuoXfAFe96ziy5ctr37Ofv57QCAAAA6YvACgBwyRSpUEYh2bIqS45sypw1i9MqxZhhfi4/vfiOvnvqVbtN/+2f1EqdqLBw+zgz1M6jYJmSylUwvz02QYkJgoykJHd1kW1zApTosAjXa2a3xx4muImJiHTOzt2ZQhnPezkdE6KZYYAeWXJml3mWmEj3ED1jztAxeqfzPXYLCAy01VDefn7pvdR7M/Und8WWx9G9B2xVlid48mYqrEwI5Xms2dbNXqjIo2HOFe7PtHbOIlt1ZbZTP6Ofjrveqxka2fLuW06ouKp+XRMd2rFLg3r/n4Z90k+LRk9yegAAAID0Q2AFALhE3CGIqS4yFT7eMpvKJD8//e+zt/Tkd5+csNn+0BDFx8bZoYMeZj4m7+DkvwRnyXLKsDdTIeWpiEoP8f8xDM5UX3kPk/McB7s+l4f3kMA8RQra4MrD3LkHPn3jtPfGzH1l5v8y1V/egZ5HcGioDbJOfmz3t190rjDzfqWoUuO6qZs59+Yf4K9Zf45U8243nXLPzDxcbf7Xzc7x1eKurqrXpa3TAwAAAKQfAisAwCVV0UxU7trc8ZX7/5uAxkw0boapmeGAZjOTgc9y5qgqVrGcndNq55qN9tyY+P1vdjsXxauUt/NYmSohIzYqxg7JK1a5vD1PD9tWrHWOpIhD7gngPcz737rMvUKisWnRCuUtVkQ58ud1Wk5khvB5M8MDNy5annpvzBxUM/9yz2EVfvCwdq7doCLlyyjxpOF85rxY5XI6vGuP9m7envr4yT8OtsP7POJiYmyFWsnqlU9bpRWUKZN9jbod29hzp5jNijx6TOO//VUdHr3HTp4PAAAAXAoEVgCASyIwKNA5SmMqdwwTklz/vzvt6nNDPvxKf77zueaPnGADFMMzZ9XoPj/o7/f72BUHTUVP41s62X5vmZyV87yVq1dTFRrW0S+9PtCIz79zPf5dO59WpcYnVnqdj5MrjSo3ra9Puz2uwW9/pi8feE4t7rrZ6ZFa3H2LNi9Zqb/e+1JDP/raTlTe5oE77HxcHnP/Gav3brjPVlaZQKlW25ZOj1zX3qnZf43SkA++0l/vfmFXWCxRpYLtM5O3m+GGZiW/P9/5wnX/vrbtJpAyqxbmKVJI191zm4a67uuwT7/Rr69+aOcQq9Skvr3OMPNf/RdT2day+y2pXy9vY/v+pBqtmqp0rWpOCwAAAJD+/CIio08cBwAAwHnq2bOHYmNj1a3fZ07LpWeGxm1fudZWTxknDzu8GOvmLLL7AqWKKXfhglo/f4lSkpJtVVLFxnU1pu+PdpjfLS89aeeGMnN0eYdRl1LfR15U155POmdpxn3zs65/sJtKVK3otJye57OFZs9qJ6Lfu3Grwp0KsfS8h8DlNKJXb8WEhatvv/5OCwAAuNJRYQUAuCKZ8KhUjSo2ZEnvoMXznCasMio2rGPPTVjl4Zn0PVvunJctrDKSk5IVnDVUhcuVSt2y583t9J6d57OZsMooXL50ahsAAADgKwisAAC4ghQpX9o5OlGugvmcIwAAAODKx5BAAMBFy4ghgQDgwZBAAACuPlRYAQAuWv4CBZSSnOz6gTHMaQGAyyM5KcmGVaFZsjgtAADgakBgBQC4aDd2udHuJ370BaEVgMsmITZWkz/9yh536NDR7gEAwNWBIYEAgHTx519/avbMGfbYz5/fhwC49Exlp1GhUiU9/dQz9hgAAFwdCKwAAOlm44YNGjl6pA4eOOC0AOkvMTHR7s1KjQGXcYVG+J6cuXKpfdv2qlM3bQVPAABwdSCwAgAAV5Tx48dq7JgxeuKJp1S5ShWnFQAAAFcTxmwAAIArStOmzeyesAoAAODqRWAFAAAAAAAAn0JgBQAAAAAAAJ9CYAUAAAAAAACfQmAFAAAAAAAAn0JgBQAAAAAAAJ9CYAUAAAAAAACfQmAFAAAAAAAAn0JgBQAAAAAAAJ9CYAUAAAAAAACfQmAFAAAAAAAAn0JgBQAAAAAAAJ9CYAUAAAAAAACfQmAFAAAAAAAAnxJw+x139l60aKH8/PyUO3dupxmXw5YtW8S9zxjc+4zBfc843PuMw71Pf/HxcZo6ZYo6durstJyK+55xuPcZh3ufMbjvGYd7n3G49xnnWrr3/ps3b1JycorMHpcX9z7jcO8zBvc943DvMw73PmNw3zMO9z7jcO8zBvc943DvMw73PuNcS/fev2zZcvL395PZ4/Li3mcc7n3G4L5nHO59xuHeZwzue8bh3mcc7n3G4L5nHO59xuHeZ5xr6d77RURGpzjHAAAAPi8yMkK9XnlZffv1d1oAAABwtWHSdQAAAAAAAPgUAisAAAAAAAD4FAIrAAAAAAAA+BQCKwAAAAAAAPgUAisAAAAAAAD4FAIrAAAAAAAA+BQCKwAAAAAAAPgUAisAAAAAAAD4FAIrAAAAAAAA+BQCKwAAAAAAAPgUAisAAAAAAAD4FAIrAAAAAAAA+BQCKwAAAAAAAPgUAisAAAAAAAD4FAIrAAAAAAAA+BQCKwAAAAAAAPgUAisAAAAAAAD4FAIrAAAAAAAA+BQCKwAAcEWZPXuW3a9ds8buAQAAcPXxi4iMTnGOAQAAfNLePXu0ePEibdq0Ufv27VNycrIyZ86sQoULq1Klyqpbt55y5crlXA0AAIArHYEVAADwWdOn/atRo0YqPj7eaXHz8/NTSsqJ/4TJkSOn7rjzTlWvXsNpAQAAwJWKwAoAAPicQ4cO6fPPPlVkZKQ9b9Cggdq0aaPixYsrODjYthmxsbFav369xo8fb/dGsWLF9fwLPZQpUyZ7DgAAgCsPgRUAAPApZthfny+/sMe1atXS008/rYCAAHv+X6KiovTee+/ZIYNBQZn09jvvKnv27E4vAAAAriRMug4AAHzGkSNHUsMqY9myZZo1yz3J+tkMHz7chlVmuGBCQrzeefstO9cVAAAArjwEVgAAwGd8+cVndv/888/rrbfekr+/v3766Sf9/PPPtv10zFxW77//vqZMmaIcOXLo66+/1o033miHCw4c8INzFQAAAK4kBFYAAMAnrF69SseOHVPdunVVs2ZNlS5d2oZPOXPm1LRp0/Tuu++eMtG6mePqmWee0caNG1W+fHn16dNH2bJlU9euXZUnTx6tWLFckRERztUAAAC4UhBYAQAAnzBh/Hi7v/fee+3eyJo1q7788ktVrFhRmzdvtvNZhYeH2z7PeUREhJ2Q/bXXXrPDAT08zzNt2r92DwAAgCsHgRUAAPAJO3fusCsAmmF93kwI1atXL7Vt29ZWVD377LMaPHhwasXVgw8+qHvuuce5Ok316tXtftWqlXYPAACAKweBFQAA8AlmgvTcuXM7Z6fq3r27HnnkERtSTZgwwQZZvXv3VvPmzZ0rTmTmvzKbpyILAAAAVw4CKwAA4DMSEhKco1OZQMtMrO5hgqupU6c6Z6dnrgkICHDOAAAAcKUgsAIAAD4hOCREhw8fds5OFBYWZuer2rp1qypXrqz+/fvbSdVnzZplVxM0YdbJDh48aAOrQoUKOy0AAAC4UhBYAQAAn1CjRk0bMK1du9ZpcVu/fr2ee+45RUVFqX379nr55ZcVGhqqzz//XFWrVtX27dv11FNP6ejRo84j3EyYZTRq3NjuAQAAcOUgsAIAAD6hS5cudv/tt9/avTFp0iR9+OGHNsh67LHH1K1bN6fHrWfPnurUqZOio6P1/PPPp4ZdZt6qUaNG2Tms6tWrb9sAAABw5fCLiIxOcY4BAAAy1O+//6r58+bZ4X4VK1bUnDlzFBgYaCdXL1asmHPVqRYsWKBvvvnGHt95552aMWOG9u3bp7u6363GjZvYdgAAAFw5CKwAAIBPefed3jpw4IA9zps3r9577z2FhITY8/+yZ88evfnmm0pMTLTntWrX1oMPPmyPAQAAcGVhSCAAAPApr7/xlooWdVdTmaF9ixcvtsf/xYRUpsrKE1bVrVePsAoAAOAKRoUVAADwSWPHjNb48ePssZ+fn8qXL6+aNWuqSJEiCg4OtpOw79ixQ0uXLtWuXbvsdQEBAbrn3vtUt249ew4AAIArE4EVAAC4KBs3bFBSUpJzlr4SEhO1aNECrVm9WvHx8U7rqbJkyaLatWurWvUa8nP9dymEZglViRIlnTMAAABcSgRWAADggkVFRWrmzJk6HhPjtFw6ZrhfVHSU9uzerYMHD6pY8eLKn7+AsmbJYlcDvNSSk5N1622322ovAAAAXFoEVgAA4KLs3r1LyUnJztmlt3z5Mk2aNFG33nq7Spcu7bReesEhIcqfP79zBgAAgEuJwAoAAFxRIiMj1OuVl9W3X3+nBQAAAFcbVgkEAAAAAACATyGwAgAAAAAAgE8hsAIAAAAAAIBPIbACAAAAAACATyGwAgAAAAAAgE8hsAIAAAAAAIBPIbACAAAAAACATyGwAgAAAAAAgE8hsAIAAAAAAIBPIbACAAAAAACATyGwAgAAAAAAgE8hsAIAAAAAAIBPIbACAAAAAACATyGwAgAAAAAAgE8hsAIAAAAAAIBPIbACAAAAAACATyGwAgAAAAAAgE8hsAIAAAAAAIBPIbACAAAAAACATyGwAgAAAAAAgE8hsAIAAAAAAIBPIbACAAAAAACATyGwAgAAAAAAgE8hsAIAAAAAAIBPIbACAAAAAACATyGwAgAAAAAAgE8hsAIAAAAAAIBPIbACAAAAAACATyGwAgAAAAAAgE8hsAIAAAAAAIBPIbACAAAAAACATyGwAgAAAAAAgE8hsAIAAAAAAIBPIbACAAAAAACATyGwAgAAAAAAgE8hsAIAAAAAAIBPIbACAAAAAACATyGwAgD4tPDwMLvt2rXTacG1bvbsWXa/ds0auwdw/szfqbt37bJ/v6akpDitAAD4Dr+IyGi+QwHANS4hIV6jRo7U2rVrlJSU7LT6hsTERIWFHVP27NlVrlx5pxXXsgMH9ts/p1myhCpHjpxOK4DzsWnTRsXHxys2NlZ58+ZzWmX/d9W8eQs1aNjIaQEAIGMQWAHANe7woUN6553eKlK0qJo0aarAwECnxzccPXpUy5YuUfbsOVSnbl2nFdey9evXaemSJWp5XSsVLlzYaQVwPsaPGys/Pz9VqFhRpUuXscfGMdffuZMnT1KhQoXV86WXbRsAABmBwAoArnGv9npZderU1S233ua0AL5t9epVdu/v56/KVarYYwDpJzk5Wa+9+oqaNmuuTp06O60AAFxezGEFANewY8eOKiIiQl1vudVpAXxf1arV7EZYBVwa/v7+6nZXd02f9q/TAgDA5UdgBQDXsPDwCAUFZUodCgIAgGGG25r5rQAAyCgEVgAAAAAAAPApBFYAAAAAAADwKQRWAAAAAAAA8CkEVgAAAAAAAPApBFYAAAAAAADwKQRWAAAAAAAA8CkBt99xZ+9FixbaJc1z587tNONy2LJli7j3GYN7nzG47xnnTPc+LCxMC+bPV/v2HZwWpDf+3GcM7nvG4d5nnPS89zExMZoxfbo6duzktOBM+DOfcbj3GYd7n3GupXvvv3nzJiUnp8jscXlx7zMO9z5jcN8zDvc+43DvMwb3PeNw7zMO9z5jcN8zDvc+43DvM861dO/9y5YtJ39/P5k9Li/ufcbh3mcM7nvG4d5nHO59xuC+Zxzufcbh3mcM7nvG4d5nHO59xrmW7r1fRGR0inMMALjGbN++XX2+/EJffNnHaQEAQDp8+JDe7v2Wvu77jdMCAMDlxaTrAAAAAAAA8CkEVgBwDUtKSrL7xMREuwcAAAAAX0BgBQDXsHVr1yghIV779u1zWgAAAAAg4zGHFQCfd+DAfv3400Dt2bXbaQF8X2BgoJo0barbbrvDaQGAKwdzWAEAMhqBFQCftmnTJvX58nN7HJo9VEEhmewx4OsiD0coOSlZefPlVe/e7zqtAHBlILACAGQ0AisAPu35559RQnyCurx4swqWK+S0AleGaQMna/PCTWrXvr26dLnRaQUA30dgBQDIaMxhBcBn7dmzx4ZVFZtWJqzCFem6B6+X/KSZM2c4LQAAAADOBYEVAJ917OhRuy9YlrAKV67gLMGKPR7rnAEAAAA4FwRWAAAAAAAA8CkEVgAAAAAAAPApBFYA4AOmD5ljt5SUtHUwNi7dYts2L9/qtAAAAADAtYHACgB8QLEKRTR75AJtXr7Nnh+PitXsEQuUnJSsMjVK2zYAAAAAuFb4RURGp/06HwB8yOpVq/Ttt9+o5f2tVa5RBaf1KuX6m3jakNnavmanuve6zYZXO9ft0h0v3qyQrMH2knEDp2jWiPk2xArKFKjOD7dVw051bZ953OBPh6t510YaO2CyXZnuhkfapfYba+au1/IZq5WUmKyAQH8luZ7nrpe7KjAo0PZ/+9LP2rZ6pz3OWyS3ev7wlD02lV6rZq21xycrXqmo6rWtpcSERE34+V9tXLJFyckpKl2thNrfd51Cs4fa6/7pM1pFyhZSrVbVXa+fpPljFysqLFo3PNbe9l/Nfuvxo+Ki41gaHsAV5fDhQ3q791v83QUAyDBUWAGAL/CTGnWqq4DAAM0dtVDzRi9U81sap4ZVxox/5uqmJzrq43Fvqm7bWhreb5zTIwVlDlJ0WLT8/Pz0wajX9NIPT9l+U6nlEXE0SpmCM6nJDfVVvVkVJSUkOT3S35+PtGGVeW6zxUQc1zc9fnR6pdLVS9otV8Fc8ne9R8+5J+wa9e0ERRyJ1GOf3q+nvnhQycnJJ7y/2Jh45yiNCbYAAAAA4HQIrADARwRnCVazro20aPJyNbmxga1S8maCpAYdatvjm57oYPfeEuIT1bhLPXucM38O5cibXSu9KqPCD4crZ77sKlOjpD1PSU62e+P2F260z+9RuWEF7dt20B6XrVlKNVpUURWvKrfCZQraNrMZK2asUYOOdRSaLcT1OTKrQfvaWr9ok45HuwOzwKAAuz+0+4iO7g+zx/7+fnYPAAAAACcjsAIAH2EmXF+/cJNKVCpq9+GHI5wet/97pJ9e7viO3V7p9K7TmiYg4MS/0rPnyabwQ+H2OCEuQUf2HVOuArns+ckWTliq1258P/X5l0xd4fSYYMnfbifzbjdDAnPmy2GPjex5s9uhfzHhMfbcz99Pe7cesK9jtrBDrs9GXgUAAADgDAisAMBHrJ2/UavnrFOzmxsqV8GcmjNyoVKcYXN/fjpch/ccTR2y99HYN2y7NzMnlTdTcZUpJJM9jjwWpQM7D6lA8bz2/GQj+o1T2VqlU5+/ZouqTs+58fP3t6GYR0Jsgvz8/O1QRY/CpQuoUv1ydjOVXmbeLgAAAAA4HQIrAPABJlCa+c9cOxSwUKkCanZTQ62as1Zr5q23/WGHwpUlh3sCc+P3D4Y6RydKjE90jqT92w6kDivcumqHchfIqYIl89tzw1Q9eZiwq1j5ws6ZtGzaKtf/P/dEqZDrebeu3O6cSVtcx/mK5rFVXkZCnPt9mfdTonIxe2wmjwcA+KZ9+/bZ/a5d7sU4AAC43FglEIDPupZWCTQr+5khgLc9f0NqVdLc0Qvt3FB3vXKL1s7foBHfjFexCkUUfijCTni+fPoqO7/Uwx/coz2b96l/z58VHJpZta6rZgOjiKORev33FzTt7znasXZnarWVR1xMvLLnzqpbnu2ifi/8qJ3rd6tU1eKua3epveuej/txiirUKav/vXuXvT4+Nl6zRy6079PMlVWgeD7bbpghjCO+GadKDcrbnGud67zzI21VtXFF228mdS/ueu+sEgjganbo0CHFxh53zq5s8+bN1cwZM3RX9+4qVqy403ply5Ejp7Jnz+6cAQB8HYEVAJ91LQVWm1dssyv4mVDHwwREOzfsscdla5Sy+zMxgZUJncwKgXu37LerBRYqXcD2mcDKVHBVqFvWnntEh0dr7bwNuvu125yW/2bez6rZ6+xx0fKFTwisjMijUdq10f1+TX/23O7qKmPJFPecWFWbVLKB1boFG+15nTY17P5qRmAFXP0WzJ+vPwb9RuXoFSBHzhx69tkXlD9/WsUxAMA3EVgB8FnXUmB1sbwDq5N5AqsbHm3ntLgt/XfleQVWuDAEVsDVbcGC+frt11/scYWmlZTNGQoN37N/0z7tXrvLHn/40SfKlo2vFQD4MgIrAD6LwOrc2cCqx4/6YCSBla8hsAKubs8+85SSkpJ096f3KyR72lyD8E1bFm3WvwMmqULFinr66WedVgCAL2LSdQC4ChQpW+i0YZVx3e1NTgmrjNqtqhNWAcBFOHL4sA2ryjeuSFh1hShTr6wdgr9po3toOgDAdxFYAQAAABcgNi7W7rN6zdkH35cpNLOSk5lvDAB8HYEVAAAAcAmZhSY8i014nK4NAACkYQ6rSyg6OlqJiYnOGTKSWTGNZYyvPMxhhasBc1gBV689e3brww/eV+3O9VSnSz2n9VTDvh4jP39/3fxkR3u+buFGjfxmvLr3ulXFvFaHxeUxuNdvijoaqb79+jstAABfRGB1CcybN1d//fmnEhMTnBb4ilatWqvrLbc6Z/B1nsCq+vU1VbhSUacVuLL8+8MkJcQmEFgBV6ELCawij0Zp8CfDVKVxRTW5ob5zhTRu4BTnKE3HB9s4R9Lfn4/U5uXbFBAUoDqtqqtN9xZOj5SSkqJFE5dp2+qd9rhU1eKq36626zX9bH9SUrLmj1mknRv2KiDAX+Vql1at66rZPsO8dqs7myo4S3DqeWj2ELW8rYldoGP/toOp7yU5OUUTfpqq6s0qq2j5wrbt0O7DWjhhmcIOhStnvhxq0KGO8hbJbfuMvVv2a8nUFYo4Emn767evrXxF89i+jUu3aPOybWr/QCv5u+5RYkKSJv06TTnz51Bj556umbfeVqPFxyWocOmCrvb6yhQcZPvM510+fbU2Ld1qh/mVrFxMDTrWsb+sPBMCKwC4MhBYpbOpUyZr+PBh9rhixdoKCclqj5GxkpIStG7dEiUkxKtatRp69LHHnB74Mk9gBVzpzA9OBFbA1ed8AyuzAMak36fb4ObWZ7soIDDAuULq98KPatixjnMmjR04RW8O7mGPv3nxJ+3bsl9dHmuv2KhYV99k+1xNbmxg+0d/P1H7th1U864NlZKcoimDZ6pczdJqf38r2//np8OVmJBog6K4mDiN/2mqGt9QX02dx79+0wd6/Y8XbGA1f9wS7du6X7kK5EwNrOaMXKCn+zxsrzWB1dt3fKqH37/bBlbhrs/S99kBauZ67TLVSmrLqu2aO3qRnvriQWXNmcX1vg7oh1d/U6s7m9mwacvK7Vo8ebme+/oRhWQLsYHV8L5j1XPAUzawmvTbdB3YeUh3v3qr/bvTXGvabnqyo7LmCLXPbT7L3a+6Fw2ZMXSuls9YrQ4PtFamzEH698/ZKlgqvzr+Ly3sOxmBFQBcGQis0pFZJcYsbRwQEKiePb9WcDCrxfiab755VQcP7tErvV5V0aLFnFb4Kk9gVaFJJRUoU9BpBa4s8/6arcT4RAIr4Cp0voFVfGy8EuIS1OGBNspTKJfTK1tV9PH/vtLDH9yj/MXyauuqHfr9g6GpgZUJkWKjY22AZLx712cqXrGo7nvzDnv+5i0fux57d+rwwhUzVivyWLSa3tTAVj99/ewAPd//ceXKn8P2zxw2z4ZlngovE1i99vsL9vj/Humnyg3KK0/h3OcUWJnn2rhkix5ynXt8+9IvqtWyqq10Gv39JEWHR+vOnjc7vdK0v+fY8Kleu1onBFamQmzwx8P0zNcPK7szkf03PX6y1VzmsxiH9x7VF098qxe+ecy+x08e6mvDqmqufysYO9bt1o9v/qG3h7xsz0+HwAoArgwEVulo3dq16tfva11//R1q0sQ9RwF8y/79O/Xtt2+oefMWuv2OO51W+CrmsMLVgDmsgKvX+QZWxSsW0fS/56jzw21VoW5Zp1cKPxyhPk9/rxe/e0Kh2UNPCayMTx/qqyP7jtljMwyuUoPyuv8t979lvCukTrZ+0SbX67sDoaBMgU7riTyP//ev2cqaw10VVaBEPhtYrZy1VhN+nmoDq5CswTq6/5jrvf6QGlgN7zvODgU8mQneOj10vX58c5D93G3uShvC6M0TWFVuWEFr523Qrc91UZkapZxe6f27v7BtnvuVlJik97p/ru6v3qqyruveuvVjlaxS3PZ5mM/88bg3nbNTEVgBwJWBVQLTUWRUpN3nzVvI7uF7cuRwz5cQEeH+WgEAAFwudVrXUO1W1e0wtqiwaKdVOrzniA2bTFh1Oi93fEdFyxXWR2PfsFu23CdOOWF++5ycdPrfQZugzARcZvsv4YcjbaVUkxvrn3BtlUYVlCNvdn36cF998eR3dsidN/8AP2XJEap29113wlarlXuOLDPM70zvzVvpaiVVpmYpG5B58w9wPT457fHm2Lw987yGGTZ4ffcWJ7z2s30fsX0AgCsbgRUAAABwmTTsVEdBmYM08595qcHQro17bSD1X7q93NU5kp243VvmkEzavXmvcyYtmbJCv773tz3OVySPnbfqyN6j9tyY9vds/fb+EOfMbfIfM3T93S1OmFfLMOePfHSvev38rJ756mF1faaz0+NWqFQBd0VW8Xx2jiqzmfPQrCFOf3577u2nNwdpxYw1zplbpQbl1Pbullo1e53WL9zktMr1vHldj9/vnEkHdx5SSnJy6qTuuQvl0q5Ne1Nf24Rrx6NibR8A4MpGYAXgirJg/BK7ef7xu231jtQ2M0wAAABfFpI1xE5QvmjyMhvOmIoiM7F4xXppQwRPx0y8blbPe/PWj1WsfBG78t6UP2bYPjN5+ujvJtq5rsyk5CZ8Kl21hO3LXTCn6rWtZYfdLZy4zM45NWv4/NQ5nwxT3WVCoCoNK9rzk1fYM+cmZDMrDJ6sZsuqtn1k//FaMXONnSB96uBZSnS+J5uJ3g/uOqyxAybb+bCGfDlKMZHH7ZDGk2XPk81WSJlJ5c1cX0ajzvU0z/WZ5o1ZrGXTV9nPaZ7TM8eVmdtq2l+zXZ97oX3+vz8beUqVFgDgyhTQ69XXejvHuEh79uzRihXLVa1aw8s+LHD4qEFasmyeVq5ecsK2/8BelSxRJrVs+lqXmJigOXPGqmDBQqpdJ20lHvimgwcP/j979wEYRbWFAfhP74GEHnoNvffee1dRmhRBsYEKgoDSq/pUpIgISO+9994SQg2995KEAOk9b+/ZmWQTAgaFkIT/883buffOTmYH2CRnzz0XXl5Hka9sAWTKnVn6Lh69Av+HT5CzUA44uTjiic9TXDp+DfZOdvLpNP+uU2pzetsJREdGo3nzFloPEaUXgYEBOLB/P3IUyQk3reB5UtT3LTVtLo92jGt2F1hZW0kR9seGsQKl86Fyk/LQ40SPDd/bsufLEpd1paa8nT18EcEBofhq6icSsLlz6Z4EkQqXK4D8JfMis5urrK4XERaJ6q0qoVw945Q8RdV/sne2g88tPwlM1X+/FopWKqyNAtZ2VjJd0dHFQdpBT4JgaW2ZZNaXSgqzd7KVgJEKMKkMrFI1iyMkIAS+dx7BwdkezXs2kNeoqLpXKjgW8CgA/vcfS22rZj0bwtbeRsZVXS6VnaW+r6vAWM5Chu/lFmbywZT6+llyZZLXp9oqs6yk4VyqWLweVFMZXqpG1sObfgh6HCSvtc671WXsec7sPI2I0Ag0b5EwW4yIiFIXFl1/hTw9PTBv7hx07PgV3N3Lab0pQwWsAgKfInPmbNJWKeY+PveQK2c+NKjbTFYuJCA0NBgTJ36GsmXLo1dv42o3lHolVXR956J9UtxVLcetfkhVGVYH1x01/DCbR5YDVz8471y8D17bTyE8NBwFDb8EdB78rjxXiYmOkU+fb1+8i2jDvppqoD69VUtvK38M+FseheGHYfWD9TuJpj8smrBSluVWxWsrNi6Hhp1qayPAljm7ZCnwcvVKIjI8Coc3eskKcfrS4hv+2iZfT18dSrXNzM3Q4qNG0g4NCsW+VUfk02gVhFOfXKvXQGkXi64TpV/JLbpOqQuLrhMRpQ1MRUhnSpcojwZ1mqFQ/oRp1pu3rcGo8d9ixLj+6NqrJbp81ALrNhlrGyiRkZGY8fdvGDqyL0aOG4DBw7/AiVOe2igkGDZp2jj0H9zbMPa5nOvmrWvaKLBgyQzMnjdFawG79m7BD6O/QkxMDPbu34ZZcyfL9tecSYbH3zF95v+kffrMce0ZRMmnR9nVSkXCpDjsgTUeMh1Bfbo8bPEAWSlo6jeztVFgz4pDuOZ9A9VaVkTd96ojIjwSi39cpY2qcz6BnZOdrFZUrFJhXPS6gsGtxmijwG9f/CkZXU271Zeg2fYFeyQApvO790jbi6e+hs5rxyltDzi5Ry07Hl+HRE1p/Hv4Enms/0FNFCyTD3NHLpUluomIiIiIiN4mDFilI5FRxl+KbW2NRS5NWVpa4v6DO+j/5TDMn7kBk/83D8tWztVGgdXrF+Hp08f4YdBEDB/yM5o3aYc5C6chJMS4gs2yVXNhb++ACaOmYfzIqahYvhrmL/5TxhLz8X2AxctnoVunPjI9y8UlEypVqC6bjbWNZIFVr1pX2kT/lqr3cXCdJ84cuiDTFnSq8GybT5uiVruq0q7eqjJuXYgP+NR7rwZafdxElsBWUw3U9sQ3QBuNp6YT1O1QA9VaVJSsLJ1qq2BSpSblULt9NdjY2+DGudvaqGKcoqDqc0RGaIEqk4CaMLTVlA1VYyRjlgxaJ3D11A08fvgYzbo3QM6COVC2TklUaFgaJ3Z7a0cQERERERG9HRiweouo4JGTk/GXY5eMmWTu/9VrF6V98rQXKpavHhfsqlC2KiLCw3HrznVpe585jioVayIoOACPnzxCtSp1cOXaBRkzFRj4FHMWTEWblu+jUEFj4c5SJcrLliVzNsm4UgrmL6L1p+zUSUof1FS8DJmc4zZrW2ttBBJIUkVs1RLgatuz/KA2YqSm36kpe/NGL8Mf387BuSMX8d5XrbRRI9/bfvip1xRM7Pk7dhue3+6L+NpDanltlcWln1+tvGQakLK2tZLlyQ+u9ZRNjScuXqumGh5Y64EytYsjKjJK6wQePXgsqxvNHr4Is35YKJvfPf8ks7aIiIiIiIjSMwas3iKOjs7anpGZ4b+AoKeyrwJRzk7x4ypwZWVljeAQ43SlsPAwrFizAL9OGRO35cldQMZ0V69fxKgJ38LX7yEa1ov/BV/9sq7/wq4v36yY9hO9FMNfo8LlC8jS4Lnd3eICocpPvafiwQ0fTNw0TLZ6HWpqIwnVe7+mZEipv5N7Vx7Weo2y5M6MOu/VkOfmL5FHVlbSrfhtPdwrFIw7v1401lTmnJmQNU8W2VQGVmLq7/3RLcdR+53qiI2J/zehVllS2VyqnpXp1rJXY+0IIiIiIiKitwMDVm+RsLBQbc8o1vCfo4MxSOXo4IRgbfqfEh4eJlMMHewdpW1jY4P2rTth1Pe/JthMFczvjp/GzkC+PIWwYvUCrZfo1YvUspL0zKqwoDB5VFR2U5k6JbUWcN7zkrZnpOpBqVWUchdxQ4lq7mjYsTYuH7+Kp34JpwVWblJOVmHqMbKj1hPvnX7xGVlhKsPKhFrxSSldqziKVzGuwBRjEpRSdi3dj4ad60iwyzRomz1fVjy87QcnV0fZV9u10zcY2CUiIiIiorcOA1bpiLnZi/84H/n7Ijra+It+eES4ZJYU1qbtlShWBqfPHDP0GTNVvM+dgJWlJfLkyi/tEkXLwOv44bgMqYuXz2LG7IQBK12Hd7pJofWz505qPUSvlpoSaMre2V7bA9wKZofHJi9sm78bU7+ehSIVCkq/KrauqCmAq6dsgueW41IbaueS/chTLJdMxTO1+MfVUoz9h/YTYG6eMGA0/ds52DR7B4a0HitBpduX7mHL3F0yppYpV4wxJuPzTJ9vZWUpS5iXb1Da2GFy6tzuOVGyelEs+99aHN91GnsN17xv1WE8ffRsjS0iIiIiIqL0zGLwkKEjtH36j+7evYtTp06iVKmqyJw5h9abMi5c9EZkZATy5yuMDM4Z4ffIB7fv3oCzYb+Aoe/6zSt4/PgR1m5YioNHdkvB9KaN2qJ0yQry/CKFikv/9l0b4HnsIA4d2YPO7/dGvryFZLxggSLYd2A7tu/eCI+jB7Brz2bUrdU4blqgCnZFR0ejXJnKkpVlbW2NjVtXok7NxlI7SwkKCpDrUNMN1TVZWz87Vep1i4qKxMGDG5E9ew6Ur2B87ZR6+fj4wMvrKPKVLYBMuTNL3+1Ld2HrYItMOVzh5OKIJz5Ppbi5qi2lCqhXa1kJAY8C4XvHHyWqF0WDjrUREhAiWVhFKxdG4XIFYO9kB9+7/gh+GiJBosad68DSyhgEC/APhL2znRRvV5vKwuo5qrOMKY0Mx57zuCSZVF9N/USKsN+9ch/2jnayqp///cdyrhz5s8r0Pp9bvpJJlbd4bnm+2i9dqwRcshrryT31DYCDsz1yFsohmVQqYKUefW77yXkadqqDvMWMz6W06fS2E4iOjEbz5vFTpYkofQgMDMCB/fuRo0hOuBm+nyTXkp9WS8ZvkfLGD1VUlu+aqZvkvT9/ybwy1V3VQdy+YC+8tp3Eo3v+yFM0FywsLeT42T8shKvh++DGmduwbvoW3Ll8D6VqFpcxJSw4HDsW7ZMPZU7tOSPf7/IYrk99fznveRlHNnjh0rGrCTa1gEihMsYPKtX51XVMHzgXu5cdlA9X8hq+vk6twKtqMZ7YfQZnDl6QrVSNYjJ25uB5w9c9ENe+d/UBNs7aLvUjnV2dsP7Prc98bbXdu/ZApuFvmrXD8H32IopWMmYpq9evPrwpqZ1PTaU/vP4oti3Yg6OGMZVZrb6XW1oZ701ynNl5GhGhEWjeoqXWQ0REqZFZQGBwwrkq9K95enpg3tw56NjxK7i7p2wx8ROnPOUxc6asyJ0rnwSwQrUpgKVLlseuvVuwY/dGTBz9ByIiwmFhYWnYkv+N/VVQqxQ+eHhP9osUKgYHByfZT0mhocGYOPEzlC1bHr1699Z6KbU64+2N6dOnoW73BihczV3rJUpb5vefjXDDL4+Tp0zTeogovbh79w7GjxuL8i0roUKrSlrvP/u591SYW5rjmz8+lfaRTccQFhwmH3TU/6AWdi7ej0vHr6BNn2ZSC3Hnor0wN/zc9q62SMiYLr+gYOl8aNy1HjJmzYAZ382DnYMNuo8wTmNfMHY5bB1tpRZjeGg4Vk7aIB/i1H+/pgSsvA+cQ95i8QEov7v+suJukw/rSVstKlKgVF58NLozgp6GYEL3Seg9vqt8zVvn72D6oLl4v38bZMubVY6fZnifG7XyO9lXAavdyw7gy0nGn7PmjlqKR/f9Dce3lQ9nPDYfk37l8vFrUpNSV6VZBQlYqQ+i2nzazHDtEfjt8+kIC4nA8CUD5Bi1mIpaIbjd581hZ3iNu5YckA9N1fmTa/Hg+QjyD8SUqX9oPURElBpxSmA6oTKb1KaCVUpR91JxfSo4peh1cFRmU0oHq5Qc2XPFXdObCFYRERERpQaqFqNjRkfJKlLOHb6IqMho2VfUtPCabavKNPdMOVxQ590aOLXvjDZqpAJVakwt2PFuv5YSiFIe3X+Mi8euoO57NWTcrUB2WaTk1N7456tMZJWtXKlxORQuZ8zySqzLkPckiJUxizPK1S+FwxuOSv8T36eGa3eQepFqWnyGzM/+TKevsaOCV+r6ZEVdjfqaFRqWjfu5NGvuLNKnNp3+/L0rDkp/tMmKuid2eaNmmyoS/HLNru5NdZw99OzK1URElPYxw+oVepMZVv9ETfXbuWcTJox6uz/hZ4ZV2qJnWBWsVBhZ8mbReonSlmPrjyIqIooZVkTp0L/NsBr34W+o3b6qZA7VaF1Zai6WqVNCpvypDKsRHX5E1tyZDe8dxiCWpbUF7l/3wehVxiwmlWHV+pOmssCHojKzBrcaI6vXXvO+ifljl2HwnK9gbWusq3jl5HUsnLBSspRUYOvgWg9UalJOpu098Q2QYFTiDCt1Lt3ORftw5vAF9Jv8MQL9g/B7v7/kua7ZM8r4tvl7nsmw+vzXXpj0xZ/o9N07kgHWc1QnCTIp0VHROLbjlEwFrNGmCvKXzCP9ip5hVd1wX+aNWipZY+o8+vlHdfwZmd1cE9wbn1t+GLF8oLSTgxlWRERpAzOs3hKN6rd864NVlHaFBYYiwC+AG7c0ualaNEREiRWtVAQXva5INpR7JVUzNH4VDjX9r1mPBug+4gPZVLbTt399ro0axZq8t5hmZ6laTqrOU0x0fJ8KEL1MjafEouT5xox9tZLtV1M+wdXTN2TRE9OFT3Rm5uY4sOaI1KHKlieLWpr6pajnqyCZWlE3Lt1Ko2YJNOpSN8G9+Wa6cWolERGlL8yweoVSc4YVGTHDKm3RM6xqdqqDgpWNxVeJ0pql3y9gDSuidOrfZliN7z4J3/3dF7/3/UuKoZesUQw3z92WBURUhpXKSFK1nVQNKiXoSTAun7iGcvVKSVtlWKmC7R2+aSNtFfiaPWyRZEUFB4Tgfx9PQ9fv35PC6YoqwH7rwh3JckpuhlX/Pz+TLC9FFV/PXcQNLXo1kvjRyknrYGVrjTZ9miI0KBTju01KkGF1YK0nAh8HSkaWteG40Z3+91IZVip29/CmrwSk/B88SZBhNeuHhVJ/Sy1KoqjXq15/+fra6rvJwAwrIqK0gRlWRJTqqR+ire2suXFLkxsRUWJ6LlWxyoWljlWhssbV+XR13quOA2s8sGXOLuxdcQjzRi+V1fZMZczsLMGdwxu98PeIxWjdp6n0q5Vna7WrilWTN2L/6iPYOm83Dq3zRO13qsm44pzpn2uJ/j18MQ6tP4pNs3fg+pmbaNazgfQf3Xocty7cRVMtuJUUKxtL1HmnugSrRHzyWLLcOHsbjbrUiatzZUqdV73mzX/vxL6Vhw33ZhnuXr6vjRIRUXrCgBURERERUQrSg0vFKheRLCoVmFEF1lURc8W9QiF88etHUiNKBX+adm8g2U2m3ArlkGLo5uZm+HpaH6mFpav3fk2826+V1MRyyZYRfX/vjUJl4oNiuYvk1PaMVPFyZ9eEQaxBs7+Uwu4qy2rCxh8MX8f4a4MquK6uX61eqPvg23banprOaI5qLSqiokkR9Xe+bKntJVTQ5Jp0+UrkRt33qiNXYTetJzbB+VVw78vfekkdKwsrCzTpWhctP26sjRIRUXrCKYGvkD4lsFixinB1Nf7AQalLVFQkPDy2c0pgGqFPCaxr+EG9cDV3rZcobZnffzanBBKlU/92SuB/paYEtv2sOUpWL6r1vFqJi66nN5wSSESUNjBg9QrpAStK/RiwShsYsKL0gAErovTrTQas2n3eHCWqMWD1bzBgRUSUNjBg9QrpAasWLbohf/5iWi+lJuHhofjrr5EMWKURDFhResCAFVH69aYCVvTfMGBFRJQ2MGD1CnGVwNSPqwSmLQxYUXrAgBVR+sWAVdrEgBURUdrAoutElOYEGH7IXDd9S4Lt5vk72iilVWrZ9v99Mg23L97FwXWeWDFpvTZCRERERERvG2ZYvULMsEr9mGGVtjwvw+rBDR8s/3UdKjUuK+1zHpfQoGNt5C2WS9qUNqmA1Z3L92DvbI+QgBDpK1qpsDymZcywIkq/9Awra3ubBKvmUeoW7B+EmJgYZlgREaVyDFi9QkkFrNZuXCqPFctVR0633Dh7/hSuXLsAR3sn1KvTNG6JYEoZDFilLc8LWF09fQNb5uzCe1+1RmREpASv2n3RIi5gNbHnZPg/eCz7ZuZmeKdvS1TSltdeaZK1Ex0VAwtLc3nMVcQN1bXpHENajUF0dIzs2zrYYuTygbKfHMt+WWu4jtwoV68kIsOjcHijF0IDQ9HqkyYyvnXebuxasl/2laKVC6PHiI6yf/HYFaydthkD/vo87r1hQvdJ8trcKxaS9txRS3HuyEXZV9TS5U271ddagNf2k9ixaB9iYwxv7WbGvg8GtEX+knll/6feU+F395Hsq2XU5d40SV6Afd2fWxAeGoHwkHBp2xnuTXhYBKo2r4gCpfJiQo/fZdn15YZ7oI6ztLLEN9M/RaYcLnL8zx9PlaXQi5QvKO1p/WfD0cURH37fQdoXPC/j4HpPOb96vrrmBh1rwclwzKopG/Hgug869G8jS5kriyauws1ztzF4bj9pLxi3HN4Hzsu+UvudamjxUcJl4N8EBqyI0i89YEVpEwNWRESpGwNWr1BSAasVaxYgJCQIDeq2iAtYHfHci3x5CjFg9QYwYJW2PC9g5X3gHI7tOI12XzSXrBzTgNWaqZskSKSvbvTnd/MkI2v4kgHSVkERxffuI9y//hClaxaXtqKCRz/1mgJLa0t8Pa2P9A1uOQYlaxRF58HvSvufqKBJ4XIFEwSsggNC0KZPUxlXKy+poE7t9tXi2vq1JidgZXr87qUHsGXurgQrOW2bvxvhIRFo1rOhtMd3+w1dhrwrwZ8NM7dh/6ojccfP+mGhTKUctWKQtP+JClipIFXuIjmlHfg4SIKHlZuWl4CVCobFRMdg0KwvJVimAnOHN3hh6IKv5XjTgJXH5uO4e+U+gp4GS8Aq0D8I88cuQ9l6pVC5cTm5Zxtmbke2PFnQsFNtCVi5ZM0AS0sL1DLcu9jYWAmQhTwNwejVg+X8pvdm/+oj2PDXtgT35k1hwIoo/WINq7SJNayIiNIGRktSQHR0tOH/4+OCAQFPtT2jn34bhi4ftZDt26Efa71GgUEB+GvOJHw37DMM+r4Ppv45EbfuXNdGgY+/6ICen7aX7aPP3sHQkX21kXj9vu0ed/4phufrVPBs1tzJ2HdgOyIiIvDkqT9WrJmPRctmaUcYfln+31A8DTBmqkRGRkh71dqF0lYuXTmHXyePlusePWEg9h3cro0QvT6Bj4Ph6OIAG7tnp1+0/bx5giBF/hK546aXKe6VCqFQufxaC3BydZQ+tSnfzvwiLliluBXMDv8HT7TWP7O2tZbHWxfuSkBMMTfTUp0M1LXpwSqdCt4kl+lrU9lVifndewzXHC6wtLKAuXn811Va9mqc6N7kicuWehk5C+WIu1+R4ZHyqCtbt2RcZlc1wy9vqt5YAoa3QvWc7Qv3GO5tNq0TuH/jIUICw1CodD7JjlPXVahMPtw8f1s7AnBwtpfpn8p5w6OaLhgVpd5fjUxfW612VbU9IiIiIiJKixiwSiHhEeG4dsOY2WFrZy+PytxF03HK+xgWzNooW2hYKIaO/FIbhQSHHOwdMey7nzDy+1+RJ08BzJ43RRs1qlS+Omb/sQqzpq2EpYUFun3cWhuBBLGyZsku5+7dox+OeO7D9l3xU6KeBjz7i7jKXNBduRY/9WjztjXIl9f4S6oSFBSAKdMnony5Khg97Hd07NATi5fNxtnzJ7UjiF6Pxz5PkDGzM2wdng1YqeCPyrRRmVEqO+nknrPaiJGaBpeY6tP7VYaWev6wdydiYo/fERYSJv0v48FNH5m2p7bgp8Ewt4h/q1UZXOr8Yzr/IlMXTampb499nsJr20lc9LoiWUKJqemK6vnjPvztmeerf7u+d/zipuAl5rnFeG++azla7o2aPvhvJXUfFZdsGbU9w3tdUvVcDE/buXgfarWtKlMxdWHBYbCytsTqaZvjtpN7zyIqMj4gpV6fyqhTmV3njlxCUZV1ZpIjPKT12OfeGyIiIiIiSlsYsEoBYeGh2LZjnWz7D+5AdHSUNgJ069RHgkk6FXy6dTs+g6pb5z54p01n2Ns7yC9rqkCktfXzi3oWLKCmTcX/IqmCWEMHTpD9OjUbw8bw3Nt3bkpbsbW1lcd7D27jyVOt5k+iX0RV/MrvkQ927d2MsLBQrRc4deYYHBwc5by2NrYoVKAoqlaujWMnnv0lm+hVUdk3D2/6InOuTFpPQirgVKRCQYzf8D2+m9MPxaq8XNFuNYWvWY8GMk1u0N99/9W03ex5s6J0reKyOWRwkGlyOr97/pIJ9P3CbzBodnxwWnErkB1tP2sm0+wuHb8WV6tJN2/0UpgZrkc9f8i8r555fkRYJJ74PEXmnEnfm/UzthprTW34Qe5NKZPpkK9KWFB8gE9dT2IWFhY473lZ6kuZUtlyqh7Z+/3boufIjrJ1GfyuPMYxvDepaZuXDffm0rEr8uesU/Ws1Pvj8+4NERERERGlLQxYpQCVIVW8aOm4zc7WThsB9uzfJllQ+pS9Hbvjg1dGZrCxscXEX76X6Xxmhv8+6/2tNmZ08MjuuOffu38Hc2es1UaAhUv/ihtTW2RUwl8gLSwspQj8rj2bZHv69NmMKxW/WrthCdq16ogok2Db48ePJLjVd0C3uO3i5bMS3CJ6HVSw6vKJ6xJEUnWU9MLqzpmc5FG1VdDCMYODtBXPrSe0veSzd4r/N/rENwCxhnMmV0RYhDyqqYRZcmWW/RhVAD0JG2cap9Canr9KswroOLA9Wn3cGMWqFNF6jVQhcpWFpJs24G9tz+jW+TuSdZY40KVTGU0qgKY7uM5T23t1TLO2zh6+8EyWlcfmY2jUuY68d5gGx1WtKitrK8Of79W4jLSj205g19IDsq+oo4tVLoJr3jeRs7Cb8TjtFOGh4RIM080YPE/bIyJKWftWHpYPT25duCNttfrpmmmbsGf5wbjvEURERPTPGLBKAaqGVcECRVG7ZiNkypQ1QQ2r+YumI3/eQnFTAuvVNhZmTuzT3t+iywe9ERQciEnTxsov5boaVevFPd8tRy4JTOnUNL6uHT+JG7cwj/+FTsTGSmZU2dKVZMuQIX46j+7hw/u4//AeatVoaEy30qhAmo21DSaMmhq3fT9wAvp89I12BNGrdWKXNy54XoKZ4Z1LFVpf9ss67Fi0V/497F99GA9u+qJai4o4vuu0TOlT08Naf2xcnW9s11/l8Z+oQNPK3zfgh/YTMLTNWFlB7+7VB/jl0+QVZtVrWJlKXEtqcKsxMn1NFYNXAaZ1f27VRl6sbN1SCA0Ow/dtx+G7FqMlW0oZ9cHP2LfqMNbN2IoKDcpIX1Kqt6wkBev1e9PmU+P7TXLvTVKsbKy0PaNqLStibJdfMOXrWVj68xp8+INxBUBdZEQUStYoprXiZcyaAbXaV4XnlhNY8tNqyZi6fOIaCpcroB1hpF6zWuVQ1a9SVK0upWT1YoiKjMJQdW9ajkbOgjmkf+T7P8kjEVFKMv05TZGVW1OJS8evyhYaFCYBNL2t110kIiJKLbhK4Cv0vFUCAwOfonGD1nGrBG7ftQGlipeTVQI/7N0KLZu9iw/e7SHH9+zTTrKg5s/cIG01Da9A/iLIl8c49eXK1QuY+OsP+GX8TDg5ZZCi6+XKVManvY0roCkqYKWCU4n39x7Yhr/+niRf96MPv5Rr2bpjHSqWqypT+UJCgrFjz0aEh4eh8/vGFfT69OuIvLkLSHZVUfeSmDX3d7hkzIT2bTrj6rWLGPfzEIwfOVXqZClLV85BwfzuqFg+4XSf1IKrBKYtiVcJ3Llon0wbK1YlfsVAnaqLVLVFRRRPlJWUFBXYuHTsquxnyOwsRcRfFVW3SilUNr+sEqgXDS9e9dlrTmv016ay21Sxer1t62Abt0pgnXero3KTcggJDE2QqZZcKqNNZcpZWJojs1smOGSIr/mXVnGVQKL0K6lVAlWG1d2r91G9VWVZvVZlWB1c64lsebMY+irJBxtjuvwiq6OqTFNV8kGt7FrX8P6pqPdAFbiPjoqWY9WHG2qRDX3BjqnfzI7L3tJValwO737VSmsZV03VWVhaYNy6oVoLWPbLWpmCXqFhGXmvPbLxGB7d95fvoTnyZ8P4bpPQ6bv2hmvPLR8yTPlqphz//oC28nz1wcemWTuQIUsGw3t9CLLny4YO37SGpVV8BnBqx1UCiYjSBmZYpQDTaSqKk6Nx+pJSzL0UNmxegfE/D0H3T9rivfbd5AeXXyYbf9BQQaRpM37CwqUzJRg0d9EfElxSwSqdmob31cAecasBqowtU59+1Qkjxw+QYu25c+XDYY+9mD7zfzLmYK9PDzKLm1pjptJXNOaG/cyZs0qwyig+U0TVy6pbqzEmTRuHZSvnYvqs/+H4SQ8JzBG9TnmK5pRfAvTNNfuzmYEvon6oVgEktb3KYJWin1f9kqGCLXo7PdBfiwpWmbb1TC9Fn+X3b4JVSsYsznI+9YtSeghWEdHbSQXyg54EydTop34BsLGPz77dvmCvBKtUzb0JG39AleYVsHn2Dm1UTYc+idzuOfHFr73wycRu6DbsfXmO6aqsKrCknq82VXdRTaHWqUU98pXIHTeuglILxi7XRlWy/LOfVZsugmE4Qv6nqOzdEtXiv4epBTLWTN2Mlh83Rp8fu6Hv7x8jIjQce1ce1o4gIiJ6dRiwes2yZM6GvFp2lK5QwWKGX5iN02hUQXSVATV4wDjM+XMNmjVuK+1vvjQuz66yr/p9NsTwnKKSZfXRh30lO0o3Y8oy/Pbj37JN+mmOPHf0sEnaKKT9x2+LMHzwz5g7Y51kQ82cugJ9evWXcRUwM5U1c3bkcsujtYBpvy1E7+79tBbwUbcvJbtKp6Ybqj4VCKtaqTbGDp+MHNlzaaNEr17iRQF0eh0rIiKiN01NtbvodTVuUzUIdY261JFAkqqxeGSTl9TwM9Xkw3po9XETybS6ffEuTh84h/wl88DiORlMgY8TrkarFvX49KceUjPwyEYvZMrhigD/QG00/vvojbO3cPXUDdlXQS1TKl6lMl6Pbjkui2Lobl+6Z7gOC6nR6HPbT66xaOUiuHIyfsEgIiKiV4UBq9esTs1GsulZRyWKlYnrS+7qYznd8qBKxZqoUqkW8uVNGPz6L9S1qLpaarO2tkbGDK5x7ZdRIF9hVKtSR2pgWVqmnXRwSnsadKqNJt3qPxO0cnJxxLv9WiVrOiC9Pt/+9blMSyEietupLNtSNYvFbTZ28RlWHpuOyZS9LX/vxInd3jh76II2kpDKWtq5ZD9CA8OkBqFpPURVb0qdQ22qbmOtdlW1EWDemGXSv3+1B07tO5tk/azHPk9kRVq1qWCWeaLZAOr77I6Fe9CoS90E9bhU3St1Heumb4nbzhw8DwuTgBkREdGrwu8uRERERESvkJo6p4JUauEIO0dbhIfEZ1jtWLQPuYu4YdiSAZIJVaTCsx9GRkVGo/2XLdB9+AcoV68U5o9djie+8Yv2mE4JHG44z94Vh7QRSACszafNMGDGZzKlUK2imphL1oxyXrU5uzpJvSxTqu3/8KnUuTLl4Gwv19b1+/fQa2wX2XqM7CiPRERErxoDVkREREREr1DiAuRqGp1OZSyZTuHbtWS/tmekVqpV0/litMwolUWsVpxOWGfqxcy0bCzPLcdlPzo6/rl6DSvX7C7IkiuT7MeYjBueLQuZNO5SR2vFZ3ap2lrqfGcOXpB5gyqwtW3+Hqyeukk7goiI6NXhKoGvkL5KYJEipZEhQ8J6BJQ6REVF4sSJfciaNRuGDR+h9VJqlXiVQKK0iKsEEqVfz1sl8NGDx6jQoDTyFDWuEui1/SQyZskgqwR6bjmB9TO2SuBHTdd7p18rrJy0HpbWlhi7Zogcv2baZjmXlY0V/O/7o0LDsmjcta70JbVKYOlaJdB58DuyP+O7eTLVT03rU4tkqCwqlYHlVjA7+k3++B9XCZzQfRIKly+Id/q2lPPtWXYQD2/5xq0SeN7zMjbN2g57Z3spBK8Cau0Nx2ZIQ7UkuUogEVHawIDVK6QHrNzdyyFjRgasUqPo6Eh4ee1GtmzZ8cOw4VovpVYMWFF6wIAVUfqVVMDq8olr8qimBOoBK1X7SVEr26r6Vm+Sfn25CrtJwOrmeWPwyzGjgwSs3gYMWBERpQ0MWL1CesCqY8evJGhFqU9oaDAmTvwMZcuWR6/evbVeSq2SClhFhEdi/uhlCHoaDHsne/je8UPZuiXRvGdDGVe+bzfeuPy3msVgeIdr93lz+eRYUYVqVZFYVU9En5KhplqoT52VsV1+TbCaklK7fTW06GVcjEA9f9XvG2BuaQFV+12t/KTqjOQuklPGF05YiWy5M6NhZ+NUii1zd8HvziN0GfqetOntw4AVUfqVVMCKUj8GrIiI0gbWsCKiNOXELm84ZLTHl5N6ofe4LujzYzccXOsJv3v+Mr7813VSU0OK0W4chuJVi2DT3ztlTFHTIjJmzSDP/+K3j1CzXRVtJF6xKkXiitnWbFMF+1Yd1kaADX9tQ5EKheTrqmK2Jaq6Y9OsHdpoQte8b8Jr20m0/LiJ1kNERERERETJwYAVEaUpVZqVxwcD2uHRvce4c8lYFyRH/qxxtTPe+7o1xq//XgrWHlp/FNnzZUN4SPwKSRaWFrL8tl6Q9p+obCt7ZzutBVw/cwslaxSV2iBqK1bVHXev3Efw0xDtCCM9k6vVJ02QMYuz1ktERERERETJwYAVEaVJZw6dl6XBfW77oXrrylKYVtm97CAGNR+FXUsO4MzB87h96a7062q2rYIHN3zw62fTMbnfX9hvkj2lO+9xSc6htisnr6NGq8raiHF1JXun+ACWnYONrNwUERa/ZPnZwxfjCuYWr8raW0RERERERC+LASt6a126dFHbe3lPnz7B3j27sWLFcmzdugW3b9/WRiglqOW363Woie4jPkD992th7R9bJPNJ2TJnJ0rVKIbBc/vh4wkfIrObcclunSoo616pMLLmzoze47qiVvtq2kg80ymBzXo0wPaFe7URSFaVaTZVSEAoLK0sYOtgq/UAJaq5y5RBNfUw8XLlRERERERE9M8YsKK31uTfJ2H4sO9fKnAVEhKCn36cgKFDBmP//n148tgfZ7xP48eJ4zHw2/64evWKdiS9LipzSRUyV3WqFDsnO5ibmyEm2thOzPvAOW3P6OKxK/DYdAytP2maIMj0PPrX0RUuVwDeB8/LUuQxMTE4bTh/gdJ5YeeY8FwqsNW8RwPsX30kbgUmIiIiIiIiSh4GrFLA7n1b8dNvwzF87DeYNuMnnD13UhuhN2nS71NQsVLlZAeunjx5gsHfDYSrqytmzJiBiRMn4uuvv8aIESMwZ84ctGjRAr/+8j8cPeqpPYNeh3odakh9qKnfzMafg+Zi5tAFKFevFAqWyS/jDTvVloDSdy1Gy5S+pt0bSP+Q1mMR9CQYqydvlBX/nFwdpT8pplMCVYCsusmUQPVclc31x7dz8MeAOVK/qsVHjbXRhLLmyYJ679fExlnbJSuMiIiIiIiIkscsIDA4Vtun/8jT0wPz5s5Bx45fwd29nPR5HN2P+UtmoG3L95E3TyEcO3EYp88cwxd9voNb9lw4efqoHJeUsqVf7/LIZ8+fQmSkse5O8aJlEBIahBs3r0r7dX/tNyU0NBgTJ36GsmXLo1fv3tKnsmQ2btyAbVu3SDCqc5euKFLk2bpDKljl5OSE8ePHaz3POnHiBH777TeMHTcBGTJk0Hrp3zrj7Y3p06ehbvcGKFyNtaAobZrffzbCg8Mxeco0rYeI0ou7d+9g/LixKN+yEiq0Sp8/O6VHiwfPR5B/IKZM/UPrISKi1IgZVq+ZCkiVLlkBDeu1ROGCRdGy6buwMLfAKW8vGb96/RKOHjuIfQe2y6aOV4/R2vSmv+dPxdKVc2Rf+WvOJHz8RQetBfj4PsDYH7/DkOFfYMTY/ug3sAe8jh/SRoF1m5ahy0ct0LVXS3n86LN3tBEjFVALCHiitYAr1y7g3IXTWgv4tF9HPA14LPu+fg/w3bDPsGrtQmkrm7etRq/P35UMsoHf98GsuZMlAJSWmJubo1Wr1i/MuPLyOoqIiIgXBquUcuXKIWPGjFi0cL7WQ0REREREREQviwGr1+z+w7vIkS2n1gLs7e2RLZsbHjyIX7nM1tYOTRq2ka1EsTKIjIrURozUqmTKhUtn8PDhPdnXLV4+G/nyFsSY4b9j+JCf0aZFByxcOksbBVauWYCG9Vpg/swNWDBrI8LDw7BiTXwwJTgkWNuLFxsbH3BS16J9eaxevwSlS5Q3Ngzu3L2J5avn44dBP+Lbr0Zi/MipuHHzCg4c3qkdkba8KHC1Z89uNGrUSDvyxQYNGoRz5xLWTSIiIqL0KzYmBtGR0dzSyAbOLyEiShM4JfAVSmpK4ODhn6Ne7aZo3KCVtJWZcyYhKioKfXr1x8q1CxESEiTBqqxZsuHosUPYvmuDtCuUqyoZVnZ29vjg3R4Y99NgtGvdCb9OHo0ZU5bJuT7p+wG++fIHuBcuIe3Q0BBYWFjA2tpG2rqtO9YhJiYaK1bPR41q9dHzwy9kSuCBQztRzL0U7O0d5Lgbt65KJlGnDh9JW2VP/TzuLzx4cAer1i1Cjuw5kcHZBe3bdMbOPZuw/+BOdO/ymRyreHjtx5Onj/FJz6+1ntTFdEqguh8vogKFDx8+gI+Pj7RVIKp48eKy/yIqw6xHjx4oWbKUBMFeJ0srS5QrV1629IhTAik94JRAovRrwYJ5OHL4MLLkzYos+bJqvZTaXT5yEZHhkejWvQcqVYqvU0lERKkLM6xeMxU4iogI11rGYIYKCCUOKBmZaY8JqdXG9h/aiSyZs8HJ0VnrNYqKioSDfXzxaBXcMj23mqanpgIe8dwnAarYxB8pGc6tMqUuXT4nW1hY2DNXYThEAmvvtOmCaJPC0SGhKjsr1jC2IG5T5woKCjAekMpldHF54eacIUNcwEn9GSR3qqN+nJoamNR5X+VmbWWNBfPnSSaYPo2UiIiIUkbWrNnk0crWCvYZ7GWzc7bHwzt+OLn/HM56XIL34Qu4dvYWLG3ij+H2Zjcz7ec7txxu8khERKkTM6xeoaQyrNSqgCqI1KPr59JWGVA/TRqO8mWrSD2rhBlW2aWeVeIMKyenDDh4eJdMvVNBolHjv43LsOrTryO+7DMIJYqVlfaDh/cQERmOPLmMK6apYJWaCqhTtaxUxlfiDKt8eQvJuOexA4gID0en93tJW2VYfdipjwSzenXvi5lzfoerSybJsNp7YDu27liLcSOmyLGKCta87qyi/yKpouuJhRte//JlS3HkyGHkzZsXXbp2w9Ili1GoUEHDn21H7ajn8/DwwB9/TMfkKVO1ntfvl//9BEtLS/Ttlzoz2/4tZlhResAMK6L0K6mi6xe9rmDFpPVo9XETFK1UCAH+QVj/51bkLJQDjbvWlWMiwiJw3uMynj4KgHMmJxSv4g5rWysZO3PoAnIVdkPGLPEfUqo+pWT1ovKot00lHtPbEWGRuHTcuKiO3ue55ThuX7wLKxsrtO7TVPqS44LnZfg/fAIHZ3uUqlkMT/wCpE+pblJ0fufi/Xh03x+u2TOiYac6Wm/qwaLrRERpAzOsXrNSJctLgfXjJz3w5Ik/DnnsQXBwIEoWNwa0kpYwx8nczAx1azeBq2vmxEMoU6oCDnvslSwuNcXt+CkPTJ/5P200odXrF8PO1l6ysnR6Davs2XLC2dm4qp1pFpbK4NmybQ3eadtZ2irTSKfqbfk98olb6TAsLBRTZ/yINRuWSDutUYEqla3U/5uvcP/+PQz9fhi+HfgdcuTIgQYNGmLHjh3akS+2Z88elClbRmuljE/6fIZLly4l+LMlIiKilHf9zC0JTpWopoJQ1sjs5oqydUuiZI1iMh4aFIa/Bs/Hec9LiI2JhfeB85j1w0KEhxpXbl71+wZ5NPXghg+ue9/UWsCxHackCKVviyas1EaAR/f84bX9pNYCdizaa/ga5+R6lPljlmGl4WtERUXD57YfBjUfJf3Jdedywnqqjx8+QaB/oNYChrQeKwExC0sLHFrvhe/bvXjBGiIioudhwOo1q16lDurWaoI16xdj4q8/4LDnXrRp8QHy5SmoHfEsPXCkO3r8EFo0aa+1ACtra20P6PjeRwgKDsKIcf0xbMw3OOKxF906faqNAjndckuWldrOnT+FkiXKYt/BHXFBLQetdpUpM7P4vxbqa1WrWgcuGTNpPfEyZ8qKbp0/xcKlf2HkuAGS+WVna4fmJteaFrwoUKUrVbq0TMGbPHmy1pO0ffv2ScH1zp27aD0pw8HBQYKJAQHxPzASERFRynvi9xQZMjlJwEZXrl4puBUwTh/02HwM1nbW+ODbdqjzbnV0HfqeZCydTSJrKimqxqb/g8coW6ck2n/RAlWbV9BGnnX5xDWc3HMGLXs3jvvQUQXR6r5XA+/3b4teY7tIZvzKSetlLDkCHhl/1ggPjS95oTu67QSKVSmCwXP74Z2+LTFscX+pFUVERPRvcErgK5TUlMB/cu7CaXlUwR81JVBvK8WLltb2Xg/Tr1WoQFGEhAbh3v070n7dX/tNMZ0S2PXDD5+Z+mcapEosNDQUP3w/BLlz58YXX3whNap0qn7UkiVLsG3bNnz++Zcolozi7K/aF59/ilGjx8LV1VXrSfs4JZDSA04JJEq/kpoSqLKdHDI6oM1zptotHL8CLlkzovlHDbWehMZ2+QVNutWHuYU5subOLNMDdyzah9DAULT6pIlkYv340WR8/ktPuGZ3wb1rDzDlq1kYt26oPH/vikO4fvYWilUugn2rDqN1nyZwr2As/aBbNXmjPC8qIkoyskrWLCYBrH+ipv+dPnAO2U0KzAf6B8HSykKuWVFBq/Mel/DENwDRUdGSHTZx0zAZSy04JZCIKG1ghtUbpgJDalPBKtN2SgSMTL+WtbU1MmZwTbGvnRq8KKMqKXZ2dpg48SdY29igX79+6N69O4YNG4ZvvvkGPXv2xLFjx/HDsBFvJFhFREREqYOdo60EqU2prCRVt0pRQRwVjHqRiNAIBD8NkcDSrqUHtF6jp74BiIqMQobMCTPyE1PT9NRxUREJF2X5rsVo3Dx/G+XrlcJXUz+BmXmiehPJoAJd+mZKTQVc8dt6wz2wQ5VmFfD1tD7aCBER0ctjwIreWskNVJmysLTEp59+jv/98hs+/rgPKlSoiBYtW2H0mHEYOWo0smUzpvsTERHR20llH92//hBP/eJXTT575CLmj10u+5lyuOLR/ceyr1N1pg5tMNYEVYpXK4pa7aqiRuvKuKwVTNfdvXofOfJlM/xM8uIf4xt2roOm3epj48xtCAsO03qNUwpVIKm64dyKXjsrucKCw+U11GhTGWXrltJ6ja6evinZVu993RpVmpXH0W3xtbSIiIheFgNW9NZ6mUBVYjY2NlLXqn6DhqhcuQpcXFy0EUoJ6lPnq6dvJNhunjdOZyUiInqTSlQvCjsnW5nGp+pSqZpVHpuOoZwW3FEF2C+fuCqF0/3uPsLhDUcNmxeKVSos40pIYIis4nfe8zLcChiz8BVVu+r0/nMoXK6A1vNiqnZWjvzZsH3BXq3HaNv83RJMmv7tHFmlMOixcRGe5IiNjZFHK2urZxYDUqsCRkVGy7TAo1tPxBWQV20iIqKXxYAVEaU5YSHh2LFwL/YsOyibqtdBRESUGji7Okn9KjU10GvHKVz3viXF1cs3MJZcUCsIdv2+Ay6fvC6r9d26eBcf/tABLtmMtTELlyuIA6s94LH5OAqUyotWHzeRfmXNtM2wsrFC9dbGelk6FQQzZe9op+0BzXo2lJUJVQF2pUHHWti/6gg2zNiKolWKSAF2FRxbMG6FjP+TTNmfXyuzyYf1JJi2Zupm7F15COM3fC+rE26albyVlomIiEyx6Por9G+KrlPKMi263qt3b603fXibiq6rH6xXTt6Ad/u1klWPts7bbfgBvDbyFssl4+qT3CuGXwTUNId8xXPLD+M6VYA2KZZWlqiuFcw9uM4T107fUEtmokj5AlKHI7med/7a7atpe4bXdegC7l97CGtbKxSpUFA+/dapaRsndntrLaOcBXMgj/ba/klwQIgsX67qpWTMmhFlahWHjb2NNgpZ/lwV2DVVqUk5ef2K751HstR6eEg4suXLilI1isWtLKW/NpUl4OTqKJ+ehxquVxUEVr9Uqfuujq3YqKwcp3+iXqmx9n5o+G5z9fR1PPZ5KlNSdHHj6RSLrhOlX0kVXafUj0XXiYjSBvOrV69i69YtUI9Eb4vgkGD+vX8DXtX7TXBAKOyd7KSoq6Ivsa2oKQ6q4KtapjtLrkzY/PfOuLohigoI6ZtauUjf162eugnrpm9BhszOcDB8DVXw9sCaI9roPzM9p9rUp9qqQK5Onf/w+qNwzWH8JH3m0AUSRNKp6Y7qE/mnhtektiObjmkjRoOaj8K80Utl+/3LGdJWgSNFZZ79Zfgh3Of2I2TNnQV3Lt3DnJFLpOiuLuBREK6fuRV3/gtHr2gjkCK80wb8LdM5Mrm5wstwL9cYrlf3xPepBLJM3bv6QNsDTuw+o+0BQU+D5RN8NQ1Gt2jiSmxfuE/uSURYpAQVHz98oo2mf3y/SVmv6v2GXh7vPb1t+Hf+zeG9f3N479+ct+nem1+5chkxMbFQj0Rvi5DgYP69fwNe1ftN8NNgOGZwgI2dtdYTT9X3qNCgNN4f0BYtPmqEmm2r4MzB89ooUKN1FVRvVTku2FWiWlHpK1O7hLRtbK1lv3Wfpmjft6UsKa7qhSRXdFSMrNyksrLUeS0sLeKyiXxu+0nNknZftjBcYxmZIlKhYRkc2Rgf1FFBJHMzMym2W7NNFa03oQ9/eF+2vpM/lnbQE2PtEa9tJ2DvbIdWHzeW6SFtPm0mGVfnjlyScSXgUYAE41QhXjUtJTbGWItEUTVUKjYqg/rv10T5+qXR7osWEjzzS5SRpajAmhIZHimPOv21qqmalZuWl30l1vDnfvbwRTTqUieukPDbhu83KetVvd/Qy+O9p7cN/86/Obz3bw7v/ZvzNt1780KFCsPc3AzqkehtYe/gwL/3b8Crer9RGVVqSpqtg63WE0/Vz3DI4IBf+vyBcV1/xUmTrB/FIYO94XnxU+QU1ac2pflHDSXI9GOvKRhreL4K+KggVHJFRxmzmVTtEp0++00FrBwzOiBjFmdjh4Fa6enhLR+tBck4ypgtIxycjdeTlGW/rJVt+sA5kmlW7/2a0v/ghi+y5sqMjTO3Y8Nf27D57x3G8980nj86OsZ4/qxJL4WuVrVSgSX1XLUdXOthuNYMMk3Q1NHtJ+Gx5TgCnwRLLZWEzOQ8qhC+Xo9FUcumqwDZBc/LuHftgRzztuH7Tcp6Ve839PJ47+ltw7/zbw7v/ZvDe//mvE333rxgwYJo0qQp1CPR28LB3oF/79+AV/F+ExkRJRk/rtldZOnsxP4cNBf7Vx+R5bobda0n9ZlexpDWY2VqnKp7NXT+15KN9CqpGk96TShFBXJMyjnh4S1fZMmZSWslTQWpnFwcZQsJDJXMKEWymwznzu2eM24rXs0dWfNkkfGI0AgJmqmpkklRz1f1tEyf37hrXUSbTClU1FLq+paY+ua5fcEeNO5SN0H2ltJ58DuwsrHE2mmbcWCNh9b79uD7Tcp6Fe839O/w3tPbhn/n3xze+zeH9/7NeZvuPVcJJKI0RRVcv3vlPnLky6r1JHTN+yaqNq8gW6XGZXHn8j1tJHmio6IxcNaXqKwFunxu+crjq6CW+1bTGVWhcp0KvukBKhV8UnWn3ArGL2GelJa9G6NZjwboPPhdOLo44Piu09Kf2XAetUS6mtKob67ZMsZNd1T3Tr2+bFoAKzGVneV7xy/B81UAq2SNYtoRRuXrlZbpimoVKhVANGVhZQFzCwsUq1JEgmemVI2t/as9ZLrle1+31nqJiIiIiIiexYAVEaUZKitH1aNSS2bfu/ZQ2qqAuArwqGDMOY9LcM7khDOHL8jxqsC56dS85Jo3epk8/jVkAfKXzIunfvFF0/8NlUWluBXIjgKl82H7/D1SrFzVdPLcclzqRilnD12QLKfQwFAppH7e8HoUlXWlirnrDqz1wKF1ntgyZyeCHgejoOGcSrl6JWWqnVrNT51fFaCfN2aZ9Mn5PC+jYJn8uHTsqrTDgsIM12aOE7uMqxJWaFRWllE/ufeMBAV3LtmPheNXICpRUEpR0yaNjwm/jahC640615F903BVTHQMVk/ZhIada8vUQCIiIiIiohdhwCoFhIWH4ez5U/h26Md48PAuIiMTFikmouRRK9RZWllKACjAPzBuU3Wh9JX21DQ+p4yOGPXBz4iJipYspFxF3PB7379k3JSzq6O2F++dfq1w7+p9qV9VqEw+lKlTUmplqamGyZHZzVXbi2dtY6ntAZ0GtoeTqxN2Lt6Hc0cuoN3nzVGqZnEZO7zRS67V545f3FakQkHsXn5QxpU8RXPh1N6zOLHnDG5fvCfZSk2715cxVW+q97iueOLzFDsW7cXdK/fQdeh7kiWlanGZGd7xY2JiEpw/a57MuOhlXCmwWOXC+MBwfVdOXJdgVURYBHqM7AhLa+P1Wz9TrwqSwaXLkT8rCpXNj2x5jRlcaqZj3uK5ZX/L3F3IWSg7arevJm1F/bkREaVHapVVteKqWql246ztsjqqKbXq6t6Vh7Bh5nYc3nAU4aER2ghw5dR17DG87yfevA8YFxA5tP6obDpVG9C0rdw8fwfbF+7Fptk7cGK38UMJ5dS+s0meW236AiXq2tX1qlVqV0/ZGPc9wpRaQXb6wLlYNGGl1mOk6heqafmP7hsX61AfeKj2wbWe0lZMr1W9btU+d+SitA+t94y7V6pP1VNUi5UQEdHbySwgMNikegr9F56eHpg3dw46dvwK7u7G6UR79m/DoSO7oZbYf+BzH5kzZYGjgzMa1G2GUiWMK2gFBgXg5OmjCAkJRo7sOVGyeDk5XgW57j+4I8ckpsbr12km+/cf3MX5i6cRHR2NAvkKo2ABd+mnZ4WGBmPixM9Qtmx59OrdW+tNH774/FOMGj0Wrq7PBkzSqjPe3pg+fRrqdm+AwtXcsXPRPkRGRKJJt/oJ6kAFPg7C8l/XoWqLiiiupqKlUZP7zUS3Ye9LlphOFUn/a+gCfPh9B2R/zjTI5FC/jKjgXutPmmo9Rmo64bnDF9Fl6HtaD71q8/vPRnhwOCZPmab1EFF6cffuHYwfNxblW1ZChVaVtF5gcKsxUmtRfSihgkfb5u/GuHVDJTtVZe1O/3YOytUvLRmnl49flQ8Qeo7qJB/KqIDV8Z2nE3wgoGTLmxWlahbDuj+3Sr1ANT1cLZQx5euZeHT/CUYs+1aOUwGqLXN2oVa7KrCxt4HX9pPIbniuWvlVBax8b/vJcWpKt/oAyFLLmFXfY9QU8EHNR8lKtgXL5JMVdeeOWiLPVVPtle/bjkPGrBlRvn4pmYZ/+cQ1TNw0TMZUwGq94fq6fv8eMuVwlYDVookrUbB0ftRoY1wddkznX/D9wm9kX314c+vCXVRpVh7Fq7pjRIcfMWh2X2MQboMn6r5bAwfXH0XRSoUSfODxXy0ePB9Bhu+JU6b+ofUQEVFqxAyr1+js+ZNYsnw2alVvgNbNO0jf570HIneufFi2ah6ePn2Mu/duYfiYr3HzlsoOicW6Tcsxa+5kOVZ59MgnbrthOEY9+hk2nafXAYz96Ts5V3h4GKbM+BEbtyT8tIuIiIiIUo6aBv31tE8k67RBx1qySIaaiq1IACl/NlnUokQ1d7T6pIlkxqrAjy4yPFJWdFUfxNRoU0U2dS6dvljH4Y1HkbdY7vgOg/1rjsjqsTXbVkWlxuXQ4qNGEghTipQvKOdSC5KoYJei9lWfmjKuU5myFRqWQfGqRfDeV60la1enjh0w4zPU/6AWeo3tIn36a1NUdu6LyAIhBuo1n95/TuobJqZWo639TnWUqF4Udd+rnuD8RET09mDA6jW6eu0i8uUthOpV62k9BmZAzWr18cjfF9duXMaW7WtRzL0UunzwMZo0bINPe/XHYc+9uHHzKrJnc0PD+i1lc3BwMjzVTM7VyNAuU6qinG795uVo0+J9tGvdCS2bvYuuhvNs2LxCpv0QpTc5CmZHHvWDeRLUD/VpnT61LzH1Cf1/pT7FL1b52ewz9UtUFe1TcyIienX0IJGi3oNVPUHl4U1fmZKuptupbd30LZI95XPLmPmkqOmEio2dtdRi1DedyjFWC3XsWLQf1VtVQoxJwMr//uMEi3eoqeQqKKaYnidWJm4bJT6/qhWpy100JwL9g7SWcer75K9mSjbUD+0nSJ8ehHoZasqiypoyrZOopp4f2nAUj+49iptir7LDfO88kn0iInq7MGD1GkXHxMDKyirxQlmwtLSULSYmGtdvXkH+fIW1ESBjBldkcs2Ce/dvyaPanJ0yaKNGer/y4ME9FDKZAliwQBEEBQfCx/e+1kOUfqjpfmoznQ6oqKCLPpaWqV8QTKcDKi7ZMkr/f5kOqKhzmP4ContePxER/XuJv0+pph7TUQ82djZwr1Q4blNZTllyZzYekAxmFmbYtWQ/GnxQ0/Dz5MsHi/6JeaIFNUytmLQe+YrlxohlAzF61Xdab/KpaYhqKuFjn6eSxRWb6ENWl6wZ5F6pLDVFlcEgIqK3E78DvEZ58xTAnbs3cev2da3H6NLlc7C1sUWunHklaKWCVzr1A46FhYUEu5JDfTpm+nwLc2MdguQ+n4iIiIhercQZRw9u+sZ98JA1d2b43PaL+6BFbSq7yb1CQRlPDlV36vqZm6jWstIzH4yqDz5UFpfu/rWHWPvHZq2VPHcvx3/wqTLDEi+SoWds/Rsq80zVpGzcpa6xw+QFRIRHSjZwhszO8H/wWPpUAXcVxCIiorcPA1avUekS5VG5Yk3M+Ps3eB4zrvK1YvV8bNy6Sqb/ZcvqZthywNfPmCKuqBUFnwY8QZZMycumcHQw/FDi80BrAQ99H0jAK7OWgUVEREREKcvC0hwLxi2XRUG8D56XBTQqNzUuyFO+fmncvnRXVglUBdkPrPHAkh9XIeBRoIwr5hYv/hH94W0/NOpcVzsuYcSqWouK2LV4n9SHunTsKrYt2IOw4GfrRKlSE8/jufUEHtzwgf+DJ1j1+0bUebe6NmKkFvJQ1/1dy9HSVtlSOlXo/ea5O1I4Xl2DTrUVG1truOZwQb4Sxin+iQNuSrl6JeG1/RRuXbiDI5uPoUzdktoIERG9TRiweo0sLa3wXvsP0a3zpyhcqJj0qRUAP+n5ddwKf9Uq18XBw7tx/qK3BK42blmB7Fnd4F4ked+Ya1ZvgG0710kml1pRcNOWlahVvSFsbOLrEBARERFRylHT9Jr3bIi1f2zBiV2n0X/6p3E1rTLlcMHHEz5E8JMQHFrvKSu49hzdWaaA67Llef70QFXnKWuuzChaOb6kRPWW8SsUqqwrtYLglZPXZcXAgqXz4b2vW2uj8SytLWS1waS0/6IFju04hZW/r0ezHvUTrNCn9g9v8MKZQ+cxYcMPaNipDi56XdFGgaIVC0vNKX3Llicrbl28g6goY12uYlWKGJ5TW/aVwuXiM8uqNjfWo6zWsrIcd3CdJ7LlzoImXU3qwRIR0VvDLCAw+NVPfH9LeXp6YN7cOejY8Su4uxs/RdOdO38KO3ZvRNdOn8AlYyat1+jgkd044rkPoaEhyJM7vxRPd3WJ/0ElMjICW3esw+Mn/qhbq7GsMqhTUwo3b1sD77PHJf28aJGS8nwrK2vtCDIVGhqMiRM/Q9my5dGrd2+tN3344vNPMWr0WLi6GouUpgdnvL0xffo01O3eAIWrGWu1eR84J1MpGnQ0/rCrPrU+bvhlQP1g61Yge4KVjEypXxTqvldD9lXtjHNHLiI8JFymaFRpVsHwg7vxF4lTe8/A9+6zxV3VD/z5S+aV/dP7zso51JtnvuK5Ua5eKelX5o9Zpu0B5pYWyFMkJ2q1r6r10Ntofv/ZCA8Ox+Qp07QeIkov7t69g/HjxqJ8y0qo0Co+aKQyj1QwJy0a1HwUvpn+KbLleTXZ+tFRMVj2yxpZhbByk4Q/H78piwfPR5B/IKZM/UPrISKi1IgZVimkeLEy6PvZkGeCVUqNqvXQv+9wfD9oIj7s1CdBsEpRwSdZAbDjxwmCVYq5uQVaNH0H3/Ufi8EDxslqgQxWUXp33uOStmdcZejUvrNayxiY0jc1nUHf1509fEGmaeQokA1l6pTErYt3sfjHVdqokZoCoYq8mp5Lt3PJfpnGUaRCQRStWAgH13pg2/w92ihw5tAFuGZ3kc3B2Q4bZm7D38MXa6NERESp3/MnCxIREaUcBqyIKM3Ra9leO30DT3wDEBYSX5ujRuvKssS3vZOdtPMWzy19alM8Nh+X6RIVGpRBobL50bR7A1w+cU2CWzo1PUMtCa4/T225CrvJ2KG1njL9oXhVd8nqqt+xNjy3HEe0NtVBUcViW/RqhLafNUf+knlw/0Z8nToiIkr/0mp2lTJx0zBkfUXZVYqq59VxYPtUk11FRERpBwNWRJT2aB/9quyqxl3qIDoiPlhkZWNl+OHYuFqmTvWpTfG97ZegNoizqxNsHWzjViMypT/P9PkhQaFxKz0parWn0OAwKayrU9MW/xjwNyZ9OQP3rj5Ao051tBEiIkpP7Ozs5THApOg4pX7hhu/bKpOaiIhSN75Tv0I2NjbyGBwcII+U+oSHh8qjrS2L0qdlqkis1/aTyJwzE/KVyIOYRMuHv4iZ4QfUhIcbG2bPKTyblATPNzTUM81MljkqVbM4yjcoIytBKYfWH5VHIiJKX1TdSCsrK1zxvIQAX/78lxac33cWkeGRKF6yhNZDRESpFYuuv0KhoaH4dsA3cHLKiP79J2m9lJosWTIJFy4cx+dffIlixYprvenD21R0/eC6o5LR1GdiNzi5OmLUBz+j17guUnRdUdPz1OpGl45fRY02VZC/RB7pV+aNXors+bKhcde60n503x+TvvwLX/7WC1lyZZKi60e3n0RNw/OKVopfgUk37sPf0ObTZiihX8/B89j41zYM+ruvBK1UsdpWHzdBzbZVZHzXkv3YOm+3TLGgtxOLrhOlb6dOncRfM/6U/Tyl88HRxVH2KfXxuf4Qfrd8Jbvqx59+hq2tsXwAERGlTgxYvWLz58+Dx5HDcHTMgDp12sLBwUkboTcpKioSR45sw71715E1a3YMGz5cG0k/3qaAldf2U1IbSl/1b1TH/6HX2M7JClhdOHoZy39dh6bd68MxgwM8t56Qelf6kt8qYHXe8zLK1i2ZZMBqz/KDUuS9/ge1EBMdg91LD6BCg9KopS35rQJWquaVuaU5osKjcHijF7LlzYJv/vhUxuntw4AVUfp35ow3/v57FsLD4msqUuqUPUd29O37FZydM2g9RESUWjFg9RosWDAfRw4f0lqUmuTLlx9ff9MfFhYJaxylB29TwEqt4qcymPRaVXtXHELh8gWeCVgFPQlG/lJ5EwSslBtnb+O85yVEhEUiZ8HsqNCwTNyUQBWwenT/sRRdTypgpZw5eB7Xz96SjKoCpfOheJUi2giw5OfV2p5xmmDOQjkkW4veXgxYEb09goKCEBERobXSjmE/DMWQoT8kKJng7++PSb/9gpGjxmg9RqdPnUTpMmW1Vtri6OgIa2uupk1ElFYwYPWahIWF4eqVKwiPSDuftK1auQLt33lXa73Y4UOHUK16da2V+lmYWyBvvnzImDGj1pP+vC0BK6K0hgErIkrtfvnfz3DN5Iru3XtqPYCfny9Gjhj+zHuXKn/Rpk1b1KxVW+shIiJ6PRiwIhEVFYWv+n2Jb78dJIEd3datW+DtfRoDBgzUeoDIyEh8/VVfDBo0GLnzJMxcoTeHASui1IkBKyJK7Xx8fDBq5HD89PMvsLMz1nVKKmB19KgnFi1cgF9/+13rISIien24SiAJS0tL1K1bT2pw/ZPVq1bCzc2NwSoiIiKidCBr1qwoUKAgli5drPUkbdnSJXgnmdn4RERE/xUDVhSnbbv2ePDgPm7euKH1PEtlV+3btxddu3bTeoiIiIgorevS9UN4HT0qq14nRWVXqYx8TgUkIqKUwoAVxUlOlhWzq+i/+OH7ITh2zEtrxev/zVe4du2q1iIiIqKU9k9ZVsyuIiKilMaAFSXwoiwrZlcRERERpV/Py7JidhUREb0JDFhRAi/KsmJ2VepmZmZm+H+uoUBERET/zvOyrJhdRUREbwIDVvSMpLKsmF2V+jk5OeHixYtai4iIiOjl6VlWYWHh0mZ2FRERvSkMWNEzksqyYnZV6teqVRssWbwIT5480XqIiIiIXo6eZbVx43ppM7uKiIjeFLOAwGDOIaJnqE/Svur3JWrVqo1bt29JttWgQYMZsErlFi1cgEOHDqJQoULIkCGj1pt6eHufRq5cueDi4qr1GJ04cRyFCxeBo6Oj1mP09OkTXLlyBXW7N0Dhau5aL1HaMr//bIQHh2PylGlaDxFR6ubj44NRI4dLuQH1Qeavv/2ujRAREaUcZlhRkvQsqxMnTuCxvz+zq9KITp27YNjwEchfoCCsbaxT3Wb4yVf+biXuVz8QW1lZPdNvaWmlvTIiIiJ6Xe7evZtgU6UgsmfPgdjYWDRo0PCZcSIiopTADCt6Lj3LSmF2Fb0KP3w/RGqkVahQUesx6v/NV/j8iy9lCoKpM97emD59WpIZVjfP34HH5mNo2KkOXLOnvmwyIh0zrIgotevX9wttL54KVsXExMDCwkLriTfp9ynaHhER0evDgBU9Izo6GqtWrcShgwfkEzbF3NwcJUqURMdOneDsnEH6iF7WqwhYBT4OwtnDF+H/4DGO7TiFio3LImuuzChRvShs7W3kGKLUhAErIkqL/Px8MXLEcL53ERHRG8OAFSVw584d/PTjBJkC+MEHH6Bw4cISrLp37x5WrVqFkydPyuoxVatW055BlHz/NWAV6B+E5b+tg7WtFQqVyY/tC/ei/ge1cO7IRWTI7Iz2X7aAhaUFts3bjfNHL8PCwhzRUTGo16EmytQpIedcMclYRFaJMYyZW6pjopG7SE5Ub1UJoUFhWPfnFjy44SNTFW3srNGiVyPkKuymPevFDqzxwL1rDxATHSPnVZxdndDqkyayr84/6Ys/ZV9XolrRuPHVUzfhyEYv2VcqNy2Pd/q21FrAoOajtD2jfCXy4NOfusv+wXWeuHvlPqq1qIjc7jlxzfsmPDcfR8Ey+VCpSTn5tHyH4Z6pgJ+F4XVHRUajzrvVUb5+aXn+Ra8rOL7zNKwM9zc8xLg6lI29DUpUdUexKkWkb92fW+X1qXuj/hya92yIPEVzybGUNAasiCgtYsCKiIjeNNawojhBQYGYMH4s2rRpgzFjxqBkyZKwsbGR2kJ58+bF119/jf79+2PB/Hm4cOG89iyilHPx2BU8fvgErT5ughwFsktfscpF0LRbfVw6dhXXz9yC55bjEpDpMaIjvpzUG40/rCdBqgD/IDleBV/Uli1PFsDM2C5dszhcshozB7fM2SmBrM9+7mF4fi+4VygkQaTo6BgZT64ytUtIIEhthcrm13ohmWFm5ubo/+dnshWpkDBIp4JV7b9siYmbhqHdFy3k9SSmxvTtxtlb2L/6iDYCCZSZiowwZkkqKiPt5J4z6D7iA7k3Kti0avJGuac6CysLFCyVL+7a1f3RbZ2/W4JWKkDW9/feKG4YWz1lE6Iio7QjiIiIiIiIXg0GrCjOn39OR4UKFSRg9TylS5dG165dMcNwLFFKU9MBM2RxhkMGe63HSNWwsnO0RdCTYJz3vIyS1YtKxpXiXrEQnF0dce30DWkXrVwYhcsXkH3FOZOT9KlNUc8vU7ckrGysJIuoXP1SuHf1QYKgzj9RmUym59XPrTy6/xgZDa9BnV9tiakgVJVm5WW/avMK8vhPTM9jbmGOiLAIXD11HbExCYNXF45elqmTGbMYg3MqWOaaLSOunr4pbUXdYzNzMxlLfP3nPQz3pk4JWNtaS7tcvVLwueOHR/ceS5uIiIiIiOhVYcCKRHh4OK5fu4aOHTtqPc/XsGFDKcJ56eJFrYcoeUaPGffMdEDlf7/89sx0wKQ4uTgi+EkIoiKMU+10wQGhCAsJl0BW8JNgOGR00EYAC3Nz2DnZISQwVNoqCJWY6tP7VbDH0eT5al+NhWrPfxn6efVzK763/ZAph6vWetaojj/LtL/Rnf6H8d0mab0JqXF9U1MGTQNb5uZmOHPoYtymB5eUIMO9c8wQ/9rUddnLvQnRehJKfP0qu8r03tg728uUYf3eEhERERERvSoMWJG4cf067OzskCVLFq3nxYoXL47T3qe1FlHKUJk+KpNqx6K9cdPQ/O49wp7lB5G/RB4UKJVPglN6/SVFBVcjQiNg65C8guxW1lZSb0gXZthXGVPJff4/eXDTB1nzZNZaCW2cuR3BT0Mky+qHRf0xeG4/bSQh0ymBasrggrHLtRH1emNRulYx2UrVLCYBOJ29ky3CQuNfm3pd4XJvbLWeF1M1q1RgUKfu86u8N0RERERERDoGrEgEBAbAwSE+c+KfuLi4IODpU61FlDJUdlDrPk0l4+eAVrfpyAYvuGTNKIXRLa0sUKBUXlyR6XDG9STUdD7fO4+Qr3huaf+TfCVy4+LxK1oLOOdxCVlyZoJLNhet57+5fvYW8hZLuki5Cgbp2UzK4h9XaXvPp4rMmwaRVA0rSytL5C+ZV+uJp+7N1ZPx9+bBdR/cv/Ew2fdGnVPVCtOpKYYZMjshs9vzM8aIiIiIiIj+DQasSLi6ZkJAQIDW+mdHjx5NdjYW0auUPV9WCU7V7VBTAjMtP26CRl3qxNWsqtG6MuwcbDFtwN9YOGEl5o1eiuYfNYRr9uQFnBp3rYcbZ25h9rBFhucuk+wt9XwVDEsu06CTqXljlsl0wNzuSQes1Gp7KmPp+3bjMaT1WJlup+pJDX/vR+0IIzUVcHDL0fKo6lT1GttFGzG8qVs8/229avOKUltrav/ZWGS4N+o1NuveAFlzx2d8qWmXz6Pu853L9zHrh4WYb3gtOxbtQ/OejZKsxUVERERERPRfmAUEBhs/aqe3Wkx0NPr2/QI//vgjsmXLpvUmTf1C3aNHDwz6bghy5eJy9vT6nPH2xvTp01C3ewMUrha/Wt1/paYTXvQyZlGpAuQ5C+WQ/Vfh7OEL8viqz5sc+td2dnVCbvecuOZ9E6FBxvpSJaoVlccXUfdEn2pZtFJhyd6i/25+/9kyzZRLwxNRWuLn54uRI4bzvYuIiN4YZliRMLewQMWKlTBlyhSt5/kWLFggUwIZrKK0SmVmqQCO2l51UOl1nTc59K+tglWKmgKo9yWHWlFRP57BKiIiIiIiepMYsKI4H3brDj8/P/z2229az7PWrFmDHTt2oG+/r7UeIiIiIiIiIqJXiwEriqPq5YwaPRa3b99Br169MGbMGFy5cgWHDx/G5MmT0bdvX2zYuBGDhwxF5sxJr3JGRERERERERPRfMWBFCdja2mLEyFGSbRUZGYlx48bhzz//xO3bt9GgYSP8+usk5MzJqYBERERERERE9PowYEVJKleuPAZ8OwjNW7RE3nz58MOwEahfv4E2SkRERERERET0+jBgRUREREREREREqQoDVkT0Vrl0/Opzt+TQjw0NDEVkeGRc+961B9oRr4/+tZLaiIiIiIiI0hOzgMDgWG2f6Blbt26Bt/dpDBgwUOshSjlnvL0xffo01O3eAIWruUtfbGwsNs3egbOHLsA1uwse3vJF1eYV0KBjbRk/uM4TJ3Z7IyI0AkFPgxH8NAS136mGFh81kvHznpcM42dg52CDAP8g6XN2dUTxqu5wr1hI2oOaj5JHxdzCHOPXf6+1gGW/rEWO/NlQsWEZWFpb4simY/C944eqLSrCrUB2TOjxOzp80wYFSuVFdFQ0fu/7F7LlzYJOg96R529fuBcehudkyZUJYcHhcHRxwPsD2sIxg4OMzx21FOeOXJSvGxMdg2KVC6P7iI4ytnXuLoQEhsp+uOH12dhZIzggFM6ZHNH6k6bSv3nOTpzedw6ZcrjA57YfKjUui0Zd6srY0W0nsH+1BywszfHUN8Dw3BBUb1UZbT41PlcZ0nqsXLdu4qZh2h79W/P7z0a44c968pRpWg8RUern5+eLkSOG872LiIjeGGZYEVGacmrvWXgfOI8vfuuFXmO7yLZv1RHcOHtbxi0sLeBzyxef/twDwxYPwMjlA7Fv5WEZ01laWaBA6Xyo2aaKbKVrlTD0WcrYuG6/Ibd7TgnUqM3K2lKCSC8SHRWj7SW0f/URCTjpAh8HSaDo81964pOJ3fDlpF5ALOC17aR2BCRY9e5XrSRIph7Pe17WRoBCZQvItRarUgRREVEoUCofqrWoiBJVi8q498HzOL7jND77Xw+5Lx+P74pDG7xw9dR1GbewsMATnyf4aHRnDFsyAKNWfodD6z0RFRkl47N/WCj3Rn/tuQrnwI8fTZYxIiIiIiKilMSAFRGlKVdOXkeR8gVh72Qn7Wx5siBnoey4ce6WtBUrGyvYOdrKvq2DrWQr3TgbPx7wKFAe85fMgwKl88ZtypC5X+GLXz+Cx+ZjOLLRC1lyZY473tSNc7flWhSVsZRALBDoHyTZXo4ZHbVOwMnFUYJQKktMZT+dPnAO9288RLa8WbUjjBlNlRqXk8ytqMj4TCdFXWP+UnlkPyI8Uh5Nr11dT+HyBeTrKJlzZkLuIm64rgXzFDMzM8M1GbO5VIaWta0Vrp2+Ke2eoztLEMtjy3F57dnzZUPg42AZIyIiIiIiSkkMWBFRmhIaFBoXjNLZ2tsiLDhMa+GZcRWk0afSJabG9E1ZMG6FTAlU2VEn955FTMyz2VNPfJ/i6ukbsj31C5CsLlNmhndWNfVPTcVT0/qSsnHmdpzY5Y1qzSuioBZwUoa0HiOb1/aTOL3vrNZrJNdp+E+JjTHO5ja99rCgMMNrNwbydLb2NgnujY2hbcrcwiLu3qipluq1716y3/Daz+CxzxPpJyIiIiIiSmkMWBFRmuKQ0UGCVqZU297ZXmsBYSHh2p6Rymhy0GpE/RPvA+fQuk9TDJjxOfr82E1qRSWWMUsGlKtXSrYMmZ2fyYRSGV0+t31RuUk5rSchVXurx8iOUrvq9uV72DZvj/Svm75FpheOW/e9ZHmpaYMvwyGDfRL3JgwOJvcmIizh64mJioZjRuP43hWHUL1lJXw3p5/htXeXQCAREREREdGbwIAVEaUphcvmx8VjVxESYAzM3Lv6APevP0TB0vmkrajpeGoFP0UFbFSWU95iuaSdHObmxowlz60nEBsTY3h+woCU4potI7Lmziz7ibOo9OwqYTyVuOh1BX8NmY+gJ8Zpdir7SU3Li4gwXmvibK6ZQxdoe8mjalxdMtwbVStLeXDDB3cu30PBMvH3Rt0PPaCngnFqamH+kvEZXmYW8d8W7l9/IME+IiIiIiKilMaAFRGlKSVrFEOZ2iUwbcBszBg8H3NGLUHDznWQs1AO7QhjXatfP/sTY7v8ihEdfkTDTsYVBHXOmZy0vWcVLlcAa6ZtxnctRmPb/N0oW6ck7l17iF8+/UM74lmJa1hlyOScIICmU6sQuhXMjqnfGK79u3mY1n+2TClUhd+Vtp81l0c1LU9tOQpkk6Lv6loSs3VIOLVPKV61iKwKOH3gXLk3f49YjHrv10SeovHBOpdsGeXrj+nyC4a9MwF136sRN6WxSrPyOLjWA9+1HI2hbcah/vu1JPA3tO04GSciIiIiIkopZgGBwfz4nJ5r69Yt8PY+jQEDBmo9RCnnjLc3pk+fhrrdG6BwNXet98VUsfIDa47IlL6kXD5xTduDBJXU9L2XoT8/V6EcsLS2lOLripqO51Ygu+y/Tqp21RVt1T9FBdiS6/jO09gydxeGzPtK66GUML//bIQHh3NpeCJKU/z8fDFyxHC+dxER0RvDDCsiSn+0IuRJUQEefXvZYJWiP9fOyU5WI9TbKRGsUszMzeK+ptpell6gnYiIiIiIKDVjwIqI0h1rGyttjxJTmWBERERERESpHQNWRJSuVG1eAX1/7621yFT5BqV5b4iIiIiIKE1gwIqIiIiIiIiIiFIVBqyIiIiIiIiIiChVYcCKiIiIiIiIiIhSFQasiIiIiIiIiIgoVWHAioiIiIiIiIiIUhUGrIiIiIiIiIiIKFVhwIqIiIiIiIiIiFIVBqyIKM2JjYnFgxs+uHTsKm5dvIuoyGhthIiIiIiIiNIDBqyIKE2JDI/E5jk7sWjiShxY64F107dgzbRNCA4I0Y4gIiIiIiKitM4sIDA4VtsnesbWrVvg7X0aAwYM1HqIUs4Zb29Mnz4Ndbs3QOFq7tJ3fOdp7Fi0F+/0bYX8JfPA/8FjrJqyEUXKF0Td92rIMcd2nJJHUxUaltH2AL+7j3De8zLCQyOQPW8WFK/qDnOL5Mfvb5y9jetnbwKGd8+8xXKhQOl82sg/27/6iLaXUK12VeUx8HGQZI4lZnr9a6ZtxlO/AGTJlQnNezbUev+Z/rWLVCiIbHmy4ILhHvga7oVzJieUqV1Cxh7d85d7ExYSbjgms+HeFIWFpfHenN5/Tr5uYm4Fs6Ogdg9unr+D6943ERMbizxFc6JQmfzS/zab3382woPDMXnKNK2HiCj18/PzxcgRw/neRUREbwwzrIgoTbl+9hbyl8yLAqXySpApc85MKF2zeFzARblz+R4e3vKN21ZP3aSNANe8b2L6wLmIiohCxiwZcHiDlwS8dGO7/Io5IxbLNnvYIgxqPgrju0/SRmE4/iiW/bIGtvY2sHO0xcrfN2D/mqSDUEmJCI+UoFBIQEiCTffo/mPsXnYg7tpVkCj4afy4up771x5IsMpr20mM+uBnbcRIjevXP7HnZGnroiKj4HvnkdYyunz8mrYH3Dx3G9MHzZVAnkvWDPDccsLw+tZro0b3rz987rV7bDmOJT+thrWdNeyd7LBm6mbsWXFIGyUiIiIiIko+BqyIKE0JeBQAZ1cnmJmbaT1A1RYV4ZIto9YyBn2y58sq2Uc121bReo0OrvVA+QalUe/9mqjYqAzaft4cp/adTRjIMTND9xEd0XNUJzTtXh9PfJ5qA8DeFYfQpFt9VGtZSb5u4w/r4eAaD8TGvlyyavkGZVCjTZW4Tffovj8y5XCVa0+cPeWx+Zjhmsvi0597yNiwJQOSnAqprl1tg2Z/KW2PTcfk0ZT+vJjYGHlUDq4/itK1iqNBx1qS0dXui+bwPnhe6oXpVDArd9FcCa5dZWsp+wz3plGXOqjeynBvmleQe3dgzRGpOUZERERERPQyGLAiojQlOjoG5hbxwaqk+N31h2t2F62VkMoQUlPYdK7ZM8LOwVamCZpaMWk9lv2yFtsX7JXgi+7po0DkKuymtYzT4YKeBCPA0P+yHDM6xG0647XHB99MVWlWATkKZMO0/rMxocfvGNv1V20kIXXtapvy1Uy4ZsuIKibXr5w7ckmyp+7f8IG5efy3gXtXH8CtQPy9yZDZGQ7O9gnuTVhwmDyaXrt+/U98AxLcm5yGexMSEGrojw/4ERERERERJQcDVkSUpqipZqHB4VrLSE2dC9P6VOZQgH8gMru5SjsxlQhlYVqvysxM/e+ZDCkbO+u4aX9nD1/Ueo1Mn29ueLJ65stmWD3Pw5u+z732PcsPYv2fW1GobAHJgho6/2ttJCFrGyvYOhiu3XCv/B8+0Xrjqew0fUsoNkEtLzPDazM3HPMyry3B87Xzv6p7Q0REREREbw8GrIgoTcmRPzvuXb0vmTs67wPnJaNIUQGfDJmcJNCUFBUM8rvnr7WAoMdBEgBLnJHV6uMmaN2nKX5Y1F8KoetUIMh0+qA6lwpsqWmK/1V0VDQe3EiYAWZKFUNXBdIbd62LSo3L4cAaD20kIXXdLXs1xkejO0vQaenPa7QRo2KVC6Nm68rInicLYmLipwRmyZlJ6mvp1D0ONmzPy1ZLzM7JFn6m9+auP6xtraRWGBERERER0ctgwIqI0pTSNYtJTaQtc3fh5N4zUlPqlOGxUuOyuHvlPo7vOo1CZfPDwtJCe0ZCqjaTKrSuVuK7d+0BdizaJyvcqZpXptQxqsD69IFztB6jyk3KY8+Kg7h98a4UKd+97CAqNy3/UqsMPs95j0uICItETpNpdaay5s4sUw+Pbj2B/asOY+fifdJ/dNtJedSp6z680Qsb/tom2U25ijx7PktrS3k0M/ynU3W1VOH0C0ev4P61h9i+aC/yFc+NnIVyaEcYM9yeR92bvSsP4daFO7Kp4vGv6t4QEREREdHbhb9FEFGaksnNFe2+aAF7ZzucO3IR/g8eo2XvxnCvWAieW0/I6n8NOtbWjjZSwSxd2bol5fhjO09JfSpVp+mDAW21UUgGU6B/ELy2nzRsp6Q9cdMwbRRScL14VXdZ/U6tDli2TgkpNP4ybOxttL2EvHacQquPG8uUPp1pPat3+rZEkQoFsWHmdsm2Gr70W+O1LDugHQGpIaWuW60gqOp1qXtVo3VlbRTPZJ6ZZnOVqlkMbfo0xcnd3ti2YI/Upuo4sL02avSibKtGnetI0fa9Kw9jn2ErUa0omhruFxERERER0csyCwgMZnEReq6tW7fA2/s0BgwYqPUQpZwz3t6YPn0a6nZvgMLV3LVeorRlfv/ZCA8Ox+Qp07QeIqLUz8/PFyNHDOd7FxERvTHMsCIiIiIiIiIiolSFASsiIiIiIiIiIkpVGLAiIiIiIiIiIqJUhQErIiIiIiIiIiJKVRiwIiIiIiIiIiKiVIUBKyIiIiIiIiIiSlXMAgKDY7V9omds3boF3t6nMWDAQK2HKOWc8fbG9OnTULd7AxSu5q71Ao/u+eP4Lm8EPg5ExqwZUbFRGTi7OsnY3hWH5LFQ2fzYt/IwHDLao8VHjWBhaSH95z0v4d7VB7JvKldhN7hXLCT72+bvwUWvKzAzA0rVLI4671aXfmXn4n2wtrVGxYZlYGltiSObjiEiLALFqhSBW4Hs2L30APIWz40CpfLK8aqt1Hu/pjw+8XlquPbTeOIbABs7axQqlx/uFYxfVzd/7HL43X0El2wZ0X34B1qv8Ws/T4OOteXR/8ETOX/AowBkyJJBrjNDZmcZO7jOE1ERUfI6dy87AHsnOzQ33Bsrw+vQ7V9zBKf3nUNUZBSKlC+IZj0aaCP0b83vPxvhweFcGp6I0hQ/P1+MHDGc711ERPTGMMOKiNIU/weP8ed382BpbYHStUogPCQcM4csQGhQqIyrINCJ3d4SSKrfsRZiomPxfbvxMqZ7dP8xzM3NE2y6xT+uxs4l+wznLi5BqE2zd2DXkv3aqPG5iangk85jy3FtD7h98S7OHrmI+zceSjs6KgZzRy2V/VI1iyFnoRxY/us6eB84J33KoOajEB4ajirNyiMyPFLaOtPrfXjTN0FbeeoXgD8HzYGZmZncm6jwKMww3Kvgp8EybudgC4/NxySQV//9WrCwsMCwdybImLJz0T5smLEN7hUKoly9Utiz/CCW/rxGGyUiIiIiIko5DFgRUZritf0UchTIhnodakoWVdNu9REbG4uzRy4ZDzAzk2DOO31bIlueLGj7WTPExMTg8cMnxnGD4KchcM3hgmqtKqFGmyqy5S9pzIjKWzQn6rSvLllVKmspe76sOO+hndtEVFQ0wkLCZT8mOkYe42h5q9sX7EX5+qWNDYPI8Ah0GfoearWrisLlCqBM7RLIkT+b4dqeakdAXk+vMV1QvVVl9B7XVes1Ml5rZXn96mu6ZneJu37l2I5TyJIrMxp8UEvuTeMP68LK1gpnDl2QcUVlYHXo3wbZ8mZBy48by717eMtXxhwy2Mt9bdi5Dmq3r4aydUvi7OH45xIREREREaUUBqyIKE3xveOHrLkzay3AzNwMmdxcZZqgLkMW4xQ4nYWFeVxQRomOipZHaxsrWNvGb0r11pVx5/I9DHt3Ioa2GQsfw/NiYhLOnA4JDMWh9UdlU/sWloneSs2AU3vPws7JVqbW6WwdbJEphwsCHwdh6f/WYM7IJcicwxVVmlfQjjC+ngndJ+H7tuMwpPUYrddIXaOVtfE6w0Mj5NH02n0M9yaLujeGr6+oTKvMbpkM9yY+K8zB2V7bM7KxtZYAn1K1RUW5TyPe+9Hw2sfJ1MBYThonIiIiIqI3gAErIkpTVBAmKab95hZJvbUl/bzEvms5GpERURi1YhDGrh2K7PmzaSPxVO0nZ1dH2dR+YubmZti+cC8ada6L2ETBLl3J6kWRp2guXDp+FZcNm6KmMW7+e6cEzcasGYJx676X/uQyN0vqdceqpLM4Sd0bfXxsl19lGuOI5QMNr30IytYraRwgIiIiIiJKYQxYEVGaoqb5+dz201qQ6X5+dx4lyLpStZxMRUfHIEf+rFrrxVSA6fNfemotJFmgXSlbpyQqNCwj+6o2lanrZ29JDazMOV0TBNJUva0rJ6/LVL4S1YqiQcdaMjVQn7J368IdKQ6vpuMpRzZ6yWNyZc2TGb7q3mgxMvVafA33JkvuLMYOg+CAEG3PKDwsQqYlKgH+gajRurLsK9fP3NL2iIiIiIiIUhYDVkSUppRvUBr3rz6Q1QBV8GfTrB2wdbCRAuk6FbzaOGu7FGhfP2OrFBfXV8pT7BNNi0vADPhjwN+yot4vn/6BopUK4dF9fxzacFQ7IJ4ejEqcteS17WTcqoCmiV2hwWFYMWm9rBx4+fg1nNxzBhePXUXuIm4yroqwq+mKuwzjW+bukoLvir7SoClVmyoxVS9LBfPUCoDq3myes1MKspesHr/Colp5cN30LVI8XmVzybTBnJlkTN3Hw4bXeWi9J2YMni9BN7UC4uGXDJwRERERERH9VwxYEVGaogIuH0/4UGo4nd53Fk4ujvhoTBdZHVCnVtcrVbO4TMtTARk1vc1Utjzx2ViJTdw4TIJMJ3d7o1rLSugxshNyFXbDrfN3ZFzVoEoso0nNrCpNy6P+B7VgZW1p7IgFcuQzZjBlzJIBvcZ0lowv74PncffKfbTs3SiuaLrKbqrzTnWc2ntGanKNWvmdFH6/cuq6jJvKWTC7thfPOZMTPpnYTepmqXujpiv2GtdFamfp1L1RmWE7F+9DVEQUxq6Jvzcjlw9C1jxZpLC9e8WCaN6zIYpWLoyrJ5/9+kRERERERK+TWUBgMEvq0nNt3boF3t6nMWDAQK2HKOWc8fbG9OnTULd7AxSuFp8l9CKqDtSBNUcwYMbnWg/pju88LZlbQ+Z9pfVQSpjffzbCg8Mxeco0rYeIKPXz8/PFyBHD+d5FRERvDDOsiCj9MakbRQmZ1tQiIiIiIiJKrcyvXr0qWTTqkVIW7/2bw3v/ZqTEfa/avAIG/PmZ1iJTqv7X4Ln9tBalNL7fpCy+z785vPdvDu/9m8H7/ubw3r85vPdvztt0782vXLmMmJhYqEdKWbz3bw7v/ZvB+05vM/69T1l8v3lzeO/fHN77N4P3/c3hvX9zeO/fnLfp3psXKlQY5uZmUI+Usnjv3xze+zeD953eZvx7nwPii+oAAPZVSURBVLL4fvPm8N6/Obz3bwbv+5vDe//m8N6/OW/TvWfRdXohlWrIouv0pvyboutEqQ2LrhNRWsSi60RE9Kax6DoREREREREREaUqDFgREREREREREVGqwoAVERERERERERGlKgxYERERERERERFRqsKAFRERERERERERpSoMWBFRmnPrwh1snLkdC8evwKopG3HR64o2QkREREREROkBA1ZElKbcv/4Qa6ZtRlRkNErWKIYMmZ2xfsZWXD5xTTuCiIiIiIiI0jqLwUOGjtD2iZ5x9eoV+Pg8RPXqNbQeopTj4+MDL6+jyFe2ADLlzix9RzYdQ/DTYLTv2xK5CuVAgZJ58ejeY0NfCAqUzgfEAjuX7MPaPzbj8AYvw/FesLaxgluB7PL8iT0no3KTcrCwtJC2smbqJty/8RD5S+SR9qwfFmLHwr04uM4zbqvRpoqMqcyu0/vPoXhVd2mf2O2NZb+sRcVGZWFuYW74mkcx5etZ8ny1XT11XcaSQ51378pDMDM3R5ZcmeBzyw/bF+zBvWsPkN/wOhWVVaY2/fxmZkCBUobXnUzq9VdtXlGuNSQgBL98Oh2ZsrvI14uNiZXXt/nvnfDYfAzHdpxCxszOyOTmKs9d9+cWyW7LmiszbOyscXTrCexffQT2zvZwyZYRW+bukueUrF5UjlevZ/FPq1C+fmm539+3G49SNYtjYo/f5VgPw59ltZYVZWzT7B04te8silYubHhNhhdlcPfqAyz9aTWcXB2RKYerBCWX/W8NDqzxwOH1R/HQcH8Klckvr+XYzlPSb21rbTjWBfcMz1Vfw//BY+QtlkvOd8jwZ7Nq8kZ5bUc2eiE6OgZ53HPKWGxsLHYvPYCl/1srf4bqtTlksEe2PFlk/L84ve0EoiOj0bx5C62HiCj1CwkJwd49e/jeRUREbwwzrIgoTXl40wc58meDrb2N1gPU71gLDTvXkX2vHSdxfJc3ug59D19P+wTNujfAiknr4XfXX8aDngTJ44v433+MD75th36TP0bbz5sjOipaG0ko0D8I6//cihYfNYKllTEAprK/VEBo4qZhsl0/c0sCZ8kV+PjF16eCQO9+1VrO3bhLXWxfsFcbSZ7QoFBtD9gwcztKVHNHsSpFpK2CZbcu3sVHYzvLa6/SrILcu7DgMBlPSlRElLaXUNDTYLk36v6rIJKiAmILxi3HqJXfyfUXLJ0Ps4ctkrGilQrj8vGruHP5vrSVKyevwd7ZTgJOYSHhWPrzGrmmflM+Rq+xXXD3yn3sW3VYO1q9tudf59XTN7Blzi65d+q1vftVKwn4qT8fRd1Xz60n8PH4rvh25hdo3rMhVv6+Qf6MiYiIiIgo5TFgRURpSlhwuGT3mHJwttf2gHNHLqFMreLInDOTZOoUqVAQX0/rA2tbK+0IY/bO86igh9oyZs0AG5OgWGJRkVGSxaUyhAqVza/1QgIx7T5vrrUMX81wDQH+gVrrnzm5OMqjCrAEJhFcU+ev1NiYsdWgU215/DdUhpHPbT80+bCe1qPu3UWUrlkcjhkcpF2qRlHERMfg9qV70tb53PGT61MsrS3l0ZQK8K2fvhXlG5aGe8VCWq9RnXera3tA3Q41cOPsbdnPWyy34T4WwKVjVyXbSQW8rpy4DvcKhQx/3jaG/WsSFCxXrxTMzc3hnMkJ7b9sIW2dnaOtPKprC00UZLt49AqKlC+InAWNmXa5CrshT9FcEhRTVB00lRmmXntEaATyFc8tWV1XTl2XcSIiIiIiSlkMWBFRmmJhZSFTuZ4n0D8QDhmNARdFTRfLmjuzBDgUFWD5+eNpGN9tEuaOWorHD59Iv+6pX4BMUbN1MAY/knL38n1M6PG7BHzqdaip9RrNGDwPg5qPwvD3fsSYzr8YemKNA8mkAlwq0+jMwfOyJc7u+qH9eDn/qI4/Y2yXX7Xel/PrZ9Oxa+kBNOpcB1Y2eiBPZZ8Fw9El/t6pzChrO2uEBMRnZQUHhMRdm5qqaPp85cENH0zo/jvuXL6H+u/X0nrjqSCQztnVETExxj9LC0tzFK1UCJcMr11lNalAVkRYBAqXLyDjgYZrU1P0DDdI2orKtFNTEXVm5mYSdNOvz5QKgDmq55tQgc5g7bWp137h6GX83u+vuC08NPwfM96IiNKrqChjBq3+Pk1ERJTSGLAiojTFJWsGPPF9muAH6LOHL0gtKUUFmlQWlk4dp6aTmRow4zMMnttPah2pwI2pBzd94Jo9o9S9ep6chXPg+wXfIEvuzNi+MOGUvKunbsi0s5HLB+L7hd8g9uXiVZJdVLh8QZSqUVw201pb88csQ3RUjGRZDVs8AEMXfK2NvByVcaYyq1S9KhUU0tk52iHc5F6pLDI15c/WIT7TTAV59GtTdcEiwyO1EaPs+bLKdeUs7IZt8/dovfFMpxeGmvw5KSoby95wDapWlcp8KlKhkBTVV9QU0LAQda3xN1QFz0yDl2rKoaotpl+fKZV9FR4a/1oVFZDSX5ud4e9NscpF0P/PzxJstdpVlXEiorfFhg3r8c3X/TBm9Cj5ntT3y88x7IehOHnyhHYEERFRymDAiojSFFX36NaFu7h8/JpkH6ngldf2U3h0/7GMFzCMXz5xVYItiirIPqbT/3An0bQ2RU0xU1PeTKmaRnmL59ZaL9ase30pyH79rLEOkk6fsqeKgKuMKRVISS6V4aUUKJ0XjiaZYoqa5qYynnR/Dpqr7b28Cg3LwDWHC3Yu2qf1GL/mlZPX44JsN87dloCUmzaNTqcKtKtjlcQBK526N17bTsj5THntOKXtASf3eEvQT6cyulSWlXqOWg3SvWJBbQQyRe/RPX/cNFyTbtXvG7D57x1aC1JEXlHXZhpkU1RBffXnpAfkVEaV+nukF9ovUCqvZHepAJ36M1NF0lXNLDXFlIjobRAaGorB3w2Ex5HDaNGiBWbMmIG5c+fijz/+QOPGjTFr5l+Y/sc07WgiIqLXjwErIkpTildxR/n6pWRVuTkjl2DxxFUyVaxai4oyXrNtFThmdMSUr2Zh3phlmPHdPMmSyVXETcbVjLL5Y5bjT0P/haNXUKN1ZelXFv+4Cqf2nkHpWgmzc55H1clq2Km2ZCrpmT5qCuLgVmMw/N2JskKhmo64d8UhbPhrm4z/Ez2jKCmqXlNoYChGdPhJvoaqw6SM7/abPL4sVRD90EavuICbmsIXYjj/zCHzsWjCSik63qxHg7i6WklJPCVQp6bqNepSBxtnbU9QmL1oxUL4pc8f+OPbOZKd9uH3HbQRI5VlpYJ22fNmlSl/OnW+Vp80MfwZrZapnFO/noWQoDDUaR9fE0utVvg8JWsUg3uFgpg24G8s+Wm1fP0ydUrE1diq2LicBObUCo+LJq7Eb1/OkBpmxbWC9ERE6d3oUSPg7u6O3377DW3btoWNjTHwb29vj2bNmmH69Om4efMG5s/79x+WEBERvQyzgMDgl5ywQm+TrVu3wNv7NAYMGKj1EKWcM97ehh+Qp6Fu9wYoXM1d6zVS9aOe+gbAxsFGpqbpq/SlZXrdJXNLCwmU+NzyM7xOX+lTAZc3Tb8+VSDdydUxrq0CRSpD6Z8MbTMOH0/4UFb9U3Wq1DkSC3gUiEUTV0mQUa1gmFz6taggU+FyBXDv6gP4PzBm3b3peze//2yEB4dj8hRmJhBR6rR58yYcPLAfkyZN0nqS9vjxY3z11VcYPmIksmTJqvUSERG9HsywIqI0SWUuqYLcedxzpotglaICK2rTs3qy5skc15ca6NeiB5r0dnKCVTq9ZnriYNX9aw9l2ubhjV7ImMUZBcvk00aSR78WFaxSVLaU3kdERC+2Y/s2fPjhh1rr+VxcXFC2bFls2rhR6yEiInp9GLAiIqIUYW37/EL2yq6l+yXDqnb7alJknYiIXj+1GmB4eDhKly6t9bxYjRo1cOnSRa1FRET0+jBgRUREKWL40m+Rp2gurZVQjgLZ8OEP7+O9r1s/U+SdiIhen8hI4+IZlpaW8vhPnJ2dJcBFRET0ujFgRURERET0lrK1tZXHoKAgefwnd+7ckaAVERHR68aAFRERERHRW8rMzEwKqO/cuVPrebHFixejcuUqWouIiOj1YcCKiIiIiOgt1qHD+1i9evU/Zll5eHhIzauGjRprPURERK8PA1ZERC/h8olrsoUGhiIyPDKufe/aA+0IIiKitKVY8eKoUKEiBgwYgEuXLmm9Calg1bRp09CzZ69k17siIiL6L8wCAoNjtX2iZ2zdugXe3qcNP8AM1HqIUs4Zb29Mnz4Ndbs3QOFq7tIXGRGFheNXwP/+Y9g52eHRPX9UalIOTT6sJ+PKiPd+RGhwmNYC2n/ZAlWaVdBawIG1Hji97xzCQ8NhY2eDLLkySbFv3aDmo7Q9wMLSAuPWDdVawLJf1iJH/myo2LAMLK0tcWTTMfje8UPVFhXhViA7JvT4HR2+aYMCpfIiOjoGk/v+hax5MqPToHfk+eeOXMSmWTtg72yH0KAwec5737SGpRV/+E+v5vefjfDgcEyeMk3rISJKnZYuXYL9+/aiePHishqgi4sLbt++LdMFfX190aPHRyhfIf77KRER0evEDCsiSlNO7PaW4E6/KR/j05+6o8+P3bBv5SEJXCkrJq1HeGgEJm4aJlvRSoWxafYOGdMFPApEkQoF0GtsF5StW0LrNRrffRJyF3GLe76FpTnmjV6qjSYtOipG20vowOojhq9TUGtBrmv11E1o3LUuPvtfT3kNEeGR2LP8oHYEERHRm/P++x9g9JhxyJDRBQsWLsSPP/6InTt3oWrVavj1t98ZrCIiohTFgBURpSmVm5RDlyHvStDp/vWHOLXvLLLmzgInF0cZf7dfK4zf8D2Obj0Bzy3HkbNgdoQFxy+/HRsbi6e+AciYOUPcc0wNntMPX/zWC57a89W5n/oFaqPxbpy/gyunbsi+CmolEAsEPQnG/tVH4OzqpHUCdy7fkzG3gjngd9cfT3wCULxKEVw+cV07goiI6M1SWVWdO3dBVGSktLPnyI7GTZpyGiAREaU4BqyIKE06ufcMts7bDd87j1CvQw1Y21lLvwoSqSl9m+fslKDVVe+b0q8L8A+C3z1/uOZw0XoSWjRxlTx/99ID8Np+EjExz2ZPPfF9iisnr8mm9tW0QVNmhnfW7Qv2olGXuoiJjn++mgJoZm6GlZM3xG3Hd3vD3IJvxURElHocPHgA5ubmsoLg6VOnEBj47Ac3RERErxt/SyKiNEcFkep1qInuwz9AjTaVJfBz49xtGdswcxtKVHPHsMUD8PmvH8GtQDbp1/nc9JWgUZacmbSehE7tPYNWnzTBoNlfyrS9iNAIbSRexiwZUK5eKdnUflRktDZipAJQD248RJVm5bUeIwdnO0RHRaPbDx3wyYQPZes1prM8EhERpRYrVyxH8+YtZd+9aFEsXrxQ9omIiFISA1ZElKZs+Gsbts3bE5e5lCGTMywsLBAVESVtNeXOtIC5qnmlU9MIr5y6jnzFc8vUQNXWme7rGVNHt52QIu+mWVI61+wuyJYni+wnHt+xaJ9kVwkz44OSs5CbnPvs4YvSVs/buXg/1v6xWdpERERvmp5dVaZsGWl37tyVWVZERPRGMGBFRGlKjdaVceviHUz5ehb+GjIffwycg1I1i6FQ2fwyXrdDDalrNbjlGJna16JXI+n/of14KW5+/ewtmUY4e/gi2S56XUVkeCR2LzsgxxUsnQ9rpm7Cdy1GY/PfO1G+fincu/YAv3z6h4zrTOJQz9SwUrWx9OsxZW1rhXZftJCvNd1w3VO/mY1bF+6gdvtq2hFERERvlsqu6tDhA60FuLq6MsuKiIjeCLOAwOBYbZ/oGVu3boG392kMGDBQ6yFKOWe8vTF9+jTU7d4Ahau5a73/3rrpW+CcyQmlahbXeozOHDwvtajafNpM63m+S8euyqNaSdDS2hLXz9yStqOLA9wKZJd9IlPz+89GeHA4Jk+ZpvUQEaVOKrtq9aqV+Pl/v8LPzxcjRwyX9y5/f38M+2Eoxk/4EU5OTtrRRERErxczrIjorZMph0uC7WUUqVBQNjsnO1jZWMW1GawiIqK0LnF2lY5ZVkRE9CYwYEVERERE9JbTa1dVrlJF60mItayIiCilMWBFRKmWWs1PSaro+b/Ruk9T1H2vhtaKV+fd6smaDkj0b6gC/wmKnhERpULPy67SMcuKiIhSGgNWRJRq5c6dWx7P7z8rj0RpTcjTEKlflTmLcUVJIqLU6J+yq3TMsiIiopTEgBURpVrOzhmQO28e+N7wwe7ZOxAWFIboqGhu3NLE9vDaAywfvkj+Lr/3bgd5JCJKjf4pu0rHLCsiIkpJXCWQXoirBNKbFhUVhZEjh+Gx/2OthyhtadK0KVq1aqO1iCg1OnzokOHnHW9ERUdpPURJc3RwRNVq1VCkSBGth4iIXhcGrOiFGLCi1OLYMS94HvVAWFiY1kOUumXPngMNGzRCFk4HJEq1Hj9+jDGjRyI8PFzrIUqefPkKYMC332otIiJ6HRiwohdiwIqIiIjSq28H9EdoaAhq1myBGjWaw8LCUhshSlpwcADWrJmJmzcvonz5iuj50UfaCBERvWoMWNELMWBFRERE6dGZM96Y/sc0VKrUAC1afKj1EiXPzz/3Q1DQE0z6fQosLCy0XiIiepVYdJ2IiIiI3joXL1yUx6pVG8sj0csoU6a6PPr6+sgjERG9egxYEREREdFbJyYmWh7NzZkdQy9Pnz4aE8PJKkRErwsDVkRERERERERElKowYEVERERERERERKkKA1ZERERERGnIVwN7wPvsca0FrN2wFD9PGoHg4ECth4iIKO1jwIqIiIiIKA2JjjbW31LOXTiNrTvWokWT9nBwcNJ6gWMnDmPN+sXYvH0N7t2/o/UC+w/tlM1UUn1zFkzDr1NGY9mquVqP0RbD+TZvW4PrN69I+9z5U9Led3CHtJUTpz2xc8/mBFtMTIw2CuzetxXT/voJv/8xHtt3rdd6iYiIEmLAioiIiIgoDQoMCsCmravQouk7KFa0tNYLzJo3Gdt2bYCrS2ZEhIdj7I+DcOGit4ydPnNMglmXLp+Ttio+v33neixfNU/aSpePWuDO3ZvIni0nthvO82X/D7URo1u3r2l7Rue1c+uePPHHpStn4ev3QLaTpz21EWDDlhWYNfd3WFpawcnRGXMXTsfi5bO1USIiongMWBERERERpSEWFhZ4GvAEcxf+gUyuWdC8SXttBLh95wb2H9yJ3t36onbNRmjT8n1UrVwbO/ds0o4AypWpgmMnj8j+LcPxLi6ZEB4eJu0tO9aiVvUG+H7QRHR8ryf+mrIcj588kjFdrOE/RQXMkvL48SO4ZsyMD97tgbx5Cmi9RgEBT1GlUi183OMr9Oj6OcqWrvRMdhcREZHCgBURERERURpz/sJpODo4ISoqKsF0u7v3biFzpizI6JJJ6wFy58qPO3dvaS3AxtoGx7WAldfxwyhTqpLsK00btkHePAUxctwAfPPdR+g7oJs2Es/M8N+ZsyewZ99WXL1+Ses1Utfj++ghMmfOqvUk1KnDR8jgnBHfDfsMXw/qiZu3riW4fiIiIh0DVkREREREaYiqYaWyppo2aoMbN69I4EgXGxsLMzNzCSrpzM3NERMbHxRSGVIZM7hKNpaarleqRDltBFi1bhEWLJkhfW1avI/ff05Yw0pnZmb4CtpmKiQ0WGpmqemESfnmu17Ys38bGtVvibatOqJIoWLaCBERUUIMWBERERERpUEqKNSscTupC6VnOmXNkl1qSIVHGKf4KQ997iOHSQBJBbPKlqmMs+dPwcLcQjK1dCdOehjOkQPt23RGnVqNsX7Tcm0kngp4lSheFk0atkaBfIW1XqNrhuswNzOHW47cWk9CPr735dwN6jZHnZqNcDNRPSwiIiIdA1ZERERERGlUzer1UapEeWzcshKhYaEoWMAdhQq6Y+WahZJBdezEEew7sB01azTQnmHMjipXpjKuXr+IMqXjpwMqKtCkgkp792+Tc6oVCBPTs7esrKzlUadWCjx5+iiKFy0N77PHpR0ZGSljBw7vkkf1tb2OH5L9P/76GSWKlUVoaLC0iYiITDFgRURERESUhlSuWEPbM1JZVi4ZXbFz90Zpf9lnMGxtbbFs1TwcPXZQiptXLFdNxlQ2lZo2mD2bm+yXKVVR+qtXrSuPn/YegBLFymDB0r9w+sxxTPllgRzTf3BvGVcyZHDR9ozccuSSR39/X1n9LzwiHLduX4/bsmV1g7fhXMr8mRsQEPAEn/brCCcnZ7m2bFly4IdR/WSciIhIZxYQGGxc5oMoCVu3boG392kMGDBQ6yEiIiJK+5YvW4q9e/egX7+f4eKSReul/2LN+sUICQ2Rwuqm9h7YjjNnj+PzTwZpPWnfrl0rsW/fOgwZ+gPc3Ny0XiIiepWYYUVERERERK9ZwuLsRERE/4QBKyIiIiIi+s8K5C+CksXLaq14arpiLZMaWkRERMnBgBUREREREf1npUtWkC2x5/UTERG9CANWRERERERERESUqjBgRUREREREREREqQoDVkRERERERERElKqYBQQGx2r7RM/YunULvL1PY8CAgVoPERERUdq3fNlS7N27R2sR/TtDhv4ANzc3rUVERK8SA1b0QgxYERERUXqkB6wcHJxhbs5JB/RywsPDEBERxoAVEdFrxIAVvRADVkRERJQe6QGrfv1+hotLFq2XKHl27VqJffvWMWBFRPQa8eMkIiIiIiIiIiJKVRiwIiIiIiIiekU8PT0wfNj3Wiveli2b8b+ff9JaRET0TxiwIiIiIiIyuHjpjGyPn/gnaKuNiIiIUhYDVkREREREBh5eB3HS20trAQGBAdizfxv8Hz/SeoiIiCilMGBFRERERPQcoWEh2l7y3H9wBydOeeLk6aPwe+Sj9f53R48fwsHDu+FleIyNjTV8nbvSVtvLuHbjMo6dOCKPREREqRkDVkREREREJmJioiUopAQFB8mjsnXHOnT5qAUGft8HA4Z8LPt79m/VRoFNW1fjl8mjcfrMcQlYDRv9NfYe2K6NQo7v9dm7svX8tL20l62cq40C434aIn3DRn+FHn3aoscnbbURozPnTmh7RlevX4SP732tBXz02TvanjHANebHQTh4JD6gNXXGj1i45C9cuHQGi5bOxPRZv2gjREREqQ8DVkREREREJk57H8OefVsRFBSAzK5ZtF5g/6GdcC9SAj+OmY6fx81A9mxuhuO2aaOAnZ0denT9HN0690H3Lp+hRdP28Di6Txs1ate6I2ZOW4HZf6xC8aKlsXPPJm0EePLUX54/6off8Pf0NYiMisRuw3Xo9IytiIhweXxGbCzUf1GG561euwh2tvbaAHDYYy9u3b6OgV+PQuf3e2FAvxG4cvU8jp/y0I6gf+Pp0yfwf/QowRYUFISYmJhn+kNDQgx/NlHP9Kf0FhgYqF09EVHqZhYQGGz8+IgoCVu3boG392kMGDBQ6yEiIiJK+5YvW4q9e/egX7+f4eJiDErNW/QnLCwsZF/3NOAxypWujGpV6khbBbKu37wiQaOHvvcRHByEiaP/kDFFBSq8jh+Gr98DHPHchwb1WqBurcYyprKnOr7XE3Z29hK4WLh0JurVbiLBLd26jcvkvNGG8QOHd8lYQ8M5VMbU8RNH4F6kpHYkcOv2NTg5OqNd607S/ujT9pj5x0ps3rracN1PcMNwnbVrNkKNqvWwYMkMudZSJcvLsYrKAsuaOTvebddV66Hk2rVrJfbtW2fYM4OZmbFPp2fnmSUeMFBjSfWnJHUNtra26N37E7gXLar1EhGlPgxY0QsxYEVERETp0fMCVjY2Nqhauba0fXwe4PjJIyhdsoIErL4f1Rc3bl5F3dpN4JLRFWfPn0oyYDVv0XTJhoqMjEDTRm1RrkxlGVMBq1w588Lc3BwRERF48PAumjdpj04dPoobz5I5GypVqAFbG1usWrcoYcDqpId8XV1YWGjCgNVn7+C3ibPx3bDP8OPYP/HblDFyrSpgNWveZMnAsrd3lGNNqSAavRw9YDVk6A9wc3PTeo08PT2wccN6jBw1Rusx2rJlM86eOYP+A77Vet4MFbDat2+v/Bv4duB3yJs3rzZCRJS6cEogEREREZEJZ6eMyJu7gOz7mhROV8Gqj7p9iV7d+uKdNl3wONHqgdHRUZI9o4JMaspdlUq1sGjZLG3UqFb1Bhg3YopMKezwTjds2rpKGzH6deJsCWC1b9NZ6zERG4sC+QqjQd3mhvM01DrjWVpYSpDrnbZd4JAoMJXJJbOsdqiCU/rWvnUnBqveQurvaJ06ddGkSVPMmTNb6yUiSn2YYUUvxAwrIiIiSo9elGHVuEFryWQ6euwQjhzdh4rlqkmGlcqAata4ndSAWr1uES5fvYC7925h0k9z5PmqEHv7Np1QtVJtxMbGYM2GJThz9gSGD/mfjOtTAls0NRZHn/C/oZKlNX/mBmmr8QWzNsr+qAnf4tLlc3j/ne5o1fw9ybBS0xHVFMIKhut58PAetu9anyDDqu+AbsiUKQuGD/5Z2mN/GizTEVWGlapfNXzsN/iyz3coW7oibt+5gcnTJ8hrKVemihxPyZeWM6x0AQEBGDJ4EKZMjc8QTMsePniAU6dPITwsTOuhN8ncwgJFirijcOHCWg/Ry2PAil6IASsiIiJKj5IbsDp52hMli5eTgNXSlXOxftMyObZUifKoUqkmZs2djMyZskpm1PmL3tiweYUEk1QtrFxuedC6RQfky1tInvNh71byqMuW1Q0/jf1TawHDx3wjK/+pDJh323aVfTUN8IN3eyBbNjecOOWJ8mUqPzdgNXL8AMPzuqBEsbLSNg1YKUePHcS2nevh5++LDM4ZJdtLZWvRy0sPAStVBP7bb/uni4DVpN9+xeXLl7QWpSbOzhkM/06GwtHRSeshSj4GrOiFGLAiIiKi9CipgBVRcjFglXr8MW0qzp49Y/hzyIcmTTrBzu7ZOm2U8tQU6SNHtuDUqUOwt3fAjz8ZMz+JXgYDVvRCDFgRERFResSAFf0XLwpYpRXpIWAVFBSE7wZ9i0yZsuPLLydqvZSabN68AB4e29G9ew9UrGRcgIIouVh0nYiIiIiIiNKca1evymOtWi3lkVKf2rVby+Pp06flkehlMMOKXogZVkRERJQe6RlWX3wxAXfuGH/pJfonGTK4In/+4sywSiWOHfPC37NnoUOHL1G8eEWtl1KT8PBQjB/fB6VKlcEnffpovUTJw4AVvRADVkRERJQe6QGrDh2+wOPHvggI8NdGiF6sWbMuDFilEgxYpX4MWNF/wYAVvRADVkRERJQemdawMjdnlQxKHltbe9jY2DFglUowYJX6MWBF/wUDVvRCDFgRERFResSi6/RfMGCVOryugNXde7cwado4NG3YBvXrNtN6Ae+zx/H3/Gn4tHd/FC5YTOulF2HAiv4LfpxEREREREREpMnplgf1ajfF7v1b8eiRr/TFxsbiiOc+lCtT6ZUFq6Kjo3D8pAcOHNqFK1cvaL3AKW8v7Nm/Lclt38EdcozeDg4OREREeFz75q1rMk6UHjBgRURERERERGSibq3GcHRwigsQXbpyDqfOHEPNavWlvWzVXPwx83+yr/j6PUS3j40r4um6fNQCQ0Z8gQn/+1725y6Mz2Z78PAuvhv2OY547sWtO9cxc+7vmLdoujYK3L9/O267fuNy3L7u0uWzCAkN1lpAaGgIrl6/qLWArwf1xPmL3rL/9Olj9B/cC1OmT5S2MnrCQOzet0X2o6OjMfbHwdi8bbW0iVILBqyIiIiIiIiITNjZ2aNB3WbYe0BlLV2V7KoaVesif77C2hEvNmnqWOTJnR/jRkzBd/3HyLl27tmkjQLrNy1HsaKl8NnHA9Gpw0f4ss9g3L5zQ6YjZsvqhnp1msmmrkPV2atTu4m0ixQqrp0hXnRMtPExKkoedSorTFm5diGaN3lH9pOyaesq2NraoknDNloPUerAgBURERERERFRIuXLVkHpkhWwe99WXL56HjWrNdBGADPDfzFaoEhnZhb/63W/z4eifp1mmDbjJ/w8aQQe+j4wHB+jjcJwvgtwL1RCawFuOXJh6MAJMh0xezY32TI4Z9RGjfR+U4c99+Hg4d2yb2FpKY+m1Ne5c/cmIiPDtZ6ENm1bDQ+vA+je5TMuQEGpDv9GEhERERERESVibm4hmVEXL59F6ZIVkTtXPm0EKFK4OI6dOIzf/xiPKX9OxOx5U7QRo6kzfsScBdPg4OCIUiXKo2C+ItqIUWRkBCxNAkxmZmbaXvKFBAfhyRN/2VQtq8RnUAGoVWsX4p22nRMEy3Rnzp1EWFiobPb2DlovUerBgBURERERkcGsuZPlF0yd+mXuq4E94urAENHbJyg4CJaWVnG1q3RlSlXEyO9/Q+0aDdGuVUf0/PALxMbGB4UOe+xF3VpN0K3zp2jSsDUe+tzTRowyZ8oGv0c+WsvwdYICZMrgy7zf2Ds4onGDVrI5ODhJLSpT/o/9kCGDC0oUK6v1JFSyeFm0b90J+fMWxMrVC7ReotSDASsiIiIiokSCggKlAHHDei1QzL2U1gus3bAUI8f1x4ix/bFh8wqt12jNhiVJbqpgsqKOP33muOwrqq2fY8fujUk+V22mv8BO/XMiho78Er9OHq31GB04tFOO9T57Qtqq5o5qs4gy0ctTgZ8t29figuHf3rad61CxXDWZspdY7px5UbZ0JZnGl5itrR1u3Lwi++oc/k8eyb6uWpXaUvT86rWLCAh8gl17t2DrjnUokMwaWToLCwv5WiJRlpZkV7XpLPsvyuB6r/2H2HtguwTpiVITBqyIiIiIiEyoLIntu9bD1sYWjRvGr/qlMrCWr55n+AW1MsqUqoAlK/7GijXxWQlqlTD1S6Hp5ucXn0Gxz/ALoe7W7es45LFH6svo9OeoYJm+rzadWmXM/4k/alVviIjIcGmbuv/gjrZn5OP7QNsjopdxytsLl6+cwzLDv/cc2XMZ3gdaaSMvVrJ4OW0PmDl1Be4Z/k2qf6eHPPZi2Hc/SWCp56ftZVzVt2raqC0WG95Hxv80VOpMfdFnEGwM7zvJYWVlre3Fs7SIn2LoliM3alSrjyyZs2k9CcUFuQyyZsmB9m06McBNqY5ZQGCwcekAoiRs3boF3t6nMWDAQK2HiIiIKO1bvmwp9u7dg379foaLSxbpUwEpla2ggkQPfe6j43s9E9SsURkXj/x90fn9XtIePvYbRESEY/zIqdL+a84kuBl+ua1eta6s7LV3/3Zcv3kFTRq0kpXFBg79BF06fixFnH+bOkYCXydOeeLrL75HWHionMPH5wF27NmI7FndUL9uM+lTbG3ssGb9ErRt9YHWYwxg9e7eD3VqNZYMqyNH98sqX3kM1/zkqT+27lwvGSDNGrfTnkGvyq5dK7Fv3zoMGfoD3NwSFsFOK0JDQvDtt/0xZeofWk/ac+yYF/6ePQsdOnyJ4sUr/p+98wC0o6j+/3k1vUM6CR0SCC0gSJciKvaCovj3hwWwYMUCihXEgg0poqIiKmIBAVERRaqAEHrvEFpICOnJ6//9zOz37Xk3LyFAIA9yPjjOzGlzdnZ2773z9t6U0qAv0VLc24477jCbNm1rO/Sww0ppEKwa9ffdd1/alKAOXlxi7tccMfdrhpj3NUfM/Zoj5n7NEPO+5ng5zD1PVLAxtWjxglKSec2+b7JHH3vIDjn8ADv4sDenr/r19kPGTY1N1qAnHcp/Vt4z44ari/+vs/b2tiwoYEOKAvqn6euK/7ycJyI+c+SH0hMa/3fo8v/8/JDBQ+2ue261i/7zV7v2+v+W0uCFJu43a45Zs2aVrSBYe1ib7jn1997LC22XUQcvLjH3a46Y+zVDzPuaI+Z+zRFzv2aIeV9zvBzmft+9Xm87TN/Z/vr3P9uSJYtLqdnBh77Z5s172n764z/YL3/yF9t4o81LzarDv9r155X8q10r4pLLLrTf/P6n6Qeef3HK2farU88tNT0ZNnREdwleHOJ+s+aY9UR87TVY+1ib7jn1G2+8SfHCWWfUwYtLzP2aI+Z+zRDzvuaIuV9zxNyvGWLe1xwvh7nnK4H77vWG9ATU3y+qftOlrejzr3EJfiz52fLIow/btC22tfUmrN/j96meCb5ayGbXm17/ztT/z2UXptqzcNECGztmQvqh+E02nlJKgxeauN+sOcaMHVu2gmDtYW2659RvtNFGtt9+rzHq4MUl5n7NEXO/Zoh5X3PE3K85Yu7XDDHva46Xy9wPGzo8/fbTP/55rl1/0zVJxgbTfy6/MP2Lfkd/45O23TY72ezZT6R/in5FdH81sOTfl1xgb3599TtUvcHvaNUyccLk9ETWeRecZWef9zs7/bcnJ/nT7l8eGzRwcKrJc9W3woLnS9xv1hxjxvT+g+JB8HJmbbrnxL8SGARBEARBEAQFo0aua8OHjSx7lv65+v1f8zZ7+OEHUv+Mn/81PeV0yeUX2m4772Wf+MhRtvHGU+z2O29O+nUK/1rWGVXJdt7pVfbafd+SfpBdbDB547JVMWL4qLJVwdcUyeXKqy+xhx6+L30l8C1vfLfddsdNpYXZ2DE9f/x73VGjy1YQBEEQvPSIfyUwWCn8mFv8K4FBEARBELzc6O1fCQyCVSX+lcC+QfwrgX2f+FcCg+dDbFgFKyU2rIIgCIIgeDkSG1bB8yE2rPoG2rBqbu633Ndvg75BV1eXLVu2JDasgudEfCUwCIIgCIIgCIIgeMnS1taanuSJ0vdKa+uy8iwFwbMnnrAKVko8YRUEQRAEwcuReMIqeD7EE1Z9g/hKYN+HTav4SmDwXIknrIIgCIIgCIIgCIIgCII+RWxYBUEQBEEQBEEQBEEQBH2K2LAKgiAIgiAIgiAIgiAI+hSxYRUEQRAEQRAEQRC8LPjzub+1X//uJ/bIow+l/u133mynnf5j+9fFf7WOjo4kC4LgpUFsWAVBEARBEARBEAQvG7q6ev67Yh0d7WUrCIKXErFhFQRBEARBEARBELxs4Emqzs7Osme2eMnismV2/t/+aCed+p2yZ/aHs39tn/zcwWXP7Mqr/mNHf+OTZc/s+huvSfpFixaUkiAIXixiwyoIgiAIgiAIgiB42dDQ0GiPPT7Trv7fZbZgwTwbOmRoqcl0Ff/B4088Yjfe9D9ra2tL/VqWLVtqvz3rZ/beAw+xwYN7xgiC4IUnNqyCIAiCIAiClzwf++iHbd68eWUvwxMWyFtbW0vJM/PgQ/fauRec1aPMnvNEqQ2C4KUAXwG88+5bu8uKNqTOPvd39sb9D7Bly5aUkoo5Tz1pP//VCbbDdjvb9G1fWUqDIHgxiQ2rIAiCIAiCIChZsHB++pHmjvb2VO67/65SEwTBS4XGxkbb6RW7p/KK7Xe1pqbmUpOpq6uzm2+dYUuXLbGpm2/V629enfzT79gtt19vW2+1QykNguDFJjasgpXSr7nZWpa1lL0gCIIgCIKXN4sWLbSBAwbZa1/9Fps8aSNrba3eB3V2dtif/nKGHfmVj9pnjvyQnXra923e/Lml1uz9H36r/d+hb0rl4EPfbF/48kdKTeaYb3+++JB8fdkz+94JX7MfnHhM2TO77oar7JvHH2Wf+sIH0hhn/vEX8a+aBcFzoL293QYPGmKbb7pl6rMR7eErg2ef+1t725veU0p6gv7LRx5vb3/ze+13fzitlAZB8GITG1bBSpm21db2+OOPFW/eFpWSIAiCIAiCly8LF823IYOHWmNjUymp+Mtfz7J77r3TPvfJr9u3vn6SjRgxyn72yx+V2szuu+xrvzr1XPvlqX9JT3n836FvLjXFh+YF1VcWr51xpTW5MXjS48/n/Mbe8Nq323e+8RM78ohvpqe7/vGvc0uLIAhWlfr6nh9z+/frX7Yy/Zr72UYbbmYbrL8Jj1vl0gv77LW/DRww0M4+73elJAiCF5PYsApWyqhRo2y77abb1776ZXvggQfS47JRokSJEiVKlCh9rcCzldfCUxnz+YHmocOW+8AL/7vuCttzt1enjSq+YrT3nq+zu+6+tdQuz6SJG1hDQ22crvTbWn8+97e25RbblTKzAf0H2rFf/bFtOXWbInaTLV26JOXDB+sgCJ4dtddvc811dPe9t6ffrhI8jdUbdcV/73z7wXbJZRfaAw/eU0qDIHixqFuwcHHvr9hB4Dj3L+fYv/510Qrf4AVBEARBELyU2GOPPe3SSy+xT3zieBsxYt0kW7R4oZ1x5k9ts02m2l57vNZm3HC1XXTx+faB9x1u664z1j76qffY0CHDbcHC/KQU7cVLFtkJx5+e+nwl0H+FcNutX2Gf+fhXyp7Z5754qB104KE289EHbeHC+TZq5Lp26+032qc+9qXSwuzpeU/Zj07+pk1eb0Obstk023GH3Yzf2wn6Fhdf/Ge77LLz7KgvHm3jx48vpS8tli5ZYp/97GfsxJNOKSUvPWbMuM5++YvT7IADDrepU7dPsjvvypvIgwcPsYkTJnf3YZONp1hDQ0PZC14MWlqW2nHHHWbTpm1thx52WCkNglUjNqyCZ0VLS/yeVRAEQRAEfY/PfPqT9uWvfNWGDRteSvK/EvjZIz5tx33rO9bc3PNHl8879y/LbVjd/+A99sszTrJ3vf1g22LK1sttWH3q8++39x54aNpI8gwYMDDVbFjt+sq97P3/72Op/6vfnGz/+s8F9pvTLkh9Nqzed9CH7Senfd+OP/andukVF9ltd9zUY8NqydLF6cmqJ5983M4481TbZqsd7C1vfHepDfoKsWHVN+htwyroW8SGVfB8iA2rIAiCIAiC4CXPxz76YTvm2ONs+PCeG1YfP/yj9v0f/Gi5Das//uGsHhtWCxctsMuuuMhmPvqQHfj2g62+ocHuvud2u/SKf9qB73i/DR481E7/7Sk2bOgIe++Bh6QY/LP3V11zib3hdfmrRbUbVpdcfmH6Z/H9htXUKVvb5Ekb2qt2f41ddPFfu5+w4l8mvP2Om9LmlJ4AYcOKryh+7NDPp37Qd4gNq75BbFj1fWLDKng+xG9YBUEQBEEQBGs9Z/3pV+l3bbo6O+3Xv/uJ/eqMk9JvVvHbN+decJbNnTvH3rT/O+3mW6+zU35+vP3m9z+zH/z4G9bivgIIM264yj726ffaRz71nrRZVfs01iOPPmR77rZf2avYZKPN7aGZD9h3fvjl9K8Dnnb6CXbFVRfbTjvsXloEQbAili1bYosWzY/SRwvEv3gaPBfiCasgCIIgCILgJc/zfcKKzaX1J29kI4aPLC0q/n3J3+ydbzs4PRnV0rLM7rrntlSPH7eeTRg/qbRaPdxz3x329NNzrX///ul3rIYNG1Fqgr5EPGHVN9ATVhtvvJWNHDm6lAZ9ic7ODrvuuv/YqFHr2Fe/9vX4Tb7gWREbVkEQBEEQBMFLntW1YbXPq/YvLTL3P3C3nXb6j+2Q938qbVgFAcSGVd9AG1bbb7+XjRs3uZQGfYn29lb7+99/a5MmTbbPff4LpTQIVo3YsAqCIAiCIAjWOp7NhtX5f/ujvfkNB8aGVdBNbFj1DeI3rPo+8RtWwfMhfsMqCIIgCIIgWOv54P99fLnNKthwg03tEx/9YmxWBUEQBMGLTGxYBUEQBEEQBGsd48blp2IeeOD2VAfBs+GBB+5Itf8KahAEQbB6iQ2rIAiCIAiCYK3jFTvumOrzz/+lzZo1M7WDYFW49tqLbebMe2zddcfYwIEDS2kQBEGwuonfsAqCIAiCIAjWSq655mo749enp3a/fgOsvr4htYNgRbS2LrOOjva0Vr5xzLE2bNiwUvPSI37DKngxiN+wCp4PsWEVBEEQBEEQrLXMnDnTzvzd7+yRR2ZaV1e8LQ5WTmNjo2211Vb27vccZP369SulL01iw2rFLF26xB57Yqa1tbXZ6HXH2cgRo0pN8GyJDavg+RAbVkEQBEEQBEEQ9GDOnNn2ta9+xX584smlJHi58XLesGLD6cGH70v/+uenDz/a1l1njDU35w3GX55xkg0fPtLe8oYDU/+c88+0hx6+3/bb+w02ZfOt7NHHHrY/nH26zV8wz5oam23xkkX2hte+3V654x7JPnh2xIZV8HyI37AKgiAIgiAIgiAIXhb857J/2PE/+qr95fwzrb29LW1QnXDKcXbDTf8rLaz7acqn5s62q/93mS1Zsij14Z//Pj/pP3bo5+2IT3zFdnrFbnbe3/5gs+fMKi2CIHixiA2rIAiCIAiCIAiC4CXPbXfcZGf96Vf2qj1eY28un6D6yIc+a5tsNMX+dM4ZNvfpOUlm5YbVtTOutA3W38SWLVua+nD7nTfbNlvtYOuMGm39+vW3nXbYLT2xde99d5YWQRC8WMSGVRAEQRAEQRAEQfCS5/4H7rbJkzaynXbYvZRkdtlpT1uwcJ498OC9pcTSV/14uooNqbb2tlLKD+u32MgR65Q9s1EjR9vQocNt7rynSkkQBC8WsWEVBEEQBEEQBEEQvKSYP39+2aro6uq0xsYGq6srBSX1DQ3W0NCY9OK6Gf+1YcNG2GabbNH9FUGgja1oSL4N1tnRUUqCIHixiA2rIAiCIAiCIFiL+eaxxyxXTj7ppPTBvTddELwQdHR02Mc++mFrb28vJb3DRtVPTjnJvnjUF+yif15YSjPrT97YZj7yUI8nqeDOu29NP7o+ccL6qV9XV2dXXXuZ7bjDbqnvYXPK/6bVkiWL01cGBw4cVEqCIHixiA2rIAiCIAiCIFiL2WWXXZcr06dvnz7U96YLgjWB36jq7OyyY449zvZ99X6lNrPFlK1tt132sZ/+8od25VX/SbKzzj7d/v7Pc+w1+77Jxo4Zn2SNjU3W0d5u20zbIa1zisDm4Uce6H7qivbT856yieMnp34QBC8esWEVBEEQBEEQBGsxe+y553Jlx512XKEueHlQfQmub8NG1Sk1G1Uf+ejHbPjw4aVFBV/le+ub3m2Hvv9TNm2LbZNs+rY72Yc/eITttcdrUh/uf/Ae2+kVu+enpmo2rJBfc+3l6V8LvOa6K+xvF55tO2y3s2280ealRRAELxaxYRUEQRAEQRAEQbCWMWDAgFQ/+eSTqe5r+Cequp5ho8rTUN9gG224Wfqh9E03mWobb7CZjR+3XqGpNqWGDhmWNrKA37XiXxEUu+28j7359QemH3C/6ppL078i+M63H5y+KhgEwYtLbFgFQRAEQRAEQRCsZfBU0Q47vMJOOflE6+ysfox8TdPbV/9WZaOqlimbTbOPHvI5Gzmy+hf/4OD3fjSV4cNGpv6A/gNTf8rmW6V+fX297brzXvbhDx1hn/zoF+0tbzjQBg8aknRBELy41C1YuPil8jRoEARBEARBEAQvAnPmzLavffUr9uMTTy4lwcuV737nWzZz5kzbcstp1r9//1L64tPa2mo33nhDag8bNtw22GADa25uTv0VscWWW9ovf3GaHXDA4TZ16valNOhLtLQsteOOO8ymTdvaDj3ssFIaBKtGPGEVBEEQBEEQBEFi4cKFdvaf/2Qn/viE9KPTbGZceukl1tWHnsAJVi+f/dwX7PDDP2FDhw4tJUEQBH2DeMIqCIIgCIIgCAI75+w/27///S/baKONbNddd00bGI888ohdeumlNm/ePDvk0MPSUzhB8ELQ0dFhn/j4x+xrXz/G/viH39utt95qU6duYe9+z0Er/DrgjBnXxRNWfZx4wip4PsQTVkEQBEEQBEGwlnPGr0+3yy+/rPhgeZx9+ctftr322su23357e/Ob32w/+MEP7OCDD7afnHKy3XzzTaVHELwwDBs2zA778Eft2G9+y+rr6+xLXzzSTj7pxLRpGgTB2kVsWAVBEARBEATBWsxdd95p11xztX3lK1+x8ePHl9Ke7L777nbIIYfYz356anoSJgheaPzGVV1sXAXBWklsWAVBEARBEATBWswf/niWvfGNb7SJEyeWkt7ZZZddbN1117V//+uiUhIELzxsXH04nrgKgrWS2LAKgiAIgiAIgrUUflh91hNP2L777ltKVg52PI0VBC82vX1V8KJ/XlhqgyB4ORIbVkEQBEEQBEGwltLS0pLqIUOGpPqZmDx5ss2fP7/sBcHqo6GhwU486RRrbGwsJb3jN672ffV+pTQIgpcjsWEVBEEQBEEQBGsp2hzQxtUzsWDBAmtubi57QbDmYOMqCIKXN7FhFQRBEARBEARrKWxYsQF15513lpKV89///tc22WTTshcEay/tHe0268nH7bY7brIr/nuxLVgQv6kVBKub2LAKgiAIgiAIgrWYV+21t51++ullb8U8/vjjdv3119trX7d/KQmCvsW/L/lbKvPnP11KMg/NvD/J/3fdFaXk+THjhqvsZ7/4oX3vhK/ZOef9zm685dpSEwTB6iQ2rIIgCIIgCIJgLeYNb3ijLWtpsVNPPbWULE9ra6t961vfsunTt7exY8eW0iDoW0zfdie74qqL7dIrqn/Jkn9Y4Or/XWa33X6jbbP1K0rpc+emW66zC/99vm25xbb28Q8faUd84qt22Ac+Y0OGDC0tgiBYXcSGVRAEQRAEQRCs5Xz5y1+1G2+80T772c/aHXfcYZ2dnUnORtXFF19shx12mI0dO84Ofv8HkjwI+iLDh420vfd8nV125UX2yKMPJdmsJx+z/113pe26817W3NRsJ5xynJ1z/plJB3fcebP96ORjy17e4Lro4r/acccfZV859tN2+m9/YvMXVE9s3XDT/2yfYoxhQ0fYgw/da3ffe4d1dLRbXV3+aI39hf86z5YsWWzLli21C/7x5ySb+eiDSQ+fOfJDdtAH9rf3fvD1dtafflVKM/fef6f9+nc/KXL6ZsqLctX/Li21QbB2ERtWQRAEQRAEQbCWM3jwYPv2d463LadtZd/97nft4IMPtve97332oQ99yM4++2w76KD/Zx87/OOldRD0XV6x/a624Qab2n8uuzD1r/7f5UV/E5u25fTU742777mjbJn96z8X2H8u/Ycd+I4P2Kc++qX0G28/++WPSq2ljbAHH74/fS3wkccetvP/9gc7969nlVqzJUsXla2Kjo62smX2/z74Bpswfj37zWkX2P9792F2/t//aJde8c+kW7hogR3/w6/amNHj7R1vea8d8Nb/s1lPPpF0QbA2EhtWQRAEQRAEQRBYXV2dvfWtb7MfnXCiHXnUF1P/Bz88wY771ndsh1c8/69SBcGLAU9R7b3H6+y/11xit91xo11z7eW22857W1NjU2mxcq665lLb+1Wvs/Unb2TDh4+01+z7ZrvnvjvsiVmPJn1nZ4c11Nfbew881N719oNtv33fZP+bcYU99PD9Sc91A3PnzbE5c59MbT19Bb/++fn26cO/nNr77vX6VM+fn3+wnSeylixdbK/YfhcbP249Gzd2QpIHwdpKbFgFQRAEQRAEQdCDfv36pbqpadU+5AdBX2KzTbewvfZ4TXrKio2nrdzTVQMGDEybTwsWzre5T8+xRYsXlprMU3Nnp9/A+vzRH07lByd+w/r3H5Bsgd97mzhhcvoXNmG9ot2vuX+3vq74j6ewLrzovFSemPVYkoszzjw1fR1QxTNq5Lo2ZbNp9qvfnGLn/e0P6emtIFibiQ2rIAiCIAiCIAiC4GXFrq/c2x555MH021We1+77Zpsz50n72jc/Y6f/5hRbsnRJqck0NTXb6179Fjvqs8el8pmPf8W+/qUf2oTxk5N+yOCh3U9RZYp20ee3rwQbWvwoO2XsmPGlNMPvWx383o+mrwRSPPX19fbZT36diGnja/Tonr5BsLYRG1ZBEARBEARBEATBSx42jZYuW2qdXZ3ph9c32XiqbTFlm1KbYTPp6C98x7533M/tU4cfbaPXGVNqMvze1d333m7Dhg5PhSeprp1xpS0tN7bWGTU6PTWlDarHn3jEFi9ZZKNGrpP6jA1bTt3Gttpyu9Tu6OhIteCH4XtSbXb946K/2LKWZfa6/d5qO26/aykNgrWT2LAKgiAIgiAIgiAIXvLwL+yddOq37Ze/PtFuvf0G22vP15aaVWf//d5m1874r/3qNyfbuRecZT/48Tfs4ZkPdD8ptcP0ne26G66yP57za/vLX39vf7vwbNt9571t8qQNk76+/L0qnpDiP2hoaEi1+NLXP27f+cGX7X2HvMkG9B9oV/3vMvvTOWfYnXffmsb8f+8+dDmfIFgbiQ2rIAiCIAiCIAiC4CXPuLET7ZU77mHrT97YPnTwJ22Dol4VDvvgp8uWpY2nb3/jFNtsky3S1//e/pb3pq/wiW222iH1edJq0MDB9vrXvt3esP8BhSZvTm2y0ZQeP/DOhtTk9fJmFvA1wCmbbZV+Z+v0n55rPzvpj7bjDrvZuuuMsba2Vvv4h49MP7guDnzHwTZ40JCyFwRrF3ULFi6unj8MgiAIgiAIgmCtZ86c2fa1r37FfnziyaUkCPoeM2ZcZ7/8xWl2wAGH29Sp25fSoC/R0rLUjjvuMJs2bWs79LDDSmkQrBrxhFUQBEEQBEEQBEEQBEHQp4gNqyAIgiAIgiAIgiAIgqBPERtWQRAEQRAEQRAEQRAEQZ8iNqyCIAiCIAiCIAiCIAiCPkVsWAVBEARBEARBEARBEAR9itiwCoIgCIIgCIIgCIIgCPoUdQsWLu4q20EQBEEQBEEQBDZnzmz72le/Yj8+8eRSEgR9jxkzrrNf/uI0O+CAw23q1O1LqdlPf/HDslUxZfNpttvOe9u5f/293Xn3bTZyxCi79IqLku6IT3zVttlqB7vuhqvssssvsgPe9j6bOGFy0nV0dNivf/cTa27uZ+955wftl2ecZG1tbUnnedUer7FNNtq817EbGurt1fu80dabsH7q/9+hb7L29vbU3mWnV9mHP3REar8caWlZascdd5hNm7a1HXrYYaU0CFaNeMIqCIIgCIIgCIIgeNnQ1dVpG6y/sU3bcrvu0tjYlHRNTf1sydLFttcer7XfnHaBHXXEN+34H3016bbaYrrV1dfbLbddn/rw6GMP22133GRbbTm9lJiNGTOuO+6GG2xiXcV/grEnT9qwWz9h/HpWX99Qas3e+8HX2y477ZXGplx59X/skssvLLVBEHhiwyoIgiAIgiAIgiB42dDekZ9e2mba9rbj9rt2FzF79hO20YabpfbUKVunmo2p5ubm9KTVzbdeb4sXL0ryW++40dafvJFtusnU1BdbTNmqO2ZbW2uqobOrM9Vbbzndti1iAU9piTN+/lf70MGfKHuZBQvml60gCDyxYRUEQRAEQRAEQRC8LKmvr+8uYsSIUWWrYt78ualmo6mlZZnddseNtnDRArvt9hvT01X9mvslfQ/qyvpZ8KOTv2kHfWD/VHjaKgiCFRMbVkEQBEEQBEEQBMFaQ1tr9USU6N9/QKpHjlwnPWV1y2032D333m7Lli21LcqnsFYH1864svvrgDxtFQTBiokNqyAIgiAIgiAIgmCt4bEnHilbFRtM3rhsmW09bXu7465b8m9XTZtuo0auW2pWL/++5G+p7uqKfwctCHojNqyCIAiCIAiCIAiClw2NDY1lq3c23nAz+9inD7Jf/eZk+9DH3mHTt9mpxw+j86Pp/P7UzEcf6vFj6yuiqam5bBUfsOuW/4jd0FDFhsM+8S777BcPtXPOP9OGDh1uf7/oHPvTOWeU2iAIRGxYBUEQBEEQBEEQBC8bttxiWxs4cFDZWx5+lP3H3zvD9t7zdfbdY0+1Tx1+dKmpGDxkqI0bM8EmTVy/lGT48fV1Ro0ue2YDBgy0LaduU/by2IMHDyl7ZsOHj+zxg+18FfAnP/p9GvfEIoeTf/Db1H/7W95bWgRBIGLDKgiCIAiCIAiCIHjZsMtOr0qFzaTeqOO/ujpbb+L6NnzYyFKav5r3xKxH7Yab/mc33zLDtttmR2uoeVpLsYcOGZ6eplJ/k40276Fnw4zfxVJ/vQk9N76CIHhmYsMqCIIgCIIgCIIgCAr+cv7v7YJ//Nl23GE323LqtqU0CII1QWxYBUEQBEEQBEEQBGsFr9vvLfaNL/+o7PWEp64O++Bn7Euf/7a9eu83LPfbU0EQvLjEhlUQBEEQBEEQBEEQBEHQp4gNqyAIgiAIgiAIgiAIgqBPERtWQRAEQRAEQRAEQRAEQZ8iNqyCIAiCIAiCIAiCIAiCPkVsWAVBEARBEARBEARBEAR9itiwCoIgCIIgCIIgCIIgCPoUsWEVBEEQBEEQBEEQBEEQ9CliwyoIgiAIgiAIgiAISv54zq+7y78v+VspDYLgxSY2rIIgCIIgCIIgCIKXBT//1Y9WWOY89WRptXKGDhmWygMP3lNKgiBYE8SGVRAEQRAEQRAEQfCyYIP1N+kuN986o0d/VdlvnzfZbjvvU/aCIFhT1C1YuLirbAdBEARBEARBENicObPta1/9iv34xJNLyUuLww49xI7+8ldswoQJqX/az39mjz32mH32c5+3/v37J1nw0mfGjOvsl784zQ444HCbOnX7Upq557477fgffsW++Plv2aSJG5TSzD//fV5Rzrf6+gZra2u1vfd8ne3/2rdZXfGfWLJksZ146rds+ravTHrP5f/9t/3173+yrq5OW7Zsme22y972tjcdVMTLz4NcdPH5dvpvf2KNjU02bYttrbm5nw0fNsLee+ChSf/5oz9s664zxoYVsksv/2eSTdlsmn3xc99K7TP/+Au74B9/Tm3Yetr29tlPfi21f1/ohg4dbldefUnR67Ldd9nHLr3iovRE2Oc+9XU774I/WGdnp11z3RWpft1+b7F//ecC699vgH3+M8dYc1NzivNi0dKy1I477jCbNm1rO/Sww0ppEKwa8YRVEARBEARBEAQvK+bOfapsmf33yivt4osvtre97e2xWRXYHXfebH885ww77INH2HeO+Ykd8Ymvps2hW269vrRYOY8+9rCd/puT7T3v/GDhf6p95ajj7doZV9p/r/5PaWFps+q7x55qvzr1L/b2t7zXnp73lDW5jaINJm+cNtSuuuYS+81pF6SizSogH+Ij/9DBn7SbbrnOLrn8wqRraGy0J2c/YV/+wnfSBtsjjz5sR332OLu9OK45T822hoZGm7/gafvqUd+zYUOHF8d7ix39+e/Yw488YE/MejTFCIKXCrFhFQRBEARBEATBy5J58+bZOX852972trfZ1C22SLI5c+bYscceY+9597uKcqB997vftpaWlqT7/Zm/s+9+59vLlVtuudkuu+xS+/jhH0t2cMvNN9unP/1Ju/fee+zLX/5S0tUWuOiif9rHPvoRe+cBb7dDD/mQ/fX885IciH32n/9kixYtsrlz59rPfvZTO+Xkk+yJJ54oLYLVzc23XW/TttjO1p+0kbW3t9uY0eNtu213sptXccPqlttusMmF79TNt07+w4aOsO2328VuunVGtx7GjZ2Y6snrbWhPPfWkNTQ0pD7wZNXixQvtF6ecU0p6wkbVa1/9ltTeY9d9U82TXFBXV1e0l1q/fv1t6NBhtv7kjWxA/4E2YMDAYh0vS/r5C+alPk9dTZ60ofXvP8AGDhiU9EHwUiI2rIIgCIIgCIIgeFkxcODAVJ/7l3Ns7Jix9qY35w//wNcD+/VrttNO+6X95NSf2pOznrTf/uaMUpvZaadXprLZ5pvbkiVLSqlZS2ve2IJf/vIXaZMJPvnJT9tXv/Z123W33Wzo0KGpTWFz7Ec//IH9v//3PvvdmWfZhw45xH5Y9B9//PHk19bWlurgxYPNnIdn3m9HHPWh7nLX3bfavHnVU3krY0HhzxNM3v9/111uT8/La2H+/KfTVwA9Y8fkzSvR1NhUtnrnqK9+zA76wP72f4e+2T7w4beW0ooqfp01NjTmVl31dcZufSFrbFxeHwQvFervu+8+u/DCfxh18OISc7/miLlfM8S8rzli7tccMfdrhpj3NUfM/Zoj5t5TZ0d/6Si7+OJ/2/bb79Dj6ZZPfOKT9t73/j/r7Oqy9rY222KLLdLvW3kmTJxg2++wQ2p3FXZCcZjnMWPGWGdHp82c+Yhde+3/7Omnn046GDlyZCpDhgxJG1VsfPEU1YYbbpg2tJ58clay028ezZz5sM2aFU9VPVtmzcrz+GwY0H9A+gF2vrKnctzXTrJDP/Dp0mLl9B8wwEaOWGc5/89/6utJP2DgQGt1G5vAVwL9Ouoq/lsR511wlj0884H0lBVfKTztlLNLTRBk1qZ7fT2PsHZ2dqVHWYMXl5j7NUfM/Zoh5n3NEXO/5oi5XzPEvK85Yu7XHDH3ni77xjHftDe96c129tl/tieffLKUm112+WV29Je+aJ//3BGFzdfttttuW8n2QU8a6uutZdky+9Uvf2kHv//91tHRkTabVjTvbFKcdtrP7JOf+Lh95StH27HHHNPzqao6swceeMD+9rcLUlmwYH6pCFaFWc/hq5ObbDTF7rn3Dlu6dEn6XSl+GP3XvzvVrp3x36Rvb29LxeNlG2+4uT308P321Nw5yZ/yl/N/b1ddc2nSb7H51qlmbcDSZUvT1/P8hpV0vbFgYc818Nfyx9fl78L0yqqu5eCly9p0r6/feONNrL6+zqiDF5eY+zVHzP2aIeZ9zRFzv+aIuV8zxLyvOWLu1xwx9xX6Gt9++73Ghg0fZuecXf2Layf++AQ78MD32Ak/Psm+//0f2sabrPp88a/Knfn7M23//fe30aPHFB8aO2y99SatcN7/8Y+/20033WQ//NEJ9sMfnmDf+/4PbNCgQaW2oMtsgw02sF133S0VfpMoWHXGjB1btnqH326qZadX7G6bb7qlfe/HX7ffnvUz++FJx6QnmjbfbFrSn/Xn0+2Unx1vp51+Qtokuv2Om1KfAlM338p2eeVedsIp37Tf/v5nduKp37YZN16dntoCxty10L/vkDfaJz93sB333SNt4ICBPXaS/OZVLQe965BUf+bID9oRRx1il15+Yfq9qr//8xw7+7zfJV2wdrM23evrFixcHJuwQRAEQRAEQRB0M2fObPvaV79iPz7x5FLy0uKAd7zNfvDDE2zChAk2Y8Z19vWvf82O+Mxnbbfdd7fX7Lev/eQnP7X1N9jA5s+fZ9/5zrfTJsPRR385/ej6zJkz7W1vf7uNGzc+/WD69TNmpD5f+fvLOeekp6BOKfybmprSD6kf+83juj84/uEPZ9nNN91kxxz7zdQ/49e/Tj/Y/p3v5s0OvqLIb2h97vNfsK233saOPeYbNmXKFHv1fq+x1tZW+/Of/5S+pviWt77Nxj7DZkxg6dz+8hen2QEHHG5Tp25fSjP8K3ytrctsyJBhNmniBqW04t7777SnnpptgwcPST+grt944l/kWxFbT6vGePChe23Wk4+np6fY7Gp2/wogsCnV2dmZvkb69eM+a9O23M7e8oYDS+3aQ0vLUjvuuMNs2rSt7dDDDiulQbBqxI+uB0EQBEEQBEHwskI/ug7Tp29ffjXwTzZ79pO2wyteYT/44ffthBN+ZJ/4+OH2ylfubDdcP8NOPunE0qMn/vev+Arfew56b9qsgpV9tQu232F7u/vuu+z73zvejvnG1+3WW2+1UaPWsXP/8pe02dIjdrBa2WSjzW2LKdv0ulkFfLVvxx12Szb+B8nZlFpR8aw/eePkv9WW05fbrDrkYwfYRRefn84va+Tue2+37bd9ZakNgmBViSesgiAIgiAIgiDowUv9CasbbrjBRo8enZ6wgjmzZ9vMRx5J7W222cauu+5aa2lpKdrb2uDBg+3222+zhvoGe+jhh5LNxhtvnJ6wuvzyy1J/3LhxNm3aVqn9bOFfBLzn7rtt+IjhttVWW6cfX2cTa8KEiXbTTTcmm5133iU9YUVegF08YfXMrOwJqzXJE7MetW9863Pp96h40oonq9725oNK7dpFPGEVPB9iwyoIgiAIgiAIgh681DesgrWDvrphFVTEhlXwfIivBAZBEARBEARBEARBEAR9itiwCoIgCIIgCIIgCIIgCPoUsWEVBEEQBEEQBEEQBEEQ9CliwyoIgiAIgiAIgiAIgiDoU8SGVRAEQRAEQRAEQRAEQdCniA2rIAiCIAiCIAiCIAiCoE8RG1ZBEARBEARBEARBEARBnyI2rIIgCIIgCIIgCII1zhc+/zm79dZbyl7FJz9xuD3yyMyyFwTB2kJsWAVBEARBEARBEAQvC+6++zZ7/eu3tUMOeZO97W0727e+9flSEwTBS43YsAqCIAiCIAiCIAheFpx44jH2jne8337603Pt97+/1K699rKiXG7nn/97+9rXPt6jnHXWz5PPwoXz7XOfe7+95S072te//glrb29L8p/+9LspHrS2thQ2B9ujjz6U+h/96DtSDR//+LvstNO+X/bM9t57M9too3rbd98ppSSDzcc+dkB3ufnm65Lcxzr11G8nHbS1tdlXv3q4vfWtO9kHPvB6u/rqS5IcfvKTb9nGGzekcY499jOl1FKOV1/9n9S+++5bU19onK6urjTGgw/ek/q3336jHXXUIUlP+fnPv5fkQbCmiQ2rIAiCIAiCIAh6MGjQ4PShtr29vZQEwUuDW2+dYbvssk9qNzU12W9/+2/bYYfdUn/x4oW2++6vSYX1LQ4++LX2ute9w8455xrbdNMt7YtfPLTU9OT6668qW2b//OdfUn3rrdfb0KHDUxv22msT22OP19p993Xa5ptvZe961x6lxuyee24rxvqEff/7Z6RNMjFjxpWpXrZsqf3jH2enNvzsZ8enfM4++2r73vd+bR/4wP6lxuw73znS7r23I43jN8vmz3+6bGXuu++usgX5mNkU6+zsSG14xzt2sUMO+ZyddNIfbcstp5fSIFjzxIZVEARBEARBEAQ9GDBggI0ePdrO/N1vS0kQvDTgSaiBAweVPbP+/QeWrcyUKVvb9Ok7l73MHXfcZG1trXbRRefaqFGj7d//Pr/UPDOf//z7bfPNty57ZhdffI+NH7+efeUrH7PBg4d2P5EFd911q02atJE1N/crJRVsoH3pSx+2Y475SSkx+8hHjrQDDzykiPlXO+WU42yvvV5faszuv7/LvvvdI+3ooz9cSp4Z9ugWLVpg//rXeUW9sJSysddsjY0N3U+WBUFfoW7BwsXV1nIQBEEQBEEQBEHBggUL7MtHf9FGjx5je+yxpzX3ay41QfDCcNbvz7RddtnVJq63XinJ/OaMX9vr9t/fRo4cVUoyDzzwgF126SV2wAGH29Sp2yfZPvtMSU8KbbbZlql/3XVX2Hbb7WwXXPAHu/zyC+3Tnz4mbWh9//tHp82rd77zg7blloPt2GN/muzFm9707vSVQDbAPvaxL6X6da/b2k4//UKbMGGybbpps333u79MTzTlpxHb7AMf+HSRx0B75Sv3sr322j9tCv3mNycX4z6YYm699XC74Ya5Vl9fb+973372mc8ca1tttb3ttNN4O+OMi+znP/++vec9h5VfRfxD8iH2b3/7k8LvqjTGj350ZpJvuGGdHXXU9+yDH/x0arOBBYce+ub0FNdOO70qfSXwyCMPsT//+b9Jd/jh77R+/frbRz5yVNroOvbYU2399TexO++8uZizY9PGFUyduk0Rt/qa4fOhpWWpHXfcYTZt2tZ26GGHldIgWDViwyoIgiAIgiAIgl7p6Oiw88471265+SZrL9pB8EIy7+mnbdCgQdbU3HNz9Om5c23o0KHW0NhYSjKtLS22aNGiHhtWX/jCB2399Te2ww77Qtpk+uAH32Af+tARNm/e3BVuWO244zj7299uSk9XLVmyOP3uFV/rW9mG1VZbDUtfBbziiofs178+MT2hxYaV3zw64IDd7PHHHy7GfcieeurJ9PXAiy66I+n8htXOO0+08eMn2ZlnXpI2j0499Ttpw4rf3mJDad11xyaf7bYbZf/+9102YsQ6tsMOYwr9rCRf2YbV0Ud/xM4667KkO+KI96VNqeOO+5kddNDe6Wku4v/hD6fZDTdcneSnnPKt9FXK2LAK+gKxYRUEQRAEQRAEQRCscb7w+c/ZQe99r2255bRSkvnkJw63Iz77OZs4seeTVzNmXGe//MVpPTasHnvsYfvMZ95n/fr1s6VLF9srXrFH0T8m/ej6ijas+IocP8K+44572I03XmOf/ew3bb/93po2rG655Trr7OxMsdkAwueEE35vu+wyyb73vdPTxtAZZ5yUNrTYsNprr01TDg0NDfapT33dvvnNI+xtb/s/mz378bQJxmYS+A2rXXedbO9//yeL8qlivBnpN6bYsLrssgvTVwu3334XmzXrsbRBpiev2KRik+uJJx5NdVdXR9oYY8OKrxySM09ysVFGzkcf/cP0o/JsivXvP8AOOmgfO+aYU5LtG94wvZjL2SlubFgFfYnYsAqCIAiCIAiCIAjWOKtjw2p1wlNZntbWZfahD73Jzj332lLS96jNma9EXnXVxWnDak0QG1bB8yF+dD0IgiAIgiAIgiAIahg+fGSPAjy11JfpLecgeKkSG1ZBEARBEARBEATBS5gX50tDo0ePt3POuabsvTTYZ583rrGnq4Lg+RIbVkEQBEEQBEEQBMFLDv4FS7jnnptTHfQ9Hn747lSPHz8u1UHwbIjfsAqCIAiCIAiCIAhekhzxmU/ZsmXL7J3v/LhNmTK9lAZ9gblzZ9nJJx9l7e3tdty3vmNDhgwpNUGwasSGVRAEQRAEQRAEQfCSZObMh+3b3zoutRsbG4vSnNrBmoV/pZAfqYe3vu3tttdee6d2EDwbYsMqCIIgCIIgCIIgeMmycOEC++1vfmt33XWHdXR0lNJgTVJXV2fjxk+wAw54p2244YalNAieHbFhFQRBEARBEARBEARBEPQp6g466KDYsHqZc+WVV6Yd7q6urvRoZn19Q6qRSa6af6YVHXi9t5cOmXzUl14xJZMdtdereDugLXxcOG7P5sIOG3TEIZ7yzbEhx2XcnnElA8XJ7WwDXl60kq7qe3zs3C+80ziQdT6vOjvq0lbbcsstkw2yPC95zstQbqw8P9Ln+OizrL6+sTie/FekujrNbxmkB90BC3IewDx0Fj7EKkYiSJLn2A3WxTnmeIr/qIH2bbfdVo5Vob4/z+SpvCg956VC6056avq1+BiqsWtoaOhu1/rSJz5/bZOOvrdTztIJjUcBxRe1eh0H6BjRyU4ywJbv8/vxvC34+LVjg2QUbOkzF7KHWr1y9HLVPv9aP/WlQyYf9aVXTMlkR+31Kt4OaAsfFxQHmc6p4lP0V1W1mQ9i1MpAcUA24OXUtTkI6dSm4NvQWFw7RS0/2UlPIRdkPj/kgJ1q+apf/L/VlzJ8/fEqdqZaa4oH6H18+spNcp+X7BVXdtU4eST1lQd4Wwpt6CruwZ6GBs5LNcfcl+jX4mOoJsfGYr5BMZAJ+sRvb3+Brv8iV8nwVUwdI7ruvItaYNu2xq7/PBeSq/b51/qpLx0y+agvvWJmWXF8pR1yr1eRr/TMqfBxQXGQvbjXf3WeRNZVr785F85BY6qVexUj56p8kfn8kAN2qokrvZfLd/nrvzoO4XOvPTb6yk1yjoljoJZ9lZuOs1rLoL7yAMWkT1H8Wl/NhfTUOmaPj6Fa86B2rS99nXfp6Hs75Syd0HgUUHxRq9dxgI4RnewkA2xX7+t/Xm/Mheyh0uv4WG8vzvWv+7HsqL2e+3ytHdAWPi4oTvbr7fpv77Zbvdd/0e+xbLON/GhT8CU+tfxkJz3vuRvIpZD5/NABdqp5rcdOfdX44Lv89d8jyYT8AL2Pk/Ipc5Ncsallr7iyqx1HfeUB3pZCG2p98VEOQE2fOfb4GKpzro1lu7rGBX3WPOtCOsbzdspZOqHxKIBebajV6zggH2N1/KoFti/O+3+ui0qvHL2fap+/13t76ZDJR33pFVMy2VF7vYq3A9rCx62bPn16zxWxlrDFlPVs0sQx9veLrislz41ddppqi5cssRtvfrCU9C2mTJmSNqw46XkhVy/cHi0o3/YvBvgj06LziwskA9XIZCO9/BTfjwm+z5hQG/fY3ZuK/yc2siTqjutlGcas4mcwUF9t2SVhgr6OG7Kup222qZzyMaJzgQro5/zzhtW0adOyogfY+Bt3HqtnDdUc+pxSy71ZTRtOySDr0UlGO42R8nXnkhp5UdcRv8ilsC5E5U21kDPuLbfckro6R8D6UhzFpJYNdWNjU/d5z3lkG9W1IMe2mpMcp6mpqTsuNh7FBu8PtP340tHmNw/Qgc9FdmpTavU6BlCb2supGcvPE31sFB/QUZSbjwGylU763mqhcZHpuvZoPN+WHX38kVH8GEIyUI1MNtLLT/H9mOD7jAm1cQG9YgJ+2HsZ0NZYApnGU5vay4E+byhYF4Cu1pbax2as+rT5UslA8+f9akGuXKll52vQPaKxXEfSg+asiFac7/yhWXp0Wnu0kakotmypyQE7taVXbpD0qbWq139xjbUXx1fMERs6slFdC3LlIT3t5mbuI71f/2xO6Z6MTpthoI0rHYN0tJuaGpMOfC6yA+LS9xsqqV8eA3QfD/85OXWaAzdPfBDBRvML6Cj+uGUPspWue7xeaoHt8td/FVPj+bbs6OOPjOLHEJKBamTZpuiXevkpvh8TUj+Z96Xrn/cbPcf0fvqADLy+5vEqGWj+vF8tyJUrteyKqtsPaOt8IvPxtHkGPfV5flb9+s/vFbRhRT7SV+8r8nGJVb7+3fHJRnUtyLFVvkA7Xv8r36yv7Hwt8riNSZY/uGu8nvPk28yFYuGPjOLHEJKB6uxXxUee/kBayHQf9vdV8DkwJtTGBfR+TPyw735fW5LHfL7Xv3v9L/JMtmwAlPPvY2uOvAw0fxqDGqrRcnz5UsvO10A7n09/fed4mjOo1Xsf2shUkIFsqckBO7WlV27Q23igGNSyoX7213+eN+ULtJuamos6z7HGFPn+lMdEp/sYEMuPr9i0V//1X51voGasF+b67zmPqjOcg450fMg4xkqX0Xi+LTv6jIWM4scQkoFqZLKRXn6K78cE32dM8HGrWVqLmLTeOrbfPq+07XfYoZQ8d3beeSfba48d0wZYX4aTzQLgxYoLRotHBRlgQ2lra+uxONHT1yJisaldixYfNrVjgY+rhSkdKC52KtgpbjFC+n/nUuj4//yCKHxMdD1hbGrFzOCSx2E8+oyt+JWttwF/fDnXJO0u1RuEbAs6phyLPoW5SN2CKqYoTRN+3vRCrZskBVmW57HzB1gCcMPgfBfzhV0537rJF41cFfIiu+QvXe0aAGR5vOxX5VT1afMiA6wJxZBtbzWF2KAxqL2/kBwbPy5FN15Ah53QHOLPmxMPthTFQK/YtShPbJWb/EEy7LwthXxkR582NvjI1vvoeFRk5/vgc5W8t2uSojnBhtKXr3/V3kfxdByAH0jn0diKJZAzvnTEU9vbehtQnsCGTPcb27L4vOgDMVSAWLSll6/H56B1APIjh+zHucrnSHnxhkU5+/Oi8X0eQJ82/tL5NuMDfykmjvxog+/T7r7+izw6yw0k2fZWU5S7josPOOSuDSiBnKessKk+/OQYerIK0OlpLNBf9onf1rbi658Y6HVMtSjPPH41j7KXjLnyttx//QYWMtrY4CNb76PzriI73wefq+Q9r8nKR+sTG8rquv4bi9ccjlHjgI9LTRzpQGsDOxXsFFe191E8HQfgB9J5NLZiCeTkIx3x8utoT1tvA7ye5tdUjjuvE2Kp+LzoAzFUAB/a0mfffAzC56B1APIjh+yXj4OivJ799V9tVklHLLUZH9ATR360wfdps8kEjK0Ysu2tpugcagxq7y8kx8aPS/HzhM6fC+Io7kv79Z9jz3PkxxdZ3lH48v4/f3DNJftoTvClrI7rn3um7skqwL1acbkfcw/279sVl/FUsFdc1YoHiqcnbQA/kM5D38cUOafa6z+3vS33KC9TnsDcICeWil9z9IE/VjCWjhcf2tJTc+/0+Bz8upYfOVBTFFt5vVCv/xpTfrTB92k/t+s/z5vGoJ/989giy/O61mcVre28QVvl5M8FeeS4L8T1n+cP/Px5Wwr5yI4+bWzwka330XlXkZ3vg8+VuUCOrz/3KpoTbCh99f1/noW1jHVHDbPhI9a1xqbn/89q1jcOthEjR9uwoYNKSd9DiyEvmmrhAm0WAn1qwI6FJhshPbUWovqqtdhos9AUg7Z03oYYsqONjlr5qPiFm31Tlcht/o/xqZVXqkofyZkDpBxnPlbwYyHCJavKIEWdwtBKdvJFmEv2y0Zq5xhqlx1HJfO26f9dLC5T2tnAjwGKnec62yHLcuZML4zScw5ym0eTCYRNMTNJB4V3qvPYvMhUf2VS7dcAaEzQzZ9xkfGC4s8pfhTOKaivtvyAWusIFAPk15uNasZQbPo+NnL0yDgeIR/sVJSr8DHAj6O6Ov7qBUXzAPTVFhrHx8NG+SEnLhALG/p+LFBsxaCWreZKPrU59f3rv5ozb6c4koOOEbkKUBMTsFFBLnvFoK6Np3xUsEcH/AWWto/v15eQXv5qUxRL40ivN2venrbeUNHWmyV8icO8aE7Bzy/22CgeyE758WYXJKf2awAUD5a//jnHOb90ryn8uLcofu7nWNTyA2ryFTmG8tOa7irG7GmjmjH0gSjHqmLjywcoxvMbWcjQYaeiXIX/yh+gV1u1P35kFH8e6KstNI6Ph83qvf57np/anFbX9d9ejuNz9jbEQOePg2tHa1kFGwpt+QpvpziSg44RuQpQExOwUUEue8WgZt0C1x9t5aOCvb82ieXjr77rP8u9Pe2e13+OgS85cb79OVZb9jpuITvlt3qu/55jUhRffbXlB9T4CsUA+fVmo5oxFJu+j408z9FL/fWfD5A5rvwVWzGoq/f/Oj/ZpzYnxvLzCdJT+3Pv5cor2+SnqED3WNAfG7Dhviw74mFDrXxUOCYKbfkKb1e7OQHEpI1cBag1V9ioIJe9YlDrfp/jcW333MzCHh2o7eP79SWkl7/aFMXijxxe78cA6VZ8/feV1/+eY1IUX3215QfU+ArFANYz9pwPrWnwvoyhzzH0fWzlgMyfn+xTzaPieHwMkA+o9tckMoo/D/TVFhrHx8NG+SEnXyAWNvR1XPJXbL33oS9bzad8anNiLD/nID21P/derrxok4di+Jy9DTFkp9yolY8KNqkkz7WMx594Ov21t7xvdtOvOe8Ar4j+/ftZv349bRYsWJxiEbOvokUAetPFydeCqUUyai0ej+R+QdHXOBTiqy2QyUaLUPrafLwfoKt8kyTJIdvmQtO74ldL3tTqKVfc2vHl3ruu541MtuhVNBYuVaxKhm+eh6rkmwHtfO7yxcwYeX4o1Zg5aJUHuWGXY4Hq/NeKnHuWFXEYJLVyXRwRytTnK4FKmjyAsZONQzkI+hyDcgTlTRHYUZARX32Qv8alD7JXW/ZqYy8fwFY6inKgEB+ZbpYUQK41jwwb/XUKdFzyUQwVxfXxZOf7KpKh937eR21voyK98pJevsyH7CSrzdHjY1I0F0Jy/FXoaxyKP0aBTDb4yEY6n4/3A3TelyL8WBT6wq8FwfHIX+NofPmqll1vOmJTat/M8XU3bCj+TaRyoS8ZNlrrKsSjRk+uxKCvHLiOeSpHsVTn+4bmtrr+VEsPiq++auVF0Zig3JFLJnrr65iEYlIEr0Uaj/i0FYvNI/8hR9c/91PFwDbfX3M793u//rGjVg4U4iPThyUK+A9ayLDh64LUwPkFNlak17VP0bwpnua629/NvWz0ocT7eR+1vY2K9Jpv6eXLfMhOsvxhq5J7fEwKx+SRXLloPI1D8ccokMkGH9lIpzig1yyBzvtShB+LQl/4tSA4HvlrPI0vX9Wy0wdUUE1sPpD4rwyCrj3K87/+24sY1V+7ZaPrQWNS6/r2dqB8pQd0tNVXrbwoeY3k+ModuWSit76OSSgmRWBHQUZ89UH+Gtcfr2J4e7XzOVn++ldRDhTiI2M9SAbIteaRYdP3X/853z3nSL7Mh+yq9//53EruqWLm+JoLIblyURyNQ9Ex+ienkOlpKu7H3Gexkc7no1qgU3yNKXrOZzUP4NeC4Hjkr3E0PrX6ILukK+/70uVNwl5e/wu9yjNd/9z3tdZVmtz1317kyu8c6vVBNv56UI0MH28HqqUHZLTVV628KNgovnJHLpnora9jEopJEdhRkBFffZA/c6w++NesbN9zTomjXAFb2VErB4qOj/UgGSDXmkeGzXO7/qv5l53vq0iGPvtlmfdR29uoSK+8pJdvzqmaM6hyzHKPj0nRXAjJ8Vehz7xL549RIJMNPrKRzufj/QAdvtWKWovoLBbvkiWLbIP1J9qYMaNLqdm4cSPs4Pe9q+wtz6v3fZWNGzuy7JkNHjTIpm25eYrV2NhzgvsSnGzVXETq+0VBW32/cGhrMWnhqi0f2WKnRelvGmr7WPhQe50HO6H48qGb20madEWEsijvVCVbZD3D97TLY+e4ipnbkuUam6yvbKv5TAbd9tmO40Be6XKMUlmgFz3QTdXLQMcPWZ79c5jqBq45I4afP/qY4KsbfI5RntNCz39sUKUXewIXDuSRNPikGMXNq5AVs1PGyjJqtYGY9KvjysdUtatjUx9fFa0RimICfV8Devr4qMgHudas5sP7+jzw4c2FfBVXsYnj3xAojmqNWzs+bcbRMSoWNTLFV0yK3uRIrzEBW148kWkc6XWsXg7yrY0lPdD29r6t/BRfbfnIFjsdF0Wo7WPhQ+11HuyE4suH2scB2uqrDfQlE7ID5ep95YPc1+hU1GdNSA/J3j3BozUDPoZgHjWvysPLQP6AXP6KJb3mDJmfP9kQnyIZRfHkQ76yl055SaZYkuV/tKHKw/vBcm33lyLp8FXJG1XIq5iAra+B+yt9fMifIh/8yQXQg/fVX/oBH77yJ19qbCnEZANLX29J8iI2KJ7G9eOjo83x6RjRkxM1MsXXHFJevOu/5zXm7X2bMakVX235yBY7HRdF8JoBPhY+1LKj7dH5AsWXD7WPA7TVVxvoSyZkB8rV+8oHeVXn8aoPPvT5qzw/TF5z/fO6WdhA37j+q+OgZFn2VTz5VNc/67R2HWaZYmVZdUzKQzH9WL21QX18VXRuKYoJ9H0N6OnjoyIf5JpH5OB9fR74vLRf/6snTLwc5Jtj5XUL0gNtb+/byk9zqbZ8ZIudjosi1MZP93ZtWvmnrTzEEYpPjR21cpKOtvpqA33JhOxAuXpf+SD3NToV3Q9YE9KD7NHBM13/bEhpXuXnZSB/QC5/xZJec4bMz59siE+RjKJ48qmu/1V//adWG7wfrKgN6uOronNLUUyg72vQeeBzC34U+eRrQtd/zw0+8Hngs/qvf46ruh6kJxY1MsVXTEq8/6/WMig+dSVdi+A3rOY+NctmPf6QHf6xD9mY0XnT6rHH51pTwxLbY/edUt+DbNyYATbnqfmpv8EG69sHP/heWzh/VhHrCZs0cZ0k74toceS6urmy6HRRaPHIFtICKRcObS4UtVXkKx/fl0yLFFSDYtS2sVGfQp8Y0gNhqq5iYi9dbnsfNbmJVOjizEqfH+Q4PkZuS+7nk0py4hKLcIqZK+mpySP7yqbnBZyPXeMg8jvlKUxCueQYukkWVuX5o+aGrbqKwU0YdOPX71nlHBmvuEljX8ZP7QLWgs4rtloniomMHJDnc1etAfB+qnXs3LDVRkdRW7X8gFjYK6ZHx8da1/iqsfX23rY2DmgM5QYaE1mt3NfkC4qNLTKKzw0deSgueq8Df90i83rZKBfJvK1sfBwKbdkAbeVNu29d/9VxKGZv9sofZK/zDLWxNW8CnY+htuTMoWQaL/2geBFXc6uYtLFRwVbjogPigWypsVMsjSU9KJ5i9LTPa0lritqPqbnAh75ylY3sFV9yf/3zlCZ/AQY/BrGwochf5FiVLn+QyWOzceTz0Ji+xl59Yulrfro/Ch0fG04aX7WPDfpKILa1cUBj1G64EYN8e8h72dACzq/sNTd8QPE5kbPiovc6WH3Xf55nZBTasgHaypv2c73+G8o1CKpBMWrbtb//hg95SA/Iuu3LmL3ZK3+QvdYE1MbWvAl0PoY++GQ5X5uo/pWnPB4fnPLxam4VkzY2Kn5cdND79Z8/FOd2Hkt6UDzFwMbbU7Oxluvnc/1X73We/et/lR94P9UaO17/X8jrn3OoXF6c658YbE6BauAeq/us4gF+tWMQQ3qQjdpQ2ee5pa38QfY6z1AbW/Mm0PkY3U9ZFTVyzoX0Go9CXM2tYipnFV4zNa6OgXggW+o0ThlLY0kPiqcY2Ghs5aI1Re3H1Fz4nEE2sld8yV+867+aI19zT1SfWPojgda20PGx1jW+avwVAyrb1Xn9Z5nmR7Gx1dwg8zmRh+Ki9zrAXrkg83rZKBfJuO5kKxsfh0JbNkBbedN+Pte/1wvFqG1joz6FPjFoN4wfP/6ryWotYvacBTZ23cHFRLRY/34Ntvfeu9mkSRPtqblP24MPzbT9d5xke67XYG/ZoMVeNWWk7Tx1vG2w0Xi7+sZ7rKuuyV615872+tftac0NrfbE4w/aI488bpdfdae1tlbfoe0rrLvuuvbwww+7E1/9RYAitCAAOy0sLR6PdKAF7e0UmwtPFw74OLTl4+VATG5auvGBxkS312TeFOKfRIkcp2dukMfQ2Oj8WLRzHz2uy9upD5pDjU3s6viRVTFyPoqjF2bsLn6o08aMGVPayT6PSTPfpHMszS9U7ZyH8Da1MbHLf9HipsG5qOTYaC3Uojc2qS6PgacAdNN68sknk6/OEUUxgVp5KQ5jy1b2WV+NT0z8as+9t/fjeGRD7ecElKvQusRWsfCl4OvnReMi92NIrxq9bKWnr2NRTBXQeJJpbMXSC5z68lMN3tfLQT4UjeXzEN4XO4ra3g6kA/zA2yk2x615Bh+Htny8HIi5sutfNbG9XDKBbkXzB35s+crOoz622JAXMgr2oFy8DPBBprWHncbV2LKRTP7eD9TGxh9n7Xiqcz75jRQ2GjvL83iS1VLrI5muf6Cvc5RilTGBWnnRZjy101fp0j20kpXN7nGrp5mqtSX7XOdx5AfY6I0ZG1pep1wFfcCWAvgSm/HZnJJc4yJHpnykV62NSkjHWPxHX3OUjq30k0/SF3HTV7OLojmnRvfSvv7z00ey9nFoy8fLgXnkR181b6AxNZ6Ow8slE+hW3/WfbflgRF7IKLyfgvyBiXxyDIEPdlp7fu41tmwkk3/ll+0UAxt/nLXjFZ7dMSn5uKr3fZIrTvbpCcejOZGetr7+CPR1jhRXttTKSzq1VbxMEBM/xQXFlb0fxyMbaj8noFwFfcBWsfCl1B63xkXux5BeNXrZSk9fx6KYKqDxJNPYivXsr/9SWCIfSh6LdUBMbKs5Ug6AHUVtyYV0gB94O43Hcdc+xSpo616dS6koIObze/2vcl/tr//F8TQUr01sqiPHHpSLlwE+yLT2sNO4SedsJJO/9wO1scnHmakdT7Xy0XFpbMkVRz6eWh/JVvb6r5hArbykU1vFy4TGrT333j73U7MgyyDb5HzzfbnSKVdBH7D141Bqj1vjIs9jVOcKVKOXbdbnvo5FMVVA40mmsRVrdb3+y1/x5SO8L3YUtXuLKfADb6fYHLfmGXwc2vLxciDmiq7/uunTp1ejr2VsMXW99EZx6JDBNnjwoOKNo9m2EwbZxHk3WMfiBdbZsriYqWKS+g+0xoFD7a5BW9vds5el375qa2u1p+bOs2XL2uyuex4rI/Y9pkyZYldccUXZY6H0XPgsKF3IWhSqwS+s2oXOwuKCAsmxrY2vi0QLWDrZ+fFAsYiNr49H/+u7cHFVuWWynhO2Inn6/6IqQxXQyPLOukZrq2+2riI+8vqONmvqarO6tNHS0zfnk3PoOQ7HTo4aPw+U7WlxXGZfvKw9nRfmQxs5+Faon/1p500n+pWMIQYW9YSudtuyo8U2KcqEznYbmN44d9mc+iabXdy47yqO647G/vZYXYO1dr9JIcfynKT8cs75nLYX2qJf/EddJp9tivOH/Pbbbk8yfz4Vg1rtnvrqpik7nWOQrLf2sIHjbLv13mYt7QttUcc9ducjM6ytozXZ+Jsb48lXpXbNrUiPXNAmL6+TvWIob2zSMRVD1A1pss4hxfU0sHhhb8j21lbEWNZhnXNbrH5pMUbNOIB/7YuTxgTZafze2qL2eL1OPpJh+1K7/jnf9BUXpMd2RXLVklHXjg2Sr8hXx6I2yIfCG1p/nGpTdDwcA2/+pNMYoL78aWOHb5YVpZB5G+8jWf5gkuexdu6p6SOXH7Wf39p48pEddOdf6r0P7doxs2++7xWzUeRWPaEi3xW1Fc/nzD2RJ7KQ0dZTUOikr918WpEeuaBNXt3H53wUQ39t50OMNqvw0XXMpKS6gDqdh/JYRYpV1Mh50go7YmgM+dMG+itqCz/nPgbIJ8uq+QTFUg3eXnGz76pf/zxhpXF6y82PB/ptsL51/SMjd2JzPeWvZfhxsMuvqVzX5Roo0DFTdDzP7vrPMfCtZD3n2ftkWXXt5eu/t68u9ryWqKv5reaq8snHXoiTHdTG9D60e9NrDujrHINkK2pT1+ZMIV9ktNF7nWTUirUiPXJBm7y8TvaK4edAx0TNMWEHvvbHKvAB76dYFPnLjv6K2oVVatcer9qQ34OhV+75tQEUSzVoDGrFVTzlDJJj68fk3oodvvwRIvezTu9pqT2Kpfny8eiv2vVf5QXIVUtGLblH8uV8yw02xqzWWzUOdhR0/hz4edPx8LtU/FYVT07JV6gvf9rEwNfLvI33kUzjMo+1OVHTRy4/aj+/tfHkIzuojel9aPem1xzQ99eEZMu3qzmqzZl1zG/85fOh+1OVg2RVrGreVJQjckGbvLxO9orh50DHRK3rGHSd0ffHKvAB76dYFMWRncbvrS38nFcxyL3ykV7zCYqlGry94spXOYPk2NbGx07j9JabHw8US/Pl463VG1a77TLN3vmOd5gtXGxLliy2G+67xzaum2UT7AnrallinW2thVUxWU39bHFnk7UNHGv3NG9oW66/ifF3poaRw+33f/yjXX7lLSleX4SNkf/+97/dF4MuIKHF4hcObS00gY7iZeAXE+AntFC7F5urJfdx5auFjVw3J4o4dvemwh5fYpEDUi1+yRDm+PQ92abIoWgv6TfKHhsx1R4ZPtWeHjDe2hsHJp8BbQtt+NLHbMK822zi3FtsQMfi0rcah7ZefCH/xajs9ABhzge+eFmbbbnllqkNmgdPlmkus59knMP64iY8vb3Fdm9fYut1tlp/5MmqyIO8ih79YhZTa2Hh+3Bdo/293zC7q6E5xcikyeiOWzQKSc4lfbDkPLg+en4D7tZbbk3nLMurc+ePpZqrfP78zRt7+csOqP2NHV3/psG2w+T32MjB6xUfTpfau/d5g/3rlrPt/Gt/bXMXzUo2Wiceja21RPEfEmSjvo6ht7yANi/m/PO8itmtHzvAOl492myLYda5TrPZkOIOwU2iq5j91iL+onazJ5ZZ3f/mWv2ls61uQf5Xm/CnEKsWxab2uWlcavnJtvbY1PZjeby/bxNH8wAay8sAmY+pPAHb2nxUS+7jyveZrn8vl5/a1D6+ao/3o/Z2micfC1TLBx1t1hNtkG/CDYnMx6pFeg8y4qutGhkbAGxu+K/hCXKDfDyVzscD2SkvdDou+fjzoD5txVEM6mRXtIkle2r11YY0Xvrgwhulnjrup/kreVV+PC3lN5VUg9p8GJJMSIcvNYUfT1csYDz1a48Le9kBtmyONTc35a9ocL8v7/8aiwLoNJ+aH2wUjba/Jrln14Jctc9NefnxZKtxgFrt3q//nv6+TRzNA2gsLwNkPqbyhOq4eTWqclR8jam48tWGL/K+c/3n45YPOj4I8cQRbUh/6KkZC5D5WLVI70HGWLmdx5aM8cmTGryvZPqQJh0xFA+8r49LP/swx3njTTHo01YcxaCucq3GpFZfbfDjQa2u9tgUX7FUg9paDx7p8KWmvFCv/9QaA6iJo9qPCbT9NSk/j+ypfW7Yykd+2TYfq/dTuxorH5vQe0x0PhZxNA+gsbwMkGkMUJ6Arb/X5vFzjZz7Ke+ZiaF7PPjXned+/efj9fMhvB+1t1vx9Z/r7j9OFHlX13/OW761IPOxPByV9B5k5KS2auVce40IyXQ80vl44H19XPry8edBfdqKoxjUkvkxqdVXG/x4UKvreWzYkUeeWx8T1Na9ySOd7mGUF/f677lGa2NV12R1PB7ZU/vcsJWP/GTrx6FOr71Fl7zxlU54f98mjuYBNJaXATIfU3lC7XH7WnIfV74ru/7Xyq8EiodnPmnrTZpgE4YNt+vO/bPNvPt+u+b+J+yC62dbv+KN7QYTRlh98wCbucDsm+c/ZLMXLLGGJWbzbr/J1p+6td37+JP2l/P+VSy86iT1NfhK4IMPPlj2WCzLPzoPWkBaRLULU4vNL0LsequxUQz5qdZCBD+G/P0CrfVVvc/6PJZajUk46SQvJLnryJtL5TEW9f3r7mT/mvoxu3Hi/vbw0Kn29KBJNm/AWJtflDlDJtkjw6fY/aN3tlmDN7QhS5+0IS2ze0RlGMYmZs43iVM7H1seL/f1Ym32rwc73I/9l04FOe88N5nsn2Wyq7PiJdLe0bLAXt++0MYWb5Ibual36zmykjQvxQtp8eLar+iO6my3LduX2vz6Jnu8mGfFzP8aIP8jzyzvjlGiNzrpBaRoz5o1K+Wb57/KWcfuX3QgxyVOvlnpPIO3Ax+vqX6A7bDBgTZq8KSUY0dxDLtOe6VtMn6aTd9oN3t07gM2a94jaTxQTqolA41DLZls5IOONrXWufQU8haSde000jqP2Ng6XzHSbGx/qxvcaHXNxRjFG5s6/jGGfsW4Q4o1O6a/dW49zDp3HGl1M5dY3ayWHmMKjQm00a3IjuMmp1ofbNXW3IB0HJtHx0phDPkL5CBf2fVWK09q+anGFx34MeS/Kte/j694iuX9gL7QuUPvi+aCWhtQiiF/2YBk8vU1pDjF6wdIp3NE8TnJB3rTSSY7ajY38gZznmvphGLkN3vLnwNy8fn6uatdS0I2+NFWTtSpJG2OgX756z+38clfqyjmuYgF/ut71MQQtPNf4vOY2Oov8upT61/104egNE5RE8ofJ318cu4cTxULWc9xqjlCRkkbY0lSyFJ8Bqj8VZKszAOd4qanWfF19uj8hlXyL5G/7GgLZM/9+q9koGOlKF8Pcsi+2VZ51dbKk7rbr6zxRQd+DPlzLKymfM6zj2J0x3LxFU+xaMsONBYQG9D7QgygfvbXvz4YU+cccpz014ru+DpHFJ8TfdGbLssqO9lQaPs5FvoAjU2lz7GAXMhJfT93tWtJZJv8YVUfxLBTLkJjrvT6L+dDft4OauMppq+lU19rXDmplgw0DrVkPhYyP46fI2QUrSGQTG1sVbyMWnF7s5dOyB/kvyK7ntd/1slW7Z7X//JfnQMdK4Ux5C9y/Dx3slVetbXypM7yyh9f3XPzfTg1u/21LhRLOl/7+MRTG7wf0Bc6d+h9yXPxXK5/5Lr+q7WiOCCdzhFF/vy/fMDrwNvLTn3JNMee7vhF7fWqycXn6+euWks9kQ1+tDU+tcYDjbl6r/9qzHzv8fe3HIc/FgDrW++Nsl01dxqHWjKNRY2sGmd1XP/VdaK4vdlLJ+QP8l+RXc/rPyNbtTU3uPKaqmPz6FgpjCF/ofjylV1vtfKklp9qfNGBH0P+WheKJZ3qtXrDCm699Q7rP3yQbb/zLta1dIFN32KCzZ71pO253WQbPHSw1fUbYP0GDrJHZy2yfXefbg3t9bbFnnvbnU/OstPP+KMtWdJSRuqbsGH1yCOPdC8I0ELxtXQsKBaNX9CH7/eUHfuuJ+z9r5pn79vjaTt4z3n2f0X9f2V90G7zbOiADrvr8f7W0lYtPC1sLUKNp8WohQjqS1ZrrzbsvT7xyo57I1ZYpv/PfdpcPNVih66iXtB/tP13wwPt0k0Ptrk8VVVXvLhwoyt0eOVCu77QNdlTg9azu8fsXOjrbd1FD1lDB0/eEZO5y2NRa4z8xlUXXNaRL12O5eKHu4rzMjr18w22si0kRanQm2DFZrNqv9aFtnfbQmsuJ4H/7yja+b8cIb8nKP6v+F9xi7A6xigkzUXZvG2pzSuOeVbxprqO81TG8V9lIJIyKY6MBIo885rgfLJhxTnhHFMrPw8yrQES0aYVxzuo/1CbOmEnGz1sss1Z8IjpX5ICxWus72fTJ7/V1h28adEv5qn4r7Oz3bbfbJsUa9jAdWz6RnumvJ6c/6gtbV3s5jKPoxyISV/F94FjAq17/Ciy821IsoFN1vnuydb5oQ3NhvfrftpihTCNfE1weHEWdhhpNqfV6h9dZp3Fh23lTK0xemuTA4U8e+RS6n2tY8Hex6JfW0uHT+31jw6ZYup61jiSU3t7yWSv8byfUF+yWnu1ARtkansfkJ7aH6OQztv7sYA++VP7WNSaG9o6NmrZJt9iTaovG/lS+5i1Mg96kBybFLO8lkD5AHayzfed6li9DmgrN+BNNm+AZC/kp3H8+URGnXyStkI+1KBjybkU/bpqTfnxFA+ofRzZUdc+LQXarMIsj5N9iUmfkjdDyL26/vWD69hm8rjaEFNbH7bSE1RFn2taG1Pgx/My4Ik47rVeR1tfCwFq5dRbG/uc+0vn+m9060V6+Qn1Jau1VxuwQaa29wHpqf0xCum8vR8L6JM/dbbP845t3uzLMTQX1Nk2+3hf2WTfah1r3FqZR6+ZkmNDwU/gL7BTCI3vY/v4tJUb9Lz+a2NW60lPM/jj9HGFfKRTzspFftgoB/DxqGVDLTtq8vXxQbF9WznSV/F9YB4AW8CPIjvfBsVQW2P68bwM5O91tP0xUGuM3trYy0c6aul9rWPReLKnX1tLhw9zIV9Ah0wxtWY0juTU3l4y2WuDSn56b150U18ly3rOr9qADTK1vQ9kfR679lhB43t7PxbQJ39q2dPmPV6emyyrjq3m9d/5ygZ7zUn6wwX+hY3/WiC1R09Rs+FPZthoDJHzyeCvGBrfx/bxaSs3eL6v/7XIRzrlrFzkh40fz8ej8nFkR80fBfR5Rei8c340jnKkr+L7wDEBtoAfRXa+DYqhdh6zyhVd7Wc3+WddJdOxAbXG6K2NvXyko5be1/lY8KnWZiFObfC1YuHDXGTfDDpkiqnzr3Ekp/b2ksle43k/ob5ktfZqr9VfCfT0a84/JvmxA3azrSb2s7ZhG9m8Zc1poiaNHmiLH7zWrr5voZ3ypytsyJABtnDh0mTf16n9Dau8WHpehEBbNyuK9HD0W56wPabkr8StiPpBk21mw762YMkz//B8S6vZqb+/ze5+4KlS0vPi1NgUHmXUxYKc8s09+EobdpVtBv9qwWe5ZDn2vP5j7MLNPmz3jdreutioehY0dSyz7R79m+32wG+tX/uSQpJjEp/xeAHWByaNm/NIRt15HnlJq2299dblTaGyg8oXclvnq3ibaG9bNs92bVtsTeUHp0zRzmHSRlU5XKY0K2YufQWSs02s1sLowv4j7MIBw7hjJRtILwCKUOSSXwDyDZYnIlgvbC7dcvMt3TcidLo5odexSEfNTRMb9OsMmWhvmn64bTB2q0LWbv+59Uy77I4/WEdX/tdB8hyYbTJ6d9t8zKsKH7bpOPed1ta2zA590/uSXrR2tNg9j9xgX/xdluNPYT1rffeGclPROtPjs8qFAtiAZJ3vnWwdbx5b3Dye3TrqZkGxts+aaXV/eTR1lQexqcmBNsdBbr5WDrKXndqKJxvhZdSaH9q9xQXvLzvlgT96imLJ18cAH8fbg+xBfpTern/paGtNeT+QXDJqDzLvK2SnWjFq8TEVq8ecFP9JTg0aS7bUxJAd+PE0hmSSF5rU1ptZ2VX6DNcLvsqBdu05k1xoDQA1vuh9G5s0fnEMiqE33YoN0lEjlz99fSUwf/jPx839029AKW+hWF7GhyA94axx0RPLf7WwN3S/xo+iH3rna3/Kl77G645f+NXKZEu/26dQ0ffnWk8agWxTu+xLlmyLHGgz31pbqjWG7GWndorpYolKVp0voN1bXPD+slMe+KOnKFY1Rplb+Xri43h7kD0kv3KO+871n+MKHzPHYk74wJfXDjqNQQ0aC5lfE7KDarxqDK4Taskhy3M82VX6XMtGORCn9pxleTUHWgPEoMYXfdXOMfDlGBSjGqPKXzpq5SG92tTgx6AG3wbF8jIfQ+Oip+hYV4TiqWidrerrP0gmW/q1+tpzLXrrS0atOeE4iOFr5LJTW19JpSiebISXUXM+C2lq9xZXPkJ2yoMc0VM01/Kt6iROfUGbe7fArvuPAaUf5bld/5VcMmoPMu8rZKdaMbopmzlmXneKVTsnklODxpIttTauaIMfL49RzFMhw87nQVvxZOf1IBvlQLv2nEkutAaAGl/0vo0NvhyDYvgxkIF01MjlT19taqDt40Bup2ZCsaQH/x5C46LnM4vuxStC8VS0zlbf9Z/7OtfSid76klFrTphvrS3VyGWntpcrnmzIBbGXUWt+aPcWF7J/RnbKA3/0FMWSr48BPo63B9mD/Ci11/9a/4SV4E0v5fYHnrD99t/fxkzZ3b7/vZPs9jvus33ffpAt6Opnx5/6B2tpbe+T/xrgivD/SqBfFLoYuJCEX3yypeyy8WKbMKzNeLKwt9I4eAMbs8UbbaP1+tkm6zUXhXrFZfNJA+yam5+yux6Yl8bVeLpgyEO5aFEjB2T6SiAXof5Kk/tQXSClS0HpW5Qr1j/Qbh6zpxUvGd3Ht6qlo67BniiOtaljia03//YUNedVzVfOJ+eGqhCVukKUPPITVuuss07S8yKdj9HHyOcGsl/6P9uubant37LAmrn5FX2NlF70MMhmcsoUzSL7nCvdUtVQ1KM6Wu2ufgNtQaFh3JxzHjcll6os49zwF5hsZzZnzpxU6/wIf+PWOVRM6m3X38sO3PWLNm7EBukJi4b6Rltv5Oa2sGWePTr3nsIq22+wzk42Zey+hT5vJGeKc9DZbtM327rsZ+q66m2doePtT1ed0j0ueegvsMpBuQv6sgds/fXAjRK8v2y7dhxp7R/awOr6ZZsE557CG7GGsp0PvXf6FXluOczqb59vNmtZd34agzHJR3kIzavsAFvVatfqKX4M+v54FZciW9krJn3FlczX8hW09cLm7fSCB/JZ1euftmrp6YO3E5KBfDnu2tiC3LBBj5301PIX2CqWzhV6feBWnCQr+9Q6dvmAj4EN+LGQSa6ND/lKRyFOtsvnj+LzBNXYIVde2a+aE8l44+Cv/9o4gljYY4dOcUGx2KxSW3JQbPX1dFPVrmrJqRgTZE/NazlPYPljk4+gT9ExYKtYoKeuvH+yzen1iElb5777uEtDYiKjRqLx8KFw/wbF8np8dI6F4ssOsFWtdq2eUo3BGqvmDhQ35V7ayl4x6fv8amv5CtrP+vovzp9yqR1Ltqqlpw/eTkgG8tU5kczjz2M6Z0mf5y/7M2fZx19X2rTSZmC2deuh7FM/3+tftXylo+jcAv6U/PT0s7n+Kz0lX//8Xo/WT884gljYY4dOcUGxZOPloNjqy19tX0sOxAPZUyN7IV//wcekjb1s5APEVE6gGOh9DNVej4/yEIovO8hj9TyHtXpKNUZeY/qwD4pLka3sFZO+z6+2lq+gXXv98x6Ze6u+xq0/8nZf/4WtcqkdS/FVS08fvJ2QDOSrcyKZx59H7KSnTv7lxhr460rnSrkl2zKOZKr5DUrw59fHwAaw12iKqTbIVzoKcaRP/kXBTnmCauyQKy/5+ZqyWl//SxsvB8VWX/65zXESM9eS0yYeoMvjcqz598X8sVU+GfrZPh8DtooFmlvv74/Xx6SNvWzkA8REVuVZzb2Podrr8VEeQvFlBxpLMcHrafux1PfHq7gU2cpeMekrrmS+lq+gXXv9U3NMeg2Uz6pc/7FhVQMbUiNGDrb6xi7rP3igtRQf6psaltnMmy6zS2Y8UFq9dNCGlV/4LAJdRFoQfuFqcYh3vWtfe+U++9s6m+zaaxkxcYo1NfI1ORYgcVZe6uo67G+XPWb3PLwojdW9GMtFTE0+fvH7nPZen8Usmb9AKhteFLMNvaJdNO4Z9Qr79wb/z9r51wBX8b/uv2xQF/+xafXooE1s0sI7bdiy2Sk+4+dc81g+jyzLNuQKFz/UaaNH85XA6tgh51v1IXeL+M111n+TTttu9mLr104mFfg0jptgg9/+bhv8iSOt8cNfsP4Hvd9GvGtXG/qaOhuy1wIbvG+LDdqnvujX26B9i/Lqehu3Hz/G3mh3PdaveBF2eRT/aV1Qp2OjU+aGTL9h5dcNINONRmssPyHWaRutu6PtNfUgGzN8QhEvx8eWF5aNR29ty9oX26z5D9jYYZvbluNfb438OHy2Sv9P3b1hhahMmTEpv7v0R915C60l8HlhTxt9Pnc5Rs5X57OqVejzW1Ttn9/M6obxBcuCpR3WNbfF7JHFZvcvtK57F1hXUaf+nGWFvhifN2VsYDUV+bGZVZJ+42p0f7Or5lhdW8+xlKfyVi7IdVyy1YuC9wH15QOyo6YAfYF9LfLVeBT5MhZFYyhPFaDWGLSVn7fBd1Wuf5COmjy8LegYkdX6SuaL8lEsHZvABhQTfL2cPDe7UVxArzH8OL2NC9grdp7DfP1j61/0PT4f0JgaA73a3g58HtT0fQ5elvOp0DgaQ/Fl31F+/VX/qh5tCptM+Z6dN5yKqji2vOmEHugjr0Ux9ESVbKj5YKQcfV4as3a9IisiJplq5PkPEaW8+B8y8F8HFPLxc6y626/oa52z+ai/tPuiPH0MyeUr22d//WOf/2VFQC+wr0W+Go9CHGAsisZQnskmbXxUxwO0lZ/sAF8+yOmcKQ6oFtJR+7kRfi5qfSXzRfkolo5NaAOHefObOap7ylPVA8UFjYfMj9PbuEBcjeXPE7Yv7PWfa/rYyM7LfD6gcTSG4suefKlr43o72oA/H5KRq98biqFrwKPrBHxeGnO59ery8LUKfaAN0nskYxzaxFTt/ZSb4lL74nWKIbn3pehpEu8D6mef/IdefaDP13811wL7WhgPNB5FvoxFyWM88+u/7vNq6x6EL+dQx6Y4oFpIR+3nRvi5qPWVzJcqn+pcebAB/bEFfK2x1K9FcQE9bZ6cSr8fW9LbuIC9YmoOAdsX9vqv8vY5eJnPBzSOxlB82T+/659j7XmcoBjVE1Wy4RrLG4qp5/LSmLXr1efhaxX6QBuk90jGOHzuISYyxZaN1rniUvvidYohufel6N7nfUB9XVcgO2oK0BfY1yJfjUeRL2NRiFE7nxSg1hi0lZ+3wfeZrv/YsOqFG2+9z3Z5xcbWXLfERo/oZ/0f/Z8tfOwe+99DbaVFZtjARtt2bJ2tt+6gdPOZv7S91PRk2MAm22a9QfaGHdazfbedZK/ZcWPbbuN1bOnSpfbEvBf2N7DYsJo5c2ZaXFok4PtqU2hTtPioX7frSNt0YvFi11l8+O61FMfAXx2Jt4rlgssft7sfWpTG93lpYSof6ajRkdtek/OFItuilUp3twR9tumyRc0j7a8bH2JP9xvbI3ZvhQ8P/NWHvYXNivM/cXCDzVrclmTo2+ubrKW+n2369I3W0Fn9nhVjoYf8oqybR+7nPM3+Xf7oOvLqGBQjHxs5Zz3tOmsbZXbPK5ptaGunbfo4T+Mkk2QwaP832/BPfsHu3HAvO+2mQfbn61rtX7d32Q2Pr2vDJ+xp4yZuY7bkbqtreyI5FbeOIp98LGOGtdgVtw+2pa0al9FyTv4vxaWgu//kk08mf+k4L9BtW9BTVmebrvs6m7tgrjUWLyLDh4zkCJM+UczPJmO3t3UHr29DmidZc8PA7NdtUjSK/7Fhtd2mW5WyktLmD1eetNz4rF9q5BRyVp927U1URbmDdFDPh6m3TrCuHUakWer43f3WeeLt1nVWUf/lQeu8YKZ1XfiIdV30qHX+8xHrvPAx6/p70f9H0b7sCeu6b6HV8SGXTSq+SsiaGtxkdXctNHtsaXEfqV5UGJOxlSMgp0imvAT2ypdaMsUTvq82xcfX9Q+KKR9qxVfbx5EOaFOIp7Y/JsUE+SmOdIrp85YtKK7H29NWLZ3ikIvanlqZ+opR+8KqeaPPhkzanEn3gZ7rCWrzAcUAdNJ7G2RcP3qq0sfFzs8rborp7YgBio2PH0NtydWvzUd98F9PFBpTsvSmKm1MZTlPWFZfoVKu5FPlp/nUGzLJa0u+3/acTz1phZ/ssFGfcdCDdCoaC2QLaUOrGAJZwrWXHz9fy6qlpwbNL2PpKSvZIpO9P6fIk30pUyyBvcaglkzxRO7nGNJRfHytb1BMxaBWfLV9nG5d8R8bcvSJR03xx6SY0O1XxpFOMTUGyBYU1+PtaauWTnHIRW1PrUzzpRiaH8XN85a/LkObNatx6HskVyxQDEAnvbdBxrjU4ONi5z/UyddvTIB8pecYqIXakqtf+35A+YHiqw+1Ml3DklP3dl37/DS/z3T9U3w+gD3+1N5GfdroQX0VjQXSgc9BqI2Nl+taVi29Yml+iSmZbCVDrxwBOUUy+RWt9P/YawxqyXI8xeH4WEO5n9vVcSu+1jcopsbz8dXOY1TrtgJdvv6p0em+C7q3go+por4fA/wYtH0fvD1t1dIpDseotqdWpierFCP9a6bFulRczRt92s90/euPFEIxAB/F9TbImEdq8HFTzPJ8gXyx8XbylR4faqG25OrX5qM+KL76UCt7btd/nt9nvv6r8yyqjdk1df2zQZzXPUivWJpfYkr23K//DPYagzrL2JirxgA/ptoUH391Xf+0KcRT2x+TYoL8FEc6xYwNqxWw2aab2PiJ4629bZE1Pnyt9W/otHuebrSFSzts4qj+duB2A+3V6zxpmzQ9ZRs3zrZthzxtrxq90F61fqPtObnedpnUYLtPqrPXbT3G3rDndJsyvNVG1C2woc2dxQdys3HrDLNdt5tqr9pxE7vutgdsSUt1AlcnesIKOOGceH9RgBaQ9Foc1Ni8btd1bZPJAwtLFs/qKX+/YrbdO5Pfgcp5aDxqofzITRcD7LM++bPwq2Oizq7ZBj1tXJDfPXw7u27sq61jJV8F5AWE32Lp11Bnu04YZB/fbh37yDajbIOhzfbPBxdaa/oLf7Ztq2+yzeZeZ4M7Fhb9PCJ1lVM+n9WxpW7i3w912pgxY8p8c5664eb8OR957hFRL96wzpaOqbNbx/e33e9ZZIOXdaTn1ZrGjbcRn/yCnTNnkh1z3lK747EOe2Jelz0+v9PufbLDLr693SaOGWsbjR9uXU9fVoRngy2PU4xi/Zs67NGnGuz+Wf0LWTEyc14Myn+Jcnx+v0oy8pw9e3Zqe5D786dzk0unbTByp2J+O2zW04/bkAGDbcjAYRol1cWt0tYdNrEYr8kWLF6Q5Hl2RHFcC+6w3bZ8Vep1r4viv+Ls2x/+e1KS57WQxwbV4OWgfH3dm6/GqhvaaJ1vm5j+NUBr7bTOH95qXTc9ZdZSvDkZ0mR14wda3cTBuS7uE3VNRX6L2sxmL01PXHXd/rR1/usx67p+jtkGQ6xuzIDCprjZz2m1ulvnFwOl4dJ4uibTuGV+yITPWTbkS909N70c+7O9/kH6WlshHdTKfTxqvfmQfW3uwo9NW3FlT6GtN4aKAWr7XLGVr+yo5QuqZQfS19rg61/UFSvlVH7dgTe19DWe8LHQYaM4yGgTWzrIsuovhv4NAKgWdJExP0Asio+LjrZ8lStFKDfJvL2nVk5bsSjVumso5oeNqpy/9IVH2a9y1bEjV2zqvEGVuqVd1ZetPgjl2Bnktf3a2tuo5vjJBR1xkcuHDzI6tm5/xi7+pz4w15p7yYDXHR2nYDwKdhpXciGZt1Fs5av8QfrqPDBmZS+9YlArL+lrbYV0UCunm340uIz7jNd/FvcYm7biyp5C+8W7/smnssWXudQmkTZ0lBOgp6/xhI+t3MhVMtpaK1wnIJnsaGPrY3mky7nkcZSzxkRHW77KtdrcyDLGRA5UtWOBjwO0c6xqXNC41N6Gtvwlwwa8zrdBvkJ65KAavBzk5+vefDn+3vIF2jq2Wn/1gWPW3EsG9HWcgvEo2GlcyYVk2Ya1kM8dfeWrPAA5/fxBOp+HYvTkxxqWXjGolZdyUWzphXRQK89x8MtxeRKWD9C6Z9OWnWKAH9sfC23sKLSZV/WzTZW/zxVb+SoWtXxBtexA+vSEfNkH3hPn1+Pq9RWdcgLON32NJ3xs5UauktHWWuGPQXhLJjva2PpYHumUC7FSvDKu8qQtX+VKEcpNMm/vqZXTViwK44LGpfY2tOUvGTZFr4cut7Mcsm/Vl63uYehFlvfs19beRjXH31u+QFvH1tM/5yU7jllzLxnQz8dZwXgU7DSu5EIyb6PYyjfnwRjMe9b78wCyl79iUMtG+lpbIR3Uyn08an/uoTZ34cemjb7nLAXdPPTIEzZqnYk2csyGVjd2M2sqPngcsutQ++Jr17EPb9NuU9cfZ5P2PcSaR4y2+n4DrL65+HDKC8GyBVa/eI71XzLb+rfMtTFb7GKDJk61xXMesdbFC6192WLraF1WlJaiLLWhgwba+145uBz1haF20VFz8lk4fgF5sKGUvWIVrt6SNkCKHLRI/UJVfhpfv0UA5IoOeAHUi2ARtNsmQ2wumMKurtFmDt7EWruKG28xti9sUFEa67psg6GN9s5Nh9upr55ox+853l67wVBbZ0CjLW3vtNbiRdb7LWwYbE/2G1e08xi5VMegG1WZaoEa/sJO/18U7PSCkPXcXNDJdtmofHxsN/1++nBrK/LFZ8Cur7Kr2ibbjy9aaguXcSyFPB17nhtkP/lPiz1ev5d1jdinCFm8eHWX4gWwvst23KT8BwRSvjnP/AKQ4SkIdPwHip/z7LluJK+OUfFynzhIZtzzX5s178Fi/sijEHdlPWNMGj3ZJo2ZlF6omWsMOjvb7OGnb7AbZ/6lilnexKCYvVR3j1OAjvx8Ph5k8gfZSOZ9aSPvHFKsxXXKrwL2a7CGI7ayhq9Nt8YzX2WNZ+9jjb/Z0xp/sZs1nlaUX+1hjWftZU3nFPJf72kNn9va6nYaY3XD+lnX9U9Z5xeuNXtqWTFQkceUIVbXXH2AB5+P1rb0vgb0FPW5ZoC+zpH01Piu+vWfc/DjCWz0Aqg4ft40pq5b9al9TIqQjhpqr3/f5rcVdG5oi9rY2OCnIhvpKXr8nFJrV1srHjnIB5lIG1Xur1qqZQvIKBpPbcWi72NCvk8UL+CFDXr5UTw5Ts/xFVfofPm1Intvx7wqL9B4tfFAcm8L9GljT/6NTU3F+O1JJjkfXPLX/nhTlePm+2BGb7hqZR6NC4rj8/EoJyEbybxvzptrpjxPblz/FJ3WDDL86OscgWqQrdBYsqEN9Lvjlnpfg8ZR/5mvf9ZuPq9aBx7FE4zlxxPYPNP1z1pFp+Oocqhi+rh87Sa/tufx++7135FyyK/1HHeeB2BOlBeoVnxARtF4alPkS+3xPtTyo3gUR3LOt+IKna/er//qWFb/9c/PAOR/kYy25BQdj+IqDihGrczj+4qDrNYOkGEjZCOZ96WN3J8noTjKXzIKffmAapCtkI9saAN9H5e+r4G1qE0nWPn1n+c9X//cc/M15FHeAns/nsBmZdc/90tqNqnymLlPzTWumBRBTOQaf9Wv/+obMPR9bGzwU5GN9JRndf0Xrw3odQ+l+Dnse9d/9vHxVn79V3Z95/rPvtTCt8Hb5zg9N/U8yknIRjJykK/y9udJKI7yl4zc8nWZfUA1yFZoLNloDPo+Ln1fA3qK+v6cVtenrv+cD/NPX+vAo3gCez+ewOaZXv81Bv7qU/uYFCEdNfjrv/7MI3ZLDbHbEWdaT9H6duD3z7Rau/UP/L6deWYhL0tWZ9vKtPQ98wjL6gPt+87nzO8fWFj0Tf5x4eXW1G+IjRg5zgZturs1NA+0ftZmQ+tbrLG5yZY9eb89efVZxQzW2bBNX2GbHvwjG7LBNtY8ZLg1DR5mjYOGWtPAIbb40TvtwQtOsJb5T1nbEjaslhaTX7zRaWux9rZl1rZ0kfUbPNLev9+WeeAXgO6TnRZSXkxCOi8DLaK0oNgMcBsdXc+mpBfHyleFDxrEZ7GzmLWgwb9wgBYw6OIAb1P0uvvZlHau2+qabE7zusUb4eIi4IWyLLyIDi6ua56m+srOY+1n+02yr+82zoY119u/H5yfn6gqIjy6sLVoFzce51usAnu637pFeM1nz/krDrKUc+ERRfrqoleuHBu1ji3NeboR63iK8Qbni7sY3a5db4DdMbZ/2ixr2u+Ndu4Nrba4pdAVfUpHYafCX+9nzu2wGx4qXtjHHpCecEo30eJ4dC43GLcobf4wlnIjoaJHkmUuRbO8qSGXnc4LyB+ZzifHpL/+Ff8nS5u3+En7y3U/trkLZxUzUv5X2BON+Ro3ckKR14bWyBuD4vjvn3O13fro3wtX1oLmLB+f2j4n1gzrnTxAa4haefo2OqiN49vp+hnUZDak+iH4uu1GWf1rJ5otabfOfzxiHT+9yzqOv8U6vluUk2+3zrMftM77F5qNH2j179vEGn+0kzX8dBdr+MgUq3vDJDPiFbE7eGKrMeehmz6lFuXrc/Z4nT9mSPmXeiGdl4GPk89hzgV7nxdtzTF2igfyp0anMXyf+rle/4ytXLBVX2OqyFfxJFMO0jOOCjLFFpLhQ75qq/bIlhpb6emrLb3G05sM+WJHkT77VscrmQp2IvfzmyWNo8IbUI4dOfhjUW7YqS871bV2QnJkOp8ax9tT0v2nAHmVR86fjSL9HhUybV4hy79vRPxsS53iFTI/ho4bH9AcUitP30YH1IpTG5M8GF8yqPXX+qRGRg7UtXNM0frT5iPIR6UW7y8fj9f5YwY/vpDOy8DH8WsFe58XbY4NsFM8kD+1jlVy9anx13qBxqbGIm6Vp44DsBeMrVywVV9jqshX8SRTDtIzjgoyxRZpo7iQ4ZM/5Jfnr5R55E/NsUlPX23pNV7v13/1Ic77Ukumgp1Qn6JxVFbt+q+uDdlpE6unXbUGJUem86lxvD1FuSJXfMnoKyflD8iI5/2pFdOPIT98QHbUytO30UFtHN8mntaMqPVHr1o+1LVzTFEs7y8flVq8v3w8XuePGfL4uQheIwAfj49DnsqFWD4v2ppj7DQWyJ9r2d831VfNPZqi43nur/85T2zlT5Gv4kmm+ZeecVSQ+eMEnpplo4o/RuQnhPP5VO2RPzXzIz19tdOTU0Vf4/V2/afN/lLvfaklUyGOUJ+iPFT6xOt/mStyxZWMvnJifeq+wz2XJ9q4N2ndUueY+VoGxc9x8h8x6EuuPH0bHVD7OL5NPK0ZUeuv9ak8yR1d7RxTFMv7axyVWry/fDxep2NmbOjtj3fYgJeBj+PXCvY+L9pV/Bf+/X/9eeM/stxmlGf9Az9ubxxXdkrYrDrujY/ZyQceaAdSjjzP8j/M3pPdjjjO3mjn2ZEHHm+XF/31XznBrj2y9DnwyELzRjtuJWOvaf550b9s0JCRNnTdydZ/2zdbQ7/iQ2f/gdbQf7A1DhxiTYOGWP/Bw629+NA982/HW8eyedY8ZIQNXm+qrf+WI23I5GnpqavO4qJp4emqlhara+pngyYW8sYm62hrtfbWZTZgxGib3L/4UPsCwYlnYeUTn0++FoTa3MS0KCQXbDppo6mzs724WbdZe1ubtba2rry0tFobx1jYcuPAt4pTvTiQG0Xjsnhpg+Qq2Hswy7nm48jHk3WCH0pfWt8vbW5wg2PTppgN233iYPvRPuvZSfuuZwdMGWHjhzTbX+992n7wv1k2dZ0B1q+4wPnQ8tjC4hiKD0b4dpci1uKGQUUUxiwHStsteXBk1XxWbfTKl1IdGza66eabeq6RFTeFpqLdUZQin3n96uyfmw22lvrixWe9je2pRUVuhT0+uaTIuS5Ka+HH1wM7BmxpDXXFfBs3T+axmOfiXAzr15r8OC5IG1MpD6qUWKEr1k3N3Ov85ZyrFzTQzSuXHJesIB1hkfsDT95if7jqOGtpW5pUaPNxZ4YPLs7JOhPsoaeutbtm/cfaOpaVmmzLxiG5OZduf3JSm9qvI6D2+dbag5fJtrPI25pyDDarux5bYu0fuiKVjq9dbx0/vs06f3F3Kh0n3m7t37jBOj5ypbUfdKl1HD0j/SB73abDrP6Qza3h0CnpXwrkYOoHFi9saarzXENt3rU5KifpwOv1BggdtsRFTvHxqFd2/escez/iUZDJVm3Zgfy0FuSjvmQU2T676z/L8MOWtnzFyvwUH+gzZ8oHiCuQ0afgU2sjeWoX16nG9OPTVgyKxpJNrV45quh+gA5brjPwNupDbVzAx4+hvt544Is9yA+djkHQV2zQ71hBz+u/OnbV/gkk4tfaAHL6+sugR5tY2PRWY+9lOibF4cOS5ghq7QGbqp1ttQHG+U2l0Kf7UIGOBbSGdVzMR3pitOZ4aSsnqNX5vGtzVE7Sgdev/PrPcXO7j13/xRzLX3IV7D2S4YctbfmKlfkpPtBf+fVfXTfMX62N5GprTD8+bcWgaCzZ1Op57ZQNBZlsqF+467/yl656Hc8QV7FBY8IzXv9lQUf8WhtALhsvB42FTW819l6WjymPCdQ+31p78DLZao6Qqyh3HQv0dv0TQzaS01ZOUKvzeft8pIOsW34+er/+c/HxqF/I619/YCAO9231VZDpwzS+mjuoPX7NjZAMPx2jfMXK/BQf6K/0+i9yTMdX5J+v/3ztyYZasWhrTD8+7RQDfVE0lmy8nsJmFa8bFOyQyYb6hbv+q/MnnY5B0Fds0Jiw+q5/zmm1HkRvc+9r7L1Mx6Q41D7fWnvwMtmu+vWfn17UPfOFv/5zDK/nH6wB3sdwfXGtIaf4eNQvlff/9WeecJ49Pn3H/ARULesfaB9/o9l5580oBbCbvf2N42zGyXkTKvHgmXZmdyfDk1ofGX+eHfnpM+3BUvbgmcfbmeoU0jPPKeKOn9hnn7L6zW/Ptnvuvsv6Dxhsg8duYv22e6s1DhpuzcWH/qbOpWlBNA0aWsiGpSerGgcXuqGjrK6rzZ669o/W2ba4+EzbbvWNTdY8YFBxw2uwjmWLbeF911pHy5LiZLWnzZy64uJrbHnKRg7JvyP0QsCC5OQDJ14XnhYGFxSFPotG0M79/Phra2ubPbpkpM14aj2bMWeSXTdnvRUXbJ6aZNfPXc+eWDLE2traU4y0aVXEYzxRjZPbWsjUWsDKNVPZ55xTswCbbCdZXXG+0sWRXjSLi6lQvGfqSPvuXhNtt/WG2MCmervv6RY76j8P269vnmMfnT7apqwzoPDjp4m67NEFLdm/8FXhhcS62L1nEHLJNxn1K6p8KltKloh8A/ZzT63jyPORPiDRL+orNhhod43tXxwLNxNms6bg090u4hOKH8gv5p4bV3FLLXMuzkU5P91vetKxFU6a76JOzeL/cgYZ5p1zRH60OU9qUzi/1fFAGa8ghy9ulB0Ndv9j91t7urHjW+pTu85GDx9rm623hQ1oHpz6aQz+KwKksZkz7MthsAGfh89R14Dykk7xPPmcVzd52mmw/H8Z4gxstLod17WGw6ZY4zHbp6eoUvlm0f7YVKvbfZzVDShewP/xiLUffJm1f+Iq67qL36sqfMtQKR8XVmhs3/bH6GXUkM9lfhHSMT2f619zgE5tL/M+tDWn2GgNyBYZ0H8+179s/HiykZ3iyU74HORHTRzmCb2KYlP8+lZfcXybImrz8cVTO/fU3s/nzJtXNt29HGjLjzY1+VP7Nvjzjy199ODjgPwpyAV9zQ9t/oU3tSk69x7F4F7M/UZrQGMnHddFiY6je4zyL/HY8EZMY1FAtewpPkdtdGkM+ugo0gnuk5oLSr5vFmOkm2lV8/VP0NiQPtS4/PDnniyQERvQeV+PxvZt2aovGTVozlZ+/ee/PCsW56F2DQJtvx7U9jLvQ1vzjY3+gQDvD/R17oG+YlAz18TBnrWpcQQ26Px4spGd4slO+BzkR02clV//+U19ts/vhxSnaud5EbX5+OKpnXtq7+dz1rx4OUiGH21qbKnzB+xnc/1Xc5b9cyG+oK/5oU0MtSkck7cHxVB+WgMaG533kZ3iagz1fQHVXu9z9OOAdBTpBGPnuch62lA7lo5BfcCevopiCGSKJ9ve8H5qy1Z9yahBc7bi658Pry/S9V/cG2nLVvdQ+ugE92PFkC9xqPvM9c9rD/f1ZF97/T+713//WgCNNXNPLT9s0+eNAuSalxSnlINk+NGmxpbat0H5ypY+evBxQP4U5IK+5oe2rk3Zrp7rP597xdU9ON+fqmOjgGrZU3yOfhyQjiKdIEfNBYU21I618us/56gYApniybY3vJ/aslVfMmrQ3PJ5W8fU1tZW5Jnb6Pz5hxfq+tcakC0yoK95A9mojR1xqMlV49Tbg4/YYzbeJi63a7S+HZh2q06wMx8pRbDbjjbdZtg1NRtUnvFv+b59ZPoMO9ltVokeXyX8yPRS2nf50pe/bU88/oQ1Nfe3fsPHW/OwCda+8MliVouT0dRsDQMHpw0rNrLYvGoeMtKaKINHFP0R6QmrgetMsH58TXDAoOLNbVMh40Rx8jgxPOZc2Kw7wbZYf9086GpGiwXyjwTmhYRMiwSQV3ZZz6Jhw6eruFFws1i6rM1OfPQg++J9h9rRDxxqX37gsJWWL91/qB1176H2uydeZy2tbcUHFW5qxcVSDKubZB5DY+WbmHKTHOjnC4CeLpSkqmlXdfIp5nhQ20Irln6ab56WOufOp+yj/3jAvnrZTPtaUQ694D5b1Npu39tnkm0/blD31gq/X/XYwpaUK74qde1tNriIKTtuTOSUC/2qnQ62hBx1TGqTo0q2lR/6fPE3LC3WC/8V56g4G9ZaLKEf7b6OzX3sVttsLPNVrKXCrrfCfWrj0Q1Wv/h/yb++vph/joEn3YrjevSpYh2neS1vJuSQJy8dK6TjK/r5nynP5GPMEBfyMVS1zmUii3L8rjpbf+QOttW4N9j8RQvs0Tkz87GVb1xwT3Vhv8XE3e2N0w+3YQPz9ZF0XDvJrir46+aW57ccsET6PE4ugC2Fvs6H1hy1P8669iJmaxmXNy+jB1jjCTtZ449fafUf38Lq3zzZ6nYba3W7jrH6/SdZ/UemWOP3d7SG03e3xhMLm1dPsC7+tcB/PVYEy2ESC4vzUozDWMoBfC2d8lZess/nMNvJDyQDbPDXefF2On6QXnMD6gvaii0/9Zln2j7X2vLcr/9Krvi+jU61jtX7CXx8jiBb5aL1hJ1kQK2/YAM+yKRPXx0o2/gK5eDzYXzlIZmoPS5K+s294j7ukY1i5FxzEYpLrXzV51gUQzlQc/yguaIW8gf/htrXfhxkOUY+dqGxwG8aIde4tBVH9tp0EuSv8yU/D3o2vKhVgDEpfJhSbOWR57E6zqQvxk1/bS/HV36CNptVevIq9fEr8/FziZy589e+t/W1dMqbtmr0fk3JDyQDbPDnfUCtHXJvR5scKaC+0HEgl5/6uv7ZWAXZ+LLC67/8upBiaUz6/hiRay58G53qfKyr4/rnddNfM3w9tPpquOZT15v8gTGEcvD5ML7ykEwwZvUanOdNx+TRMWBLDI3vY6lNjb/vL3/957lZ/vqvxvWxva+v/TjIcowcS6BXH51ALlvaiiN7HwPI4Zmuf/TUKoAthb5iKw9qjQter/jUtTYUxVdf9vJVbI3ri4+tWjofVzX6/DWkbCc/kAzy+//8mUPnWCgP0HkjRwqoL3QcyOWnfr7Psn56zkF+sjW3seE+m8fIsZFrbMXSmPTRebnmwrd1DWKDDB/vJ/BBJj+QrXKprv/ifBW5pj9S8D+u/yZ//eecFV/+gK9QDmxQpZhFm/HTe/Will7oqVxQfB2TRzaKofF9LLWpla/6z/f13/v62o+DTDGkB40FtfH1XoG24shen1cEOfSt67/nfVv28lVsjeuLj61aOuVNWzV65lp28gOuQ9lig7/OS0+71Xf9M8+0fa61BRvFp6/a5yY50K9GryF9FdDOsxOqR6KeJbWbYLvZEWeeacftcK0dqa8Snuyf3Oq7fOZzX7NHH33cmhqarG7EJGtpLU5GcX4amhqtcYA2rIoyeLhZP742OMjqilLPU1X8a2iTpljz4KHWzOZW/0Lf1Jw2srqKmx6ns604cQPWmWgbjCv8XwA46SpsOmmhUfwip6jNQpMNm3PFR5Ki6rC29na7fe4AW1Z8cH825d75/dL3vvOPbHMh5x1UFi3FQ1/5ULRglROyIkgqNCkpzwQXSZYDdUNnu41c9qRZe1uKwY1kzpJW++/M+faLG2bZz2+cZffMXWLbjh5ok4f1y44li4tzjW32q0pDR6sNb5ldvHZVFzz4PHzNC3KRTcodfx0b9vl8IMOyTDzV+aaMvmkB7UJSHBtPQHW2d9qTg+vtnHnX25u2bbYBTUXcQp83qahzwWfCyDrbelLxAfeRHxdRixt2Mb/6jbH6uk6bOacpxdSb0SKzVIPaec4z5KPcvVx9jq+ahyzPLy4klGWD+42wTUfvYf2aBxW9Ont09iM2e15xjopwhXUhy8ebXIqy/uht7TVbHWL9mvjXKgsZdsQt/ssvDHke81ziWw5UQl7KW3Za+6w3nZNaFKs75pLi+llY/bhnMYHWVfQ7f3+/dRx5rbV/4HJrO/Bia3vnxdb+vkut4zPXFLr7zJ5utbpXjs4/0P6bPa3+3RvlAyupm7XEutqqm3say6F5VduDLTq/rkBxJKPoRULHs0rXfxmLArKRjnjKjbb+mlvrA5pr+tjQp3joy5eCHXg/aopsND4y+QO1xlAc6bAV0mGH3I+FveaJIn9sa/F5+Jo3hPgRDxu10RNbMsWmRoccveQe2agtJOea01+BIctyTPVVaxyojeVr0Jzg5+XqE0uxgTale46L9cGbfcWg8MGFmr8KUksH1MqZGNjWjq8PPJpT+QrslLfs+As/rxV8cNJmVS2K5YvfjAJk5KccVWusbr+iT5Fecj68sGlFG7BRW3g/2h5sNb7GAMWRjKLrgLWBrk9e/8X5kC8FO/B+1BTZaHxkxEMG1BpDcaTDVkiHHXI/FvZ5MyDL5F+bN+hDimKrfu7XvzYXstwjG7WF5BSfo2R+rlQje9Gu/yInzYfXUbN2qKUDauWMXW/jU0uHXL5Cem+ntU8+mv9aFMsX7JQPIKMvmWqN5f28r+Q6/7QBG7WF96PtwZZ1QtEYoDiSscmS3//rtYxzXm1yeXvlQ1EsCshGOo5RudHmHOaNKI6/8gHda+ljQ5/i4XxoPAoxQTk905xyjMiAmngUxZEOWyEddsj9WNintVK8VlDkz+tYLT4PX/d2/afNqEK/sus//3Hqub7+v1yv/54bGsDazrq+dP33zAc/7yv56rn+V/z6zzVILvR1HSCnaA7kp7byoSgWBWQjHfGUG+0X8v1/va0/0cbbY/aI35fa8Qg7Lj1ctfwTUjbzUXu81yeyKh4759N25Hlmbzzu+3ag7NI4PZ+6Wn/i+LLV9znqS9+yO+++1+pGTkxfY6rvN9waBgyzhub+Vj9gSFGGWl2/wdbVPMA6+w8xGzrGuoaMNhsx2TqHrmsD113PmtnUGjDIGgsbNq3qixeLzmIhtXXV2eK6/rbhxFHlaKsXLRbV4BcMi0I1MnTSIys6RSkWJIUXxirMKpPGZlHzho44BWkBlosRNKZHi5s8uMnpwshw0WS/lCe7GwVcoGm8ksa6Tpu8+G5r7FzW/aKjQjw+fPCvAJ501YN22VHH2vw37GcLd9shlRGv39X+cdoH7J6zP9qj3HLuEfb5G++3fR8YaFOe6sfvZRcoD3LKfXL0eQI2+Tjo+5sCx57bIvt12oA5RYziHGGbZPxX5H/evZdYa8O99uU3DbCJIzlf2OeY/ZvMNh5Tb597zQAbvOQP1rngpmLc4oZVzEcxs0Up4hXl2nvzRmn6lxs1vwziIF66sRa56JzQZ91ozejcqa8iaJE3jBqynvVvHla0ioSLpOvrm+z+x++3p+bPto60mSb7DE92bTR2e3vz9M+kGN1xi4p544U/dcsx/TrROQFyU37YoPN65PSpsaMtn9SfX7xJmcVXK0sHfij9zw9ax2l3WNd9C4xf8a+fMsLqtx5pNm6gdT2x1Dp+dpe1v/cS6/jof61rxmyr22ho/uF2xSjOY/2tC62zpXocXXn5wnwDbZ0D9SlCLwDKX3aqQce3Kte/YmhOyUN2wOPGvfl5lDs1BT3xsBXy9eg4sa+9/n1ePh/iezvlKztqnx8yzZliKl/aiutzk172Gl826f5S9NFTGFM5qa/YFFAMD33Zqs8bXSAOPug1px7kssHPx/Z9+WFPAW8L9DWvFPWfzfUvP32VzusEvtq8Ii9qNpZo468POdKDakBO0XGAPjQB/orPB6f8Zq6nfx6L48vrmJq8KEnnN6u4dlPOeV0zruIpD+UkmQdfPpTkMfPcKkZtIT7QVlz1KWLVr/98/rDpM9d/MdceHSf2a/76zzKQPttX48tGfugpjKmc1JcNBfwxCPqyVR87II6OR3PqQZ5t+FBSxQDa6ssPewpg78FWT+coH8Z8Ttd/OZ7XCXzljx21jg1/dIzp46gG5BQdB3i9j48Nulp/+tTY0ZaP+j627MiRopjS0aemSObBVz7UKvRrC/GBtuKqTxFay8q3GtvnzVxy/vLmzgt9/evrf9S6n3P/5d4q8PV90HFiv+rXf0875Ss7ap8fslW6/l1u/mvg6DU+NcgPPYUxlVN3v7ShgGJ46Ps/ZlBrDOLQJhb50vfoOBXXx/Z9+fkcvS3QZwzZqP/CX/8cW97cwl9r1sdRDcgpOg7In6syPj42+Nb606fGjrZ81PexZcdcaH4Uj9zpY0PJsp7HjK98qFXo1xbiA23FVZ8iaq9/3suAH5s2el33L/T1r9w1T+iJh62Qr0fHiT3Xf33+2t+fqt+jKpg+fbo9zlcBe3u46sEz7ZwZ4+yNx5X/8h+sf6AdWPMjWA+eqU0rZ+c3utLvY9X8mnsf5zvHn2q33f2ADd9qb2sYNNKaR062QZvsZgOn7mdNm+1t7evvavWb7Gm24e62eOQWNrv/hvZQ23BbOHCSNUzZy5oHDbEmnsjqP8gamvpbXWNzsaoa7Jb7n7LH5y22ceNGlyOtXrTgqLXTysLQwtZi1YKUXu3ColhNrqRP2lU5fN2f2ifH/NQ+NfZnqXxi9E8L2anL2aU4ZSz3GSJBfqCcQPmgU8n5IJMPRcGoOVblDfmC3XjJnbbB/DvSVxR6K4z1fzP+Yjtcea7Vz5tb+j4z/TvqbaN5/WyTOc1pTA2b69z3Mm5iOTflXSoLNAc+d52H/rOKpbKsvFGVFzEveE8smmPHXnGKNQ65zk593xD78hsH2wd2H2Af3muAHf/Owfbzg4dae/0/bd79J1hdB7+pxpwWc1wccxHMHinyvvHBoWkMSP9aYFGK2S6WZnEDLnNiUnnhbODNb8o9nyvlSu3z9+uHFxxo7ViSNp5GDB5j/ZsHFTqOsPqvuFXbRbecbo/NvasYocgzxeM48zqACaM2KzcD8nz5wlgaW+OrVm7Mn78501ebGmhjn+a6rNVOT1hdO6/7aSgrap6Wavz1Xtb4s92s8Xs7WsPXtrOGL29njd/a3hp/sos1nr5H+m0raypebL97i9lT1Y/HJxa0W8PN862+M+dPIUfGU95AWzlSS6fjURHyl6234Rh1rcmfYwTp1ZZc84J993wU6AUIVIP3paZIr/hCsZQTyBedivxpKwc/NgWZz1/5ep38lJdeUAV6kA8oBvEUBxmojx70+0XIanNRTGrZgx9TtfKSDvRGF71yp0/RWKpBefu48ldbKF9kxPXH58cCHQv4OLT9MesYqrjFB4ryPNOn6Aknit5gCfXRYQfadAL5a/NJxwD6ACRb7NjwynlxDeRxaWtjS7HRqebYFUMfVopbVmpnm3w8OlbQBxzNv/zVVuFrIfpRXXQUrTH5AG104OPpPKgI+cvW2+iNP8hf5zrrq/Mnuc4f9j3mozhm7EA1eF9qivSKLxSLp6uEfNGpyJ+2cvBjU5D5/JWv18lPefnzBuhBPqAnWPSBiTg+R/rogZqCrDYXao1PEX5M1XrtlA5oy1+5S6YNM40JOe+euclfbaF8kfkP/vSJg0z2OhbwcWj7Y17++u95X8mxq+tfcYSPKz/Fglp/HQOoli12yhud/GhTA23FVK02+LWiuSem+kJjawz5q62i8ZUDhXjSC9mCYkA+nspXyF+22SbbvVjXP/dO0D1Uet2Xhe7x/mkrjavjyMeQ/WkrBz82JW/GVfkr36x7Htc/rxXFa0T6LasUp+c61vkDagqy2lwUU18DF35M1TxdBdIBbQp65S6ZxlINOnYfV/5qC+WLjLj++PxYoGMBH4e2P2bN7YriKja2Po7gfAI67kHA3Msu+1fXgI4BdD+ULeMob2w0Lm1qUJ7oVKsNOh7QfBBTfaGx9bohf7VVNL5yoBBPeiFbUAzQ8agI+ecHOKr5pTCWcpY/xwjSqy255gX72vnADlSD96WmSK/4wh+LkK+Og1K/w7VH2qdrd6YeX/lXAS8//kA7ecZ0+4h+i+q4HcxmlkoHm1ayO2K9M+2EtIFV+nzc7ISXyFcCPSee/FubN3CcNQ8ebvXFh+6G+qZikrts4aLFdv8DD9hvz/qrff2YH9lRRx9vX/rK9+2b3zrFPnvkd+2YE/9kzeOnWtPAIWnDqrHfQKtrHmBFwy697gG77s7Hrb2hyY79xFvKkVYf6UQXC4RH9bh4uk9+IaOkncuaBaTFhV3xf0UpFlIqxULlDZsruw+bYfuue6O9dlxRxt5o+6x7QyG7vodNcZd3MaoXEKDW+D4P6T1Zr5ttloGOKeWb+qnqZkDHMtv7qX9Yv7ZFaezeylseuba0fvZMWNhUjq+xc3KSQT4eJU2tGxAGVZ1v0NlJN+v+SxqseUES9PjLDJs5N8260z570bftu9d9wzaaeK99dO9+9oHdizeb/WfYMVcdZxdc/x0b03Ff4VzOP1tD6cbfYf+6ebQtaS3ehJb/9bhhFG1eVNMbgPKmxDylTatyfGRqC90AQXJeTB5++mob3H+oNTcV674kmxU36K5Wu/7hP9mdT1xif7/xVGtpXZwzKtyLM53qquSGYuf/z3loXNXk221X6nvrk7Pvy5/1RpsaOW9aOv/1RH7KCgjFj66P7l8ssuIFqvzQmyBG/2Lexg6wul3GWMOx063x+B3NhvcrEss5JO4t1uQ9C1N8jc2LgF4IfD61fZCMwnEoV1CbOl//eT4kozzT9a8YyAR98GOr7dExUBQHFB+kA5+H9B7FoPZ64qlAbR6y1Xn2uXhb2uorL9nqzQh9xvF+Glv+fjzl5HOmll1t7WN7X2S8CdITVsQGbw+01afWmLV5VDFzTWGNCK0l/HQe1Za98qYI/DSm5PS5BxCPf2ikklUF/NNQgJwYfMBRm9p/sNEYfOhRHNX5g1LPuai1p0889X2c2rni+NNX1ngTWNhp7qUH6hSnGJu2ny9vp/XE/Vw/WE/BF53mXDKo7YNkFJ0z2qA2dc/rP3+oo7yQ1z+/taYPZooDig/Sgc9Deo9iUHs98VSgNg/ZMj/yl423pa2+8pKtNo/0QdX7aWz5+/GUk8+ZWna1tY9dfUCrjpsCxIbaXGirT60xa/PwMeXT8/rPX+3AL69F2mxaPdfrP4+pMSRTkcxDnxjKWWPq2EFjSAeq/dxI31tf60J9+WtczRHxdHzqU0sP8pfOz5e3Qw70NT4FX3R5znvmU9uHLMtjEcePoTZ1e/pJjGoc1jHyF/T6L5+moigOcF9GBtzztYHl85DeoxjUXk9uueR1UZuHbDXPPhdvS1t95Sxb/aGCP0Tke3s1Hxpf/n48zZvPmZr7fn5/Xc1dkpdxgD8Sg3JQPkBs8PZAW31qjVmbh48pnxf29f+5XP/Ksee1oM1W0Bicj9o4eb3n45ZvZV/1tS7Ul3/tXHH8Oj71qaUH+WtsbfLX2q3e6z/76pzRBq4r3s8QiyehlC8FO8pL6f1/3fTp03uOEDwjAwb0sxM/+TobNGqs1Q2daLc9PMemTdvWzj7793bmWX8rrZZn51dsYx/cZyNr6iresDf1t2XFSXts/lL7yo8vsJEjBtshB+5mI4oPuJfPuNf+eumdpdfzY8qUKXbllVemk88i4cLXoga/wCTzixVOOmK0vXbHQdba3mnzF7Xbe+/4ti3oGJJ08JctPmJDBjZYczML0qylpdMWL+uwN992cmlhtsWge+y7m/zQBhbH19xYb4f/YLb97arFaUxdCH5MavXVBupjdsuPiGawl47c/cXsL6KiLv77x6jX2z9GvMbaGnr+VhU8/LfPlK2e1O/3emvadQ9rOfqzpcSs3/dONFuy1DrnPGltP/pukp2/4YKUQx4z56OavDJddvQVnTZ16tQkT5JCxYWdj5W5Zx65seRY2abLFo8u1stWrdbZxJFwRNk3NdIUlmO4D32D6zvs55Puta0HLUl98uA087o+c+5A+9Z5W9isef3yU1UEy4MWVZEHgZUkpMHyOrn55ptTbhR/8wHi6LxKnt/sdtq6Qza0Lca/xob2H582vsi5pX2R3TTzfHti4R1pXNbnpuN2tDdu9/FivQxPsuJ2mXJf2rrItt9sqxSzlvf8YKs0j4xDDtWclvNS4OXKUW1qfzw+f9Htt+UQ6/rSFtY1pOePX68UQhGvey0U8Z5usaZv3Gmdd8xfbixAprx6Q3oPMnJXWzUycn+217+PB97Xx6UvH38e1KetOIpBLZkfk1p9tcGPB7W62mNTfMVSDb21sVcckB6596ePDX0KaBze2NaO6ePxBkG+XkatY6PWOKB4kOzLpx+QyV61l+f7SM858uOAxqGWrWLID9CBxpFe7ayt4kkOsgM2ehqYg+KNq7fThxZtRknGhxttWOnpKMaQzsfmAxIy9LS5Zyhv8HL5K1a+N3KuqpjUHmz1gYXa22kjS3OZ7p8FioEdm43oaOucAxtWtWMBshSrFx1I70Gm+ZCfZORWXSM95ybLXpjrn/VKW3EUg1qy7jGLlKnVV1s2Gg9qddWxleeqjK9YqqG3NvaKA9Lzvsn7Y8eHJl7XkAEfUGjnJ5OqdVob79lf//mYvb3mF5nsVWts+thSyBOQ+3FA41S2jJdjUAQ60Iad9GoLxfNy2QF68te5kp3y0VxJhp6avuatdgzF9utOrzkU4eXyV5tasXzt8X7KSXbKzccC1fJBR9tf/349eJD5WLVIn8k1MuKrrTqPn5+sogZeHwS5gY5HcX08kJ3yynGr9QM6D9xTQfdcxeF+C/hJlmNle8VWTNrgx4NanTZZAZ3iK5Zq6K2NfY5Te/1X5zR9DZzXjuL1iz4FNI6OPdmWPj4e593f75E1FTI2sHRs1Mh1LIoHyP0Yslft5dhS5EtNX/agcbytYsgP0IHGkV5toXheLjtAT/7MibdTPporybgXsV7p53uuzhVzkOdRsXXvzWNwfVWvQaCxs38eW21qxfK1x/tReztdw1WsfDyKIR90tFf/9Z9BRny1cdXnL8bXvIP3lUzHI52PB95XOh2XfLQ+fZ+24igGtWR+TGr11YbsFTwrli5tsXvnFjeZoWNtYWuXnfyT023Q4GE2ftzKf5Prv/+70a56tHjTOjD/SDu/gTVgUN74mfv0Ivv+zy+y7//6ktW2WSV0wvPiqm4SFC0EwA6ZFpN4au4ia2+Za9b2tNW1z7POthbraGvtLvUd86yuKPXtT6dS15HtvE1X29LCf17xzvxpW7bkqfSvDTI2u+1alBofdAEoF+WKTHWR8XL55z51lmVKv+K/3eZebLvMu8wa2pelv174siLYrPI0feKz1n7NNWkDq2nHV5bSfMEJmvnFNx8XH4TQU/LNKVmlks9HvkkrV2ps/HEOnF1vY25rtLrWLGdOuCGnp36K/4qR0n+pX+gonx/zsE3rt7BwaC/kxbmvw77DFi2ts99csVHarII8TkEetMgpv6Gh7es0QtJXN94kL9rkqD615gOd9HMWPWDXPPAbu+fJS6yto81aOpba9Q+fbU8suL1YC3lNEPveWdfaBTeeZEtaizWTYlCqc6SYRcta25bZVXf9LflqnDyn1Q3Ty9VWriAZ65FatqA2teA3p+pOuc/qFlZ/6XlGSKV8Q5Z4dIk1fOdu67qTR+eqHDzKH2irr/nVi7uX67iUs+JS0GluFENgJ71HsZHXzoNiU1Pk6+NQ+/F48aKmPJfrX/G8HpDJD1tBW/7yoy0b1cjRa05lozF8G1uPxgbFJ45icszoKfn6z7Ep6PyYPj/lq9jAmw89kQMaR0W+enMHXu9taEsPkpET1OqpKeRDTX7Am218u/tFXTu2xuTNPteyxiIWH2C0GaV5os09VDU/yE5baGNJMbw9fW1GgcZHjo02poRkGoM2tkCb/KhFPobquNI5Lj6U0RbS6xyqQM4jXxN67UHn/UH24P01v1o3Xk4BzYniUtDlsXs+5QzYSe9RbOSKKRSbmiJfH4c/TNDXeC/P6z9/qALF13VJzNV7/VexQW0V+Woc0Ae3WhvaWZ9ryfQ0Wa2emkI+1OQnOb7qU1dj9xxTvhqrdl7Ul161XpuFxlAMb09fcwderrZyBclW+fW/jONjaV0L6ZWHCig/FUDn/UH24P3xwVbrRu+NfDzlnOPmttZpvv6r9QHY4avjFhoTuWKKHDuPQZGvj0PNvVY5+6euuN9y761KlXttPI2DjL7XQx6z2lgWtOUvP9qyUY0cveZUNhrDt9m08uSxS10ZX9clutrrnyer9OQpOl7Pgb7PT/kqNvjYoLaKfJFTg9d7G9rSg2TkBLV6agr5UJOf5PiqT107tsaUr8by8yI9Rfpc81X+/PlAaP0qhuyo6aNHB4qDXG3lCpKt3us/nzt0sqVAzm91Xv+VXPEYg/csXFfYKk8/ds98c67oPYqd4z2369+Pp3miPNvX/56ZBavMhEkbWt2AkfbXf15uc+bMtcWLl9jwkSNL7Yr52enn2FUzl1njwOHWNHi4DRk2ynZ9ZX5ipLW13WbNWZTaLwQsAO36shDSAigXkxYMaNFoUX3rt0tsx8Pm266HL7bXfWGZzZ3XYl3tVdnvs4ttt8MX2SsOW1iUBbbbxxfZaz6/pIfNTfcss30+s9h2+eiiIs4iu+Lm1jSev8gZlz456ealWjfQTHUBenL6HEc+1uIIumX6sDG4a4m9fu75tv+c861/+8I0psqK8E9WQcfVV1vza16bN65uubmUMl85hzyXef5KTZlPSqYbL9MbiqpPWzfK8pwV/WGzmm3snf2srq28GXaUMdKYRUm93N5uwCJ79ZC5xYer4th4Q5M2rdpt4dI6+85ft7DrHxjKQLkUdOdb1OnH14uaJ6/S3JRtfoMqjVMUrSHavlapnVP5LW1dYHc98R/734Nn2KV3nmxPLry7+MBb3Uhld/fj19ptD1+ZfoQ9+af/Z53kFv+/uGWRnXHZt+20f30jyUD+5AA+T6G2bOgzNn/1AOWBL7X31fHVXzHH6s982Lpaeh7nqtD1dKvVn3if1d+aN6vAj0V81rza4NvU6vtCDK+nCO+vOaH2cw46b4opZC879X1bY3g/kJ5aY1Gey/WPHzYaW/i4xPJj6bwikx9yT61cMShq8wKLnddhj0xtfRVM8eRfO56XeX9QbM1HD1nZR6c8QHNF0fg+T8mFtwdfy48YsqNNIYbiJ1vaRY2MvgoxPPJLJb2JqtYS13Qeq1qL+CsGfWJKB+qzmSQZyAY9oJet0D1ErwvoGLupKa8T5YEvtt6XWCrCx9fcATK1vY/s1Qc/t8g5v96mNpb6vhDD6ynC+/PBTvbk620154opZC879X1bY3g/kJ5aY1E4Rtkyrta7Ni/7xvXPHOU8+NCEXe5Xx6P5pK0PSoqHXHPs8TJs5Q+0KWwc+TgU9Z/d9b/8NbDy6z/riFFd/5ybvCYVHzltX6swtkd+KvKRTvlKT1sxvD0F1MdPMpANevB5CrVlQ5+xns3rv3zBx8fXx1Xb+8heffBjIX921z/HWF0T0lNEts/66vqvnoSQreZcsUW2f37XP/dbjUVh80r3YMbV9a811zeu/7yWqdvbitf/9JpQXTvY46s2tpKB/GvH4w8VkmGr11BQbH7DSq/3kinus7v+K7lY+fWf/YhRXf95zomh+Mhp+1qFGB75qchHOuUrPW3mWXrZU0B93ZOEbNCD1nqtDciGPuOt/uu/ansf2asPfizkz+76z4UYXq/3OeD9de5q5xzog2IK2ctOfd/WGN4PpKfWWBSOUbaM+0zXf8P48eO/mlrBKjNk8ED7wAffb08tXGY/Punn6UPMlM03s3VGDbd/X3xZmuSV8b8Zt9vw0WNsk402tva6Jpu0/iS76OKrSu3qZd1117WZM2f2yEkLBGizULSYetO1d9RZa3u9LV7WaUtaumzpzRfY0uvPSWXxdX+2lkKX5JRWs2VFaWmrsyUzzu62W3rX5UkuPdeRFjfQ1uInV7WlV27Y7b0+i1d55ounEJe23p5WHgO/TF36SuZGLffbBksftKXF/Ld1NVlxW7FPPnBpabM8jXu92jr+c1Fq1225ldVPmGBd8+db/bjx1vHP/DXQe0YWB1bEqXKpauQq/3m4y0YX5z9JyxwpVY5AG2V1A+BcYN+8sLj4u+qspX/xIauxuNlgxT2mUHaxgVX8b0h9h31u3EybMmCJFbekQpl9H3lqoJ36783t9sfWKea5iF1okqIg3VxTK1NklGKlH2IvbNJ5KWras2fP7s5X5051zjPb5ZLPpc5pohhocctTxTpZnGw8ujkhfmTunTZkwCgbNXhS4cKTJa02btToYj0us7seu9F+fclxdu09/7L2zrY0PoV4qoViysbngp1fb/JVkT21bBJ071xg9Xctsq5RzdY1uLj5NhXj9DycimJebH6b2S3zrenk+6zrlnl5fhWvQHlQ67r01+dyORQoX/C2gvbzuf6pmT/atePLV3KBHhm6FeHz9rbPdP2rD+rLXza1bfIEH8OvCWyodTwejUVNwQZf7Gt1lCQv34Qrltf3sCtrFeF1smdeqNP45QcN8kDmwScfWxXXx5GeGuSvORLSay61WefjQIpXyNPGFXURRzYq4Oc1/QZUYU/xcuBDDKHZLCosC3157ynH1tNO2GCrJ6UUDxvVQjFlkze56Ofjz2PlNm/yqBlDsfJxFcaljdA4Om7q7rELc62xZFPGooBq5EJz4eOpVi7QWw7gbQXt3q//7Od9av3QUXMctGvHl6/kAj2yFHcFN0Sft2yBXP35UK2Y6oP63WOVNrVt8gQfQ+dGNtQ6Ho9ev/Cl8CEqf92kyl86iv+QolheryJ/ahVR6YiVj8Vf/zomjgGZBx9/bCqKQxs9NchfcySkZyxsVnb9I1dNHNmoADohf/l4lLsfy1//qgFb5a14ii0bqJ2P2lzU974qsqeWjZAtep0XyUDj+liK01s85eHjqZY/eJ9qvGr9ej3tNXn9e1z4whe94lS2OtegcagVU31QX2P5cX2bPMHH8GsCG2odj0djUVP4gxRface+VkfxcsXyehXZUaexiyKk0x+DaOtrhMqRmmNA5sG3dr0rHkV6apC/5khIz1jYrLnrP29gqJ83oPDhOPJXAEHxFFvjQn5itJqL2lzU974qsqeWjZAtep0XyUBPqvpYitNbPOXh46mWP3gfP563FVxj/AEIV8ReR9v79Kaj5pzQrh1fvpIL9MjQrQift7dd2fUfG1bPgenTt7NXvHIn++sFf7Mbb7w1yTbffDPbdJMN7KEH77NHH5udZCujrlgAEyZPsFHrjLN77n/Irrr6hlKzemHD6sEHH+yxACgsNC1CLTi1tUhAfug8WmCy1+Kjrr0Z1rY1nkdjqhYaH3v57jUZmRZ6viC9X25X8bGRXm16ozqesmlL77Stl95qmyy92/Z4cn6y6Q2/YdX8fx+yli98yjqv+a817vaqbvndI9iwIsc8FkMyXs4ly+DfD3b8//bOLVjPq6zja59y3jm0JbRWeqIDQjultaUUEFHgQvRCGR3GGTvqhQx6IwMXziheODrqhRcO9UZ0vPHCwUOdqYwjg4ioqKEtzGAtTIWUtpAmTdKUJKVNsvdOXL/1vL/vfb6Vb6dp6SmFf7vyPOs5r/Wu9b7ft/a3v10uu4y/kKncxlh8A8aYmqiiBRnGELVvfmKhbH9iqSyuzpenN6+W0wvDjRBlJbduO1Y++Kp9ZcPcWuEM68ED28tdX7yy/M0Xril7D+6s13OINyZpfQ6nMqiHOeehENct1sHBgwcbJadz67Wy75oZ186Yy4dSy5lq6NfFytrJsvfAl8ry5l3l1TuuaQdWCwur5ROf/+Ny1z1/VvY9vneSl5jEcv0ZF0qfhq05s9w+yGvdPYEN0AboVw6cKAt3P9EOrsrjJ8scb2wXqryGOXOyPiiOnCpze4+Xuc8eKgt/u6/Mf3JfKftPTGJlOok59KXmB44h1yTv2LOufwDQGBe2eXzy6IV+eU4A9ui0py+1BqAs8+bLMKdUmB/77KsdPPm0A+ahAccFjIFNluvT2wHtaHkuscFPX2V+OWuuA140m7RGbQA5OTKwA+QNu1p7lfHTV/rq4a0tQzm0HzNNzPJ3bqkJftY6MIb3Dvva9j4gvtMI29EeEG8YTqP0rdlcNF6AcagBtWYOpWq04XAq1VVpxGXesR3nnDdKyJGNb56iXsTw+EwdVllflZkDmAeoMy88P1HPh1P6NjvpYKtcalzAeLMs866rrJu9/+PQJc+tPHqhn3MisEenPX2pNYCQNXaiN1+GOaXC/NhnX+3gXaPCPDTguIAxsMlyfXo7oB2t//6ffAikzDdHuQ54Qd85Qm4DyM/e/0HJr50x6MMD+Kj57Ln1Uwb9mGli9AcRw7md3v/TYzFGjgvC9uy1A4gF+hoci6Bvzeaiuabz2nY+oLkuKH0atsbIcvsg15tzA22AfsJ4QB1Unli9fU9zzF4uHIOy4KNmx551597/ocPesaIX+uU5Adij056+1BqAsszjM95PG6my6TEL8+OnL1Q7ePJpB8xDA44LGAObLM+1gcxrR+N7CvmEFdsj9v+4jgCUekCuA15oo9wGeKb764ECO0B+7YxBXz28NWcoh/ZjpolZ/s7t9P4f4RhAjgu07X1AnqNcg2MRzLE1m4vmfTh/ZxnrmVDQXBeUPg1bY2S5fZDrzbmBNkA/YTygjq48sXr7nuaYvVw4BmWZd11lXez/6fmmFq+n45NHL+gDdBnYo8u1SK0BKMu8+TLMKRXmx572PXlgtX15vlx1xcbyztu2lbfdvK285aat5a03L5e33rJc3n7rcrnlxuVy85uWyxvfsFyue+P2cs01W8sVV24tF128sWxdXiq33Pzmcvlll5W7/uEfy2MHD7eYGzYslVvffFP7MuqHH9nfZOfCL/7Cz7YXsJdefnXZs+e/y1e++vVB8/yCA6t9++ob5Ip2wdumHjeri0deqFdO35sMQMZGANi40HqqTmpz82adGwZIkaHPcd5zdZxaAx90yAE2tdf42ot/G4lc0R9o/W/pzGrZtna8XLZ6qFx5bENZPDNXNvzm75S1z39uQsHUJ6yuubZs+MCvlYXb3tE+abV6153lxMLp8uDOU5MaiT7W1P5tPPjsI6fbdfGnBNpiB42byzgGwqAL+wD9hZW5suXb82XXwY1lw3fqw6bars2v1VbKb7z6kXLxqbXyv49cUu6856ry13teW7766MXl+Am+s4pahvg1EJ+OmNRdG2+G26eqwmKorRVX33BFDYcPx7pHzrXCxms6sa+IF0Vc1/HhKsWv9+ltGubOlINHHylX7b6hfOfkkfJX//l75YH9XyonTj5V35zGw2li2yHfPKGzbqbm7UF9yjOl6Sc4mJp/7GT7Fb/5/3i8zP3TgXYwNf/J/WXxU4+Vuc8dKnP/c7TMH+L73KYfXOYxZq4vy7XLcwZm+XlNgPuWPjx67bWTF+qV03+57P9cp7VhZx8bgFxK62Or1xfgyzhzXGNag3Y5l0CGj7766Afgs7+2yvM8KwPYCw8+ci70vjmJNyLjnjMfLceEzzKasQQy9cql+nPPyGOAAsZivKyDoqPeLO9tQH8AxT2feBxW8St86KI19YQCfQGUnNqenXfal4Mqc6pvzxt4DqSGZw/IcZrPoLKvnrrlBTKuZ7vvDrZgli80zzNQn/3MA1xP9OHRh/302oYXxlNO3zgA2bPZ/5Vp1OYYaNpM1l01txZk1qFtrtPasLOPDUAupeknVa8vwJdx5rgRc3qcMXfj2hLI2Hv66qMfgEdurdoqz/McMuob6wfG0886fQNn35he6ywD8NN27OPxDQ5Apl45PkD/8Ht2+x9Z79PbGEMZgOLL+nvZPP9TnCy3r965yjaz5gbAZ7l2ec5A6IMCbe27nuhPv/53Dcc6xUcYXzl94wBk57P/OZgyFpT7J9QxBB861wmQIrMObKxHWBt29mO/TNdC62Or1xcQn3HmuBFzqIGbU51W9xOyDGT46Nt8hvwCHnmzHfQTn9rP86wtwF4YL+dCPz7/o6+/+bIMwPd2+gpk6pVL9ddPOyhgLH0tOVbv09tEjP4AKsbBvW5x0b/Ojq3XQjr6Amju93l7WDPIlKafyHGyPP9AA+pcZZtZcwPgs1y7PGdglp95AK+B1HM94O1rJy/UK6f/XPa/OqnNMWSd6wRIkaGf+H8v/JXAHdsXyltu3FJuuW5TedXO+iZ/ExeUT2/MldXTc42uZLpa5XVWoCun6wvjej9rusH+put/umzasL188b47y/Gjx8qxoyfL6spa+bn3fah8+ct7yqc/8y91cks5enSlvW498kT8GW9x8803ll/9wO3l63sfKtdff1356G//bnnkm+c+5NqyJRbL5k3zZdPmeOju3LFUb3ClbN0aJ8vbKp1fnK+2i+2n/PO1LW1cKH96xz2ThRGLIm4i/YKBslDQgazP9upcTC5obYAxlWkHzXpbtgPwIscFf/hjG6odNuiIQzzrjdgg4pJ3Oq4yYBzwQ4c3lNcOX0L+bLF358ny1YtPVo5gMTYQeXNdc+W3/u1Uve7XNxtkMS8x50OZk5rCFzsfqqFQNj8/fiSWm2PkGIJMYRKwIuoAzAMPSWLVTARp8ohd1xnXmPHU/6AA/v777x9yjbCfrzN1Whdtel5GuO7UQ+n3yDGk2HkzNUb2pU98brDq6Gc7a1YnzEcDxhe93nEAx4hOO2UAWz9mLbItyPH73EAZDVv6PpSso9dbY5ZLc/29n311yPSxr96YyrSDZr0t2wF4keMC4yDzmhqf5oNU3hdNvQwYB2gDshza1yDUydPw5f4L1U879TRqQZbrQw6wk+prv/4bBxyDbx6vsQPjWjMeQJ/j07c25bku7Y2r3ZgnMtm3DpBtafCg/9JaDof4ZKl67kv+ql9GjiGlxvh0FR8njxjIBH0/jaWOGrOdNasT5vN5MakxupODqyarwNeYjhHdpO5KBbYrL9n+j7lQLs3193721SHTx756Y4asjm+wQ571Nn3V58PAHBcYB9mLu//H6yRCNz5/oxauAW+M4tMByMYYUav1Isv1IQfYSYmrPsv1PXv/j+MQufZ+bPStTTljYgxQ7cfaHOe4loF96wDGpE8zfu/rXKiHOuaMHEPqPMj3vvS97uroZztrVifMRwPGF73ecQDHiE47ZQDb5/f5H+uNudAejHrHx3p7cfa/90vtoFnPfbW3A/AixwXGCb9Z+z/+EE7wz/Pzf2rZho1+8DR8iQ/VTzv17WCKWqos14cOYCflWe8f5shyfPA9e/9PFdmgH0Cf47R6htqUGxuqvXG16/PYtw6QbWnwoPfFxxoAlD5znJFjSKNWv3tq3OOCPmuedaGOfNnOmtUJ89EAennQ6x0HiDGO45cKbF+M1/+xx6bH1/tJc/1Zn+3VIdPHvnpjKtMOmvW2bAfgRY77ij2wWt42X37qXTvKrdctleXNfHndmXbYtHZmrn0nE4dQHlY1WptyD67WBmof/cLCxvK2H35/2fvwF8ujB79Sbzr1xlPncn7uTLn26h8pa6e2lAOPfbp90TWvuRaqHIp+tQZfXTtTbn7zB8vxJ0+VXTu3l2PHjpevfPkv6pWol4GLVS/M0mK9cHUMZ/i0z1Lwi5WerjXwGvh0lU9orZdf+WJca+hbn3FyocPu4x/bM1ksXHw3N32ai5QGL1xIQLm2LjhuluryIhPmQGcuoC9UHTTqi5u9cmvQ/w/euTTomrjyQdED/QIoRx7bMfYgrkDGI+z1RzaWy48vlU18TOk8wCer9i2vlAcuOlnqdDeM+cc6osYw+Oi/r7QDKxC2jC9sww451yvGnXXeeMYxUae5uH6+GAl/+gAeP/vEcl7peF2arNrxQG0yclkUqH1qvu+++5p+HF9cu8gRcueB9RZfVjveSKEA29Xhpq0PyP4A/aTeCvogr78cN/vmFwRQfiprH7vMi5xXHlgXyPkAOmsB+mmTY+qbZaCXw9OU0wB94wDs9dOOpt5x0Gc+AH2acYwpen8pMvO8FPsfQOkDYxAPWCMwhjwNXfYHyNAB5M4RcIzZHtCfJY8vZY14uQ7jZ2iTKejHoI491PINOZHR14a6rTfedMY40GGXx5XjYw+0M5axhX1oHjsyv0RWuXbEcY8jI3aLWZ9THCStrMQXWesDsj/wQEvQB/lXAidxK7Ivh1n6YsOnsuzngzF9Qc4rD9oPSHigw/Mma+ABdtYC8oEVQA+HjbUiw4o3L9AsB/A05TRA3zigxR78tKOpd37puwbGZ0LEMabo/aXIzHO++98/1pFt193/w2GvcmvI/lD6wBgv7P4f9l2Cz9dpOTX6DB7nz9w9tMkUTI8heHTWbU5k8PpTd/6UVYwDXXyHSR7XGH/W/o97h7FF9MdrCQXmz3JrI87M/V+B7PvP/3E8vRyeppwG6BsHsBb1046m3nHQn379P8Yxpuj9pcjM80z7n/ultlDv2/T9AQL34PjBc+TL6w5qDfC5DvoAO9r0/g/eGPI0x6kcIEMHkOd94hib/ehS+2fHAZE/4lm7uXsg47mprTbGAFlnPnMig9eGuq3XPoDHLo8rx8ceaKevsYV9qLUA82e5dsR57vvf9Rf3VEEfeK8DOW74Rm0evANsXtz9P173HFPfLAO9HJ6mnAboGwdgr592NPVeS/quAfo04xhTZH/l2prnmfa/OdCZC+gLVQe1vuxjDfCvuF8JvPG6reW9P76j/PxPLperL1+qg68viE/PlROr89FWoGOfLwc/sTbfvlS89Wlr8SXjrT/oONRiCV204/Kyc+ul5euP3F1l/EnGkNfZLQtzG8rS/HJ54tj+cnpudTxUGhonV1dc+dZyzbXvKt98+N7yg6+5oezbd185deqhsri0UBY31FYpb3jm6oacq7QuodZO1Tra4Rq1cYA29KGTfq0RSq3kiyVfypfu3jdZDNBa7NSCcBHlhQywR4edNvrRNx68PsaU1884YqxlWIg1t/Yu5BxHW/Tvbt9hNWK0hRIPWdPwz0CDH8JUhI99HppEOLxlrTy4c6U8sOtk+dpFtV18qn031f9VPpr8qWbz0EUr5eCm1RaYvMQR9sf6yVDKZx8+XS699NImc4zxqS/HZYyR4j4eVgVPvBhD8FJv0PQjBxs+aiBH3LyH2K2u6lWvR4s8xJ9nLQw88IvXicW12r9//9CP9UBzvVijPD7mzjoa15p4+PogwRbk2ACKLMcB6sWsvrGAMejnfAA+2+d+zqs+22U9PNAPvdCvH6s0++SY9JmvDGS5Ae29Hupmza25wIWy/4E6gM54yGnZp+f1xUeQXzk51Omrro+jLZR+m8NqAm8fXR+jlxHD+c85MjUHCeRp8lL2kS/k8HVuaMicXyB1vBF/ej5AjoUuXyOoOmvQB16baV389aPV+mLVAyUOkqwV5Ni4BXXOx9q0F7P6viEC8LwuoE/ebA/fngUtT+SmeX9u9fM/8bAb4obf9NiB9aIX8Mj7sUqzT45J//nb/8GbC7j+Zvlrg86+8eBzjZnnjwPQ89fORT92churra3hGgDk2uY6BDrjIadln57XFx+R17tjA/qaro/jG6mYA/bG9A8DiYsu54XvZeRz/nOOTCPHWKM55KWx/6MmfGNuxut4fvs/PiEmIlbMC7rvfv9///nfj1WafXJM+sxXBrJo2IdMe6+HNmO+sW6usbW6/mb5a6MffePB5xozHzpi408dTVXHMY6de6u/tsQ48toCIQ/bXIdAZy2Mx3ubPj2vLz7imff/UEu9L3FDU6atc5Dn0D66qRiVV8YPhgEx9EU+i5oj8zR56ez9H+NA5vwCqeM1fp4PkGOhy9cIqs4a9IHXptfRiEM8fGfvf2t0vTrO8dppL2b1XRPAGPRzPgAf9uO47Of61We7rI8DtcgLj17o149VSrO+HJM+85WBLDegvdfD1zHsOd+fYoPMXMD11/tjp41+9K0fXh9jyutnHNGPndza57UF4LV9xRxYvfH1W8ovv/+ScusNm8sluxbL6pk4bPJgivY09NRcoyc5tOLwamIzHGK1A63oc0jEp5Zi2gK7tv9AmTu9UA4c+dogYcJZ+PHpq40Ly+Xodw6VtTOr8YmndlhVb9CVzi9sKbfc8kvl8KFHy/ziatm46eLyjW98vjz19BPtkGnySS8oh1Ct78EUzcOp4LNNf0iVce+ebzUaC2K8KUZ/XGwsIqCOth70wT/7KYfScgz72uVFDM1xhPYZ775q/A6rSIeeZnxkY5zRHePo4JfDjrbZh38cT8jQR07GHnzcBLwBjDfSfHMIGjE+843Vsnv3qwa5MdjY0Q+ET0BZ2JHDufSFpS+cQYyBNsbIh1ejPmpr/SarqNTDqcbXZj7DwfMdVvpCvXYCuToa9WmfdVDtgbJeR1/0uVyD2SfmKXIr9yFMA8rtA/vSrLMf12rMm2/06q0DYNPnAdgZS3t9sc2UZhwakAJ4bfv8Qp28fetyXtXR1oM++Gc/5VDrEfa1y3VCcxyhfUbuz4op8lgBeqGf0N81kmVAe8ebbaHI0E1eUNTQrgvtjSGf+8aiD+CFMuBfBzSfuaHmxt64Altk2KoH5rQP1dZm/QIeG32h/sqC0Bddb2+LQyTiaT/WIzUWfUE9GbwZ4sVY9kFGn+ZhFW+K4EM+nUvQ115/QmpPa1+6W9E+SVfz+iX7E/0wf94vnfMWK0QN2DVbOtgPsoltorT+2kkBvLaT/B3UyfNMiGdYFOq8hm7MMwv6EC/7KYc2fggBoW9c+FwndBJneG4C7TNyf1ZMkccKWj0D9BP6uw+zDGgf441fk4tnb1BqR+evI4EXYv9H/nPtf2Iwr9MxsCUOttCcJ/eh2tqsn9gAFht9odhk6IuOlu2zDqo9UNbr6Is+F7GtUR/z2ZA7xzSg3D6wL806+8QG5vU6Z711AGz6PAA7Y2mvL7aZ0oxDA1IA72u7Pr8IXdQKr611Oa/qaOtBH/yzn3LoeB9toiYzLjp/aAC4D3EPB8qA9hm5n2PCO59AXntrA/oJ/V0jWQa0d7zM9bj/Zzz/K1wXYT+uQ3kOq/q89AG8UAbMbz5zQ1/K5z82Gfqi6+2zDqo9UNbr6Is+l+99so/vN6LFmH2vZCzt7QP70qyzz1gA1LkHWW8dNWKz6fMA7Iylvb7YZkozDg1IAby20/mpK/TssZxPW+tyXtXR1oM++Gc/5VDrEfa1y3VCcxyhvbjgD6yufe2W8v6f2V1uun5bWVha6A6pOIRKB1G1tUOr4VBK/mk+ZVV5Pm2FfzukOjP7Yl2263Xl4OFvlf2HHm4faT11aqWsrHA4VV+01xvu5oUd5bHD+8uRY0drvLVy4uRqbdWuvo559e4b6k1qsdx3/xfK6173trJv34Pljo//UXnga/vL3ocPloe/daQ8VNujB46WRx87Wg4cfLIcPvJkefzbT5ejx0+V40+dKk8+vVqequ3kyumysnq65oyFkRdDj3v3fHOyQCqZWmTc5PRh48FjC4xpH9B344jMA/vkiZzjRja3PwVA7s0amA87eeWA/nvagRV9Nxb6sIEOLg0jH/4jDWAfiFjExyfy4QyNzR586MylTfiETjsQ+cMm7Ev510fOlN27d0enArl1auMNV/AiNGqLuYlrEDeZ8TAIOwK4HsaHN7LQBUJfa6qxBDfziF0ffFU/CKm8xapRGw8OHToU/rXhMwvoxrUSc5DlXmNAPWBWLGXaQvWFmkO9UGYzp0BmXimynmZffcyb4wH72NCwR5bzGDPLgHbogDy0H6O27p1sm+2xg0emjzJwIe5/+L5pT3NsoPeXity3NvPnXPSFMprxcx4aQGY8oDzHAjmOyHMCrK3NXdWt1T2KH/1Z8+deFsjMD+xnG2LR97qAbJdjQG3oxsgj0BFTH9HkNQf3LVXmi4Omxk4QP50PP2nLWamHVfDqhTJbzNUYH1keJ0DWU+79+rYDnvqs99c+PbwSzifx/PSVc6ec7yTJuf0pez/H8lDnUZ22z33/x5ubF3r/twPW6m9e67nw9n+8KQFxIDRdH/utaib2IXth9j86KH72cw7flOU89PPrgejHvAli0Y/rEnOY7eTzOPsYGeisM0M5fuqIDWbFUqYtVF+oOdQLZTZzCmTmlSLrafbVx7w5HrCPDQ17ZDmPMbMMaIcOyEP7MWrrted6aZvtsYNH5utEZcDv9QHEMgaA5j6gb2yReWCfPJFr3P/er/k0Le+fkPODBChpzIetPDAmffi+aU9zbKD3l4rcj1rX2/9p3dRnwLj/x30CtAfIjAeU51gg4oSN4BnvcwH4fVfEe+b9P863oG9+YD/bEIv+c3n+zwI668xQjp86882K5b1XW6i+6HiWwasXymzmFMjyOAGynmZffeD7eMB+3IPHPZjzGLPPrR06IA91HtVpO+7/0Tbbs9/gsy2+yMAL/fy3TvOa+7k+/y/Y77C64oot5R1vv6js2rlYRzEIQR1NneY60MY2yvc5cQDFAT6fdOLTUPEdT9E/b/AJprXF8tihA9V3rX33xkq96fKnTrkIvHjdtml7eeLokZprtcriQlHDwiIv3ubbXxNc3rajbNi4WF/QzpVvHz3cbuDEbt8BwsFXWxBRP19t1V4o15v6Ur3I/DQXulhv+MQjJxc3XkyPPA8BFgLgO6yoY1xY44ZRRv3au0ikINu7YPUlJ4sPKMe2j4+deYwBtMv5gLGIja92v/+jfIcVMemPtQ1eA+1jjvL2byX4BmCmcweUz/aNethYwQfCh257c9Pk4R/2fIfVarnhhhtan7HFhuUGEr4j7Ic/PGPOh2fmYqyB0UeZsb0G3kgbKqXvixnnLK5pfTFT/6sZGsUWL2z4a5jagXw9jQGVD33YKsvX1GsMlK3HQ11HWe9c0kevzpZrRLeeHrmAp66s094YeQ4cE5R6sAOZ5rEKfED2MxZNf+3or8eLfrxZp48ybC+U/Q/or67Gi23jAvXYrieXKoP2uYHy9XwdizzQh8a9Oo9TnuZ4GEP+KLw5gH394bFjr/pXApFlm+wTsvHFC/PYzz2UPnL9oHl+p+ONPtoBv4cD9D7wfc526NPuOYwnvs/EWPquxxsv1wwcH/F4pqqjKcux1tMjF/CuI3XNp9q3GIyjPm8BNl5XKK8LsAXS9gW6w3rOyIdW6LE3ljkBPKC/Hi/ynOcYIHxGvfMJjCUFYR8xjKuvNQPl2GrPf86NeWbVlvPF4yZiOV/aAfov7v4fbWLeiM16i7+6lvOgx7YfpzzN8Zzf/h/3BXb4GhNZ2OSxjHlAxOYarbZ6c01Q+nkvQWN+VyZ9aPgExUc70MfMPvCz9M4B/bwnlK3HQ/uaATGQ0bc+eFuuAd16euQCnrqyTntj5DlwTFD3Mcg0j1XgA7KfsWj6a0d/mp9e56Afb9axHl6s/U8Y5wbqr4DH61h0zBdxx3zAWM6X8QD99ff/eF2m5dNjUwZVnqF8ypf/B1ns/3M8/6sOuf7yNMfDH9149s//Z9r/0VdmbOaxrwlKH7l+0Dy/fTx9tAN9zOwDP0vvHNDPe0JZ8KOfcuPlmoHj896sLlrIcqxpfYwJilzAU1fWaW+MPAeOidc2cRgcOuyleawCH4AcPXbGoumvnfln8SLPOfqcUx/1zicwlhRke+Pqa81AObZ9fOzM09emT4axnK9md6EdWG3YOF9uuumi8vo37KiDGYQD2kDqP3VYdXB1kuhCWwvZCw1eeHMxaHXKaxuTxk8XqI66qrwNIOnrReETL7yozT+5jXhxuIFfNDRxoW1c1KD04yAF/Pmf3D3UQ8qI6+L48D3/3OhLgf/6y0+U17wpvnx8Pfzdr3y4jakt1mFAD77vwUYvVFz991e/pPP+fOCO235isoaE10g5NyYeeiLWZNyAAA9qoL00X2+oN0T6+nvTk2Y/eYHevnGFPso+9IVPNfpyxcfeEvNuvczN+i/cYrzryaXKoMozlK/n63WQB/rQ+geUPI3asGEMr6gXbvzf+cD3OfXVjtqMpexsvl73wbev2Zjy8ccOYp6wBdpoB9UGaKe+53N9GflXHAB1Te//qImDHMCfpK5RJvZSY0h5bvoFvc0/XT/f/GQ/eZHn3LhCH2XGDH66LjCx5w0WB1ztWTvOC7UBZM22xujj85xvNK1BMmiX8wFjuTZyPPrPbf+ffY2hfW6gPMeUInMs8kAf2mJ3SCJPczxT+7/OqTmAsfSHxw7fLMs22UeZeZ/b/qdO7Mec+iDnDQrIb4qMAZXvc5pDu9n7f4yT5dC+5pBHDhq1xzxNrwHsc5w8l2E3PZ+Zd6zIMnI8QF0z9/+wR16Oz39jAmNJQbY3rr7WCZRj28fHzjyzasv5gLFcGzke/VifcV1YfyDHNB+Yfv0/e8/0UJ5jSpE5FnmgD/dQ79HICCHP+xTHw2+p+Mcw9BX2oSDinmv/B7WvjXOd1486qOPQDzrOb+3XsUC5P3HDDp94T4Yd6GPmGuDPyjn4auc1BsrW442Xa1YuP+7/s69NjqMN0E59z+f6MnI8QF3f/f6Pe6ufBNTf6xcH8OOazzFEnnPjCn2UOZ/AWFKQ7Y2rL/Pi2EIe17WPj515ZtWW84GI9Uz7f/3n/+TcoYqyXKoM2ucGytfzdSzyQB9aP055muNhDOfz+n/u9ttvP7vClyHmF86U3ZedLrsuqZsr1tP3cZ7gE1YiFlD87jWL5df3vHRv0M/nwOrOD3xksljFhX5gddWdV5WP3PuZoXdhggMrbqDtJjJcG282+QYV144bZjy46PNGVd9RFmsSP2+89OGB8QDyPkcPbaHYAW+O+uinLXYfvufTjX+54o7b3js1bprzBZwX5PB5nCDL+3mGOl+ZZmQ/aLbzmuZYQKoPOnivOcjrIQNZjtVDfQYy4stLze+DH2RfZY5HXY4Hsm+OS18fP1016Q9zbhxjQJXlnFD78sB8/KoV6HXTYxv3krGkYBaPvXGAeuTZn77XjAb8lFW/N6GTeLyBWar7f3iR1WTVhjcrUN6wxAusc+///CaIfg9t/eQUIG7+ab5+2uYcUOxAPixrGAhjyQeTAJ44re6hLHS0NrchakBmTEzxE9j29UiV57j6Pvv9P77hgub4Ob8Y/WKM2c71kGMB/kIg0Acd/Dn3/8Aiy7F6qM9ARnx5qfnJBQXZV5njUZfjgXxgEzriOddnXwf78MYxF1RZzmnsiAkf9taS60cGoDxns874vnnKOWbx2BsHqEce/kHp9/s/8jzD/q99rnu+3sqgjg1qHmA8gLzP0UNbKHZgHEP46KdtzgGV78cpsn/miWPdwFxZBpDlmNYJnAP1mSrPcX3Tnteda44mQh5zrZ88NMfP+cXoF2PMds5TjgWk3tvRwXvPB95jeyDLsXqoz0CWDzGk1kydUJB9lTkedfp6P28fJqi8B8PGxV6ffB3sw7c4FeZq9QyynBNqXx7kfKDX9WODx95YUjCLx944QD3y7E+/3xfm6fcmNMd79vs/5Nnegypz9NCW+5VrIe7RY136aZtzQOX7cYrsn3nHUHtNZq6QjUCWY+InnAP1mSrPcfVdf/9Tv3MXcv3koTm+NCP7QbOd85RjAak+6ODP+fwfgGyMVcr/A7SO+17Svf4WAAAAAElFTkSuQmCC;" vertex="1" parent="1">
          <mxGeometry x="180" y="-20" width="2399.43" height="1615" as="geometry" />
        </mxCell>
      </root>
    </mxGraphModel>
  </diagram>
</mxfile>
